<?xml version="1.0" standalone="no"?>
<!DOCTYPE svg PUBLIC "-//W3C//DTD SVG 1.1//EN" "http://www.w3.org/Graphics/SVG/1.1/DTD/svg11.dtd" >
<svg xmlns="http://www.w3.org/2000/svg" xmlns:xlink="http://www.w3.org/1999/xlink" version="1.1">
<metadata>
Created by FontForge 20170731 at Mon Jun 29 15:02:11 2020
 By Aleksey,,,
Copyright 2016 The Nunito Sans Project Authors (https://github.com/Fonthausen/NunitoSans)
</metadata>
<defs>
<font id="NunitoSans-Bold" horiz-adv-x="600" >
  <font-face 
    font-family="Nunito Sans"
    font-weight="700"
    font-stretch="normal"
    units-per-em="1000"
    panose-1="0 0 0 0 0 0 0 0 0 0"
    ascent="800"
    descent="-200"
    x-height="489"
    cap-height="705"
    bbox="-268 -278 1331 1051"
    underline-thickness="44"
    underline-position="-151"
    unicode-range="U+000D-FB02"
  />
<missing-glyph horiz-adv-x="500" 
d="M50 -180v885h400v-885h-400zM100 -130h300v785h-300v-785z" />
    <glyph glyph-name="fi" unicode="fi" horiz-adv-x="611" 
d="M414 594v122h139v-122h-139zM98 0v395h-94v94h94v1q0 104 54.5 157t169.5 60l44 2l6 -92l-39 -2q-60 -4 -85 -29.5t-25 -75.5v-21h323v-489h-125v395h-198v-395h-125z" />
    <glyph glyph-name="fl" unicode="fl" horiz-adv-x="683" 
d="M98 0v395h-94v94h94v1q0 104 54.5 157t169.5 60l49 3l8 -92l-46 -3q-60 -4 -85 -29.5t-25 -75.5v-21h133v-94h-133v-395h-125zM599 -10q-87 0 -128.5 47.5t-41.5 139.5v528h125v-522q0 -90 76 -90q11 0 22 1t21 4l-2 -99q-36 -9 -72 -9z" />
    <glyph glyph-name=".notdef" horiz-adv-x="500" 
d="M50 -180v885h400v-885h-400zM100 -130h300v785h-300v-785z" />
    <glyph glyph-name=".null" horiz-adv-x="0" 
 />
    <glyph glyph-name="nonmarkingreturn" horiz-adv-x="333" 
 />
    <glyph glyph-name="NULL" horiz-adv-x="0" 
 />
    <glyph glyph-name="NULL" horiz-adv-x="0" 
 />
    <glyph glyph-name="CR" unicode="&#xd;" horiz-adv-x="270" 
 />
    <glyph glyph-name="space" unicode=" " horiz-adv-x="270" 
 />
    <glyph glyph-name="exclam" unicode="!" horiz-adv-x="248" 
d="M86 209l-39 496h154l-39 -496h-76zM54 0v139h140v-139h-140z" />
    <glyph glyph-name="quotedbl" unicode="&#x22;" horiz-adv-x="447" 
d="M79 415l-30 290h145l-30 -290h-85zM284 415l-30 290h145l-30 -290h-85z" />
    <glyph glyph-name="numbersign" unicode="#" 
d="M81 0l34 172h-71v80h86l41 209h-106v80h120l33 164h87l-33 -164h126l33 164h87l-33 -164h71v-80h-86l-41 -209h106v-80h-120l-34 -172h-87l34 172h-126l-34 -172h-87zM217 252h125l41 209h-125z" />
    <glyph glyph-name="dollar" unicode="$" 
d="M260 -115v110q-66 5 -124.5 24.5t-101.5 54.5l39 101q47 -35 103 -54t123 -19q73 0 107 26t34 65q0 35 -23 56t-82 34l-106 23q-90 20 -135.5 66.5t-45.5 123.5q0 84 57.5 141.5t154.5 69.5v113h100v-112q52 -5 101 -25t83 -54l-38 -96q-76 70 -194 70q-62 0 -99.5 -28.5
t-37.5 -74.5q0 -34 23 -55t74 -32l106 -23q96 -21 142.5 -66.5t46.5 -120.5q0 -84 -57.5 -137.5t-149.5 -67.5v-113h-100z" />
    <glyph glyph-name="percent" unicode="%" horiz-adv-x="945" 
d="M308 -28l-82 48l412 713l81 -48zM222 284q-84 0 -131 58t-47 158t47 157.5t131 57.5t131 -57.5t47 -157.5t-47 -158t-131 -58zM222 368q36 0 56 32.5t20 99.5t-20 99t-56 32t-56 -31.5t-20 -99.5t20 -100t56 -32zM724 -10q-84 0 -131 58t-47 158t47 157.5t131 57.5
t131 -57.5t47 -157.5t-47 -158t-131 -58zM724 74q36 0 56 32.5t20 99.5t-20 99t-56 32t-56 -31.5t-20 -99.5t20 -100t56 -32z" />
    <glyph glyph-name="ampersand" unicode="&#x26;" horiz-adv-x="726" 
d="M301 -10q-113 0 -178.5 52.5t-65.5 137.5q0 68 38 118.5t105 90.5l6 3q-39 41 -56 78.5t-17 76.5q0 75 53.5 121.5t141.5 46.5q82 0 130 -41.5t48 -112.5q0 -54 -30.5 -99.5t-101.5 -87.5l135 -144q19 40 30.5 89.5t14.5 103.5h104q-6 -155 -75 -266l156 -157h-152
l-72 76q-43 -40 -98 -63t-116 -23zM328 626q-36 0 -58 -20.5t-22 -55.5q0 -26 12.5 -48.5t44.5 -58.5q53 31 74.5 56t21.5 57q0 34 -20 52t-53 18zM308 89q81 0 137 56l-170 176q-51 -29 -72.5 -59t-21.5 -72q0 -47 32.5 -74t94.5 -27z" />
    <glyph glyph-name="quotesingle" unicode="'" horiz-adv-x="242" 
d="M79 415l-30 290h145l-30 -290h-85z" />
    <glyph glyph-name="parenleft" unicode="(" horiz-adv-x="358" 
d="M238 -195q-74 110 -106 224.5t-32 233.5q0 120 32 234t106 224l85 -34q-47 -115 -68 -214.5t-21 -209.5q0 -109 21 -209t68 -215z" />
    <glyph glyph-name="parenright" unicode=")" horiz-adv-x="358" 
d="M120 -195l-85 34q47 116 68 216t21 208t-21 208t-68 216l85 34q74 -110 106 -224.5t32 -233.5t-32 -233.5t-106 -224.5z" />
    <glyph glyph-name="asterisk" unicode="*" horiz-adv-x="452" 
d="M165 338l-76 44l72 110l-130 -7v87l131 -8l-72 111l76 44l61 -126l60 126l76 -45l-72 -110l131 8v-87l-131 7l72 -110l-76 -44l-61 127z" />
    <glyph glyph-name="plus" unicode="+" 
d="M254 40v203h-198v88h198v197h92v-197h198v-88h-198v-203h-92z" />
    <glyph glyph-name="comma" unicode="," horiz-adv-x="248" 
d="M115 -133l-51 40q25 25 37.5 47.5t17.5 45.5h-65v139h140v-92q0 -51 -17.5 -93.5t-61.5 -86.5z" />
    <glyph glyph-name="hyphen" unicode="-" horiz-adv-x="434" 
d="M68 218v100h298v-100h-298z" />
    <glyph glyph-name="period" unicode="." horiz-adv-x="248" 
d="M54 0v139h140v-139h-140z" />
    <glyph glyph-name="slash" unicode="/" horiz-adv-x="313" 
d="M74 -71l-94 28l259 803l94 -28z" />
    <glyph glyph-name="zero" unicode="0" 
d="M300 -10q-125 0 -191 94.5t-66 269.5q0 177 66 269t191 92q126 0 191.5 -92t65.5 -268t-66 -270.5t-191 -94.5zM300 95q68 0 100.5 62.5t32.5 197.5q0 134 -32.5 194.5t-100.5 60.5q-67 0 -100 -60.5t-33 -194.5q0 -135 33 -197.5t100 -62.5z" />
    <glyph glyph-name="one" unicode="1" 
d="M109 0v106h159v453l-123 -74l-50 94l210 126h91v-599h149v-106h-436z" />
    <glyph glyph-name="two" unicode="2" 
d="M80 0v95l228 243q46 50 66 88.5t20 78.5q0 102 -123 102q-96 0 -177 -72l-43 96q42 38 105 61t131 23q113 0 173.5 -51t60.5 -146q0 -64 -30.5 -123t-95.5 -127l-155 -162h308v-106h-468z" />
    <glyph glyph-name="three" unicode="3" 
d="M286 -10q-72 0 -137.5 21.5t-108.5 58.5l42 98q90 -70 200 -70q135 0 135 106q0 50 -33.5 74.5t-97.5 24.5h-113v106h101q56 0 89 27.5t33 76.5q0 46 -30.5 70t-88.5 24q-104 0 -183 -72l-42 96q42 40 105 62t131 22q110 0 171 -49.5t61 -137.5q0 -57 -29 -100t-79 -62
q61 -17 95 -62.5t34 -110.5q0 -94 -68 -148.5t-187 -54.5z" />
    <glyph glyph-name="four" unicode="4" 
d="M349 0v134h-307v94l329 477h106v-465h99v-106h-99v-134h-128zM349 240v269l-184 -269h184z" />
    <glyph glyph-name="five" unicode="5" 
d="M306 -10q-69 0 -134 21.5t-106 58.5l42 98q91 -70 196 -70q63 0 98.5 32.5t35.5 87.5q0 56 -34 90.5t-93 34.5q-84 0 -139 -67h-86v429h433v-106h-308v-191q53 40 130 40q67 0 116.5 -28.5t77 -79t27.5 -117.5q0 -69 -31 -121.5t-88.5 -82t-136.5 -29.5z" />
    <glyph glyph-name="six" unicode="6" 
d="M326 -10q-131 0 -202.5 92t-71.5 258q0 179 80.5 277t222.5 98q56 0 111 -20.5t94 -58.5l-42 -96q-37 34 -79 50.5t-86 16.5q-87 0 -133 -61t-46 -182v-29q21 55 68 86t108 31t108 -29t74 -80t27 -117q0 -68 -29.5 -121.5t-82 -84t-121.5 -30.5zM319 92q54 0 87.5 35.5
t33.5 93.5t-33.5 94t-87.5 36t-87.5 -36t-33.5 -94t33.5 -93.5t87.5 -35.5z" />
    <glyph glyph-name="seven" unicode="7" 
d="M86 0l318 598h-349v107h491v-96l-319 -609h-141z" />
    <glyph glyph-name="eight" unicode="8" 
d="M300 -10q-123 0 -192.5 53t-69.5 147q0 64 33.5 109t87.5 63q-48 21 -75.5 64t-27.5 99q0 89 66 139.5t178 50.5q113 0 179 -50.5t66 -139.5q0 -56 -27.5 -99.5t-74.5 -63.5q54 -18 86.5 -63.5t32.5 -108.5q0 -94 -69.5 -147t-192.5 -53zM300 407q59 0 92.5 28t33.5 77
q0 48 -33.5 75.5t-92.5 27.5t-92 -27.5t-33 -75.5q0 -49 33 -77t92 -28zM300 90q143 0 143 109q0 108 -143 108q-70 0 -106.5 -27t-36.5 -81t36.5 -81.5t106.5 -27.5z" />
    <glyph glyph-name="nine" unicode="9" 
d="M246 -10q-56 0 -111 21.5t-95 58.5l43 96q36 -34 78.5 -51t85.5 -17q88 0 134 61t46 182v30q-20 -55 -67 -86.5t-110 -31.5q-60 0 -107 29t-74.5 80.5t-27.5 116.5q0 69 30 122t82.5 83.5t120.5 30.5q132 0 203 -91.5t71 -258.5q0 -178 -80 -276.5t-222 -98.5zM282 355
q54 0 87.5 35.5t33.5 93.5t-33.5 94t-87.5 36t-87.5 -36t-33.5 -94t33.5 -93.5t87.5 -35.5z" />
    <glyph glyph-name="colon" unicode=":" horiz-adv-x="248" 
d="M54 351v138h140v-138h-140zM54 0v139h140v-139h-140z" />
    <glyph glyph-name="semicolon" unicode=";" horiz-adv-x="248" 
d="M54 351v138h140v-138h-140zM115 -133l-51 40q25 25 37.5 47.5t17.5 45.5h-65v139h140v-92q0 -51 -17.5 -93.5t-61.5 -86.5z" />
    <glyph glyph-name="less" unicode="&#x3c;" 
d="M544 33l-488 207v95l488 207v-97l-376 -158l376 -158v-96z" />
    <glyph glyph-name="equal" unicode="=" 
d="M56 343v88h488v-88h-488zM56 144v87h488v-87h-488z" />
    <glyph glyph-name="greater" unicode="&#x3e;" 
d="M56 33v96l377 158l-377 158v97l488 -207v-95z" />
    <glyph glyph-name="question" unicode="?" horiz-adv-x="459" 
d="M183 209v40q0 47 17.5 87t59.5 87q32 35 44.5 60t12.5 53q0 33 -24 52t-68 19q-98 0 -181 -72l-42 96q42 38 104.5 61t126.5 23q63 0 110.5 -21t74 -58t26.5 -87q0 -46 -20.5 -86t-72.5 -87q-47 -43 -65 -75t-23 -64l-4 -28h-76zM151 0v139h140v-139h-140z" />
    <glyph glyph-name="at" unicode="@" horiz-adv-x="950" 
d="M486 -165q-128 0 -225.5 54t-152 151.5t-54.5 227.5q0 101 32 183t92 141t142.5 91t182.5 32q118 0 206.5 -46.5t137.5 -130t49 -196.5q0 -87 -24.5 -150.5t-68 -98t-101.5 -34.5q-49 0 -81 22.5t-43 63.5q-27 -43 -65 -64.5t-81 -21.5q-80 0 -124 50t-44 137
q0 73 27.5 130t76 90t110.5 33q89 0 122 -71l11 61h93l-42 -241q-6 -33 -6 -54q0 -61 52 -61q49 0 79.5 57.5t30.5 151.5q0 93 -38.5 159t-109 101.5t-168.5 35.5q-109 0 -190 -45.5t-126 -128.5t-45 -196q0 -111 42.5 -191t120 -122.5t182.5 -42.5q152 0 243 83l40 -66
q-48 -45 -121 -69.5t-162 -24.5zM450 138q57 0 93.5 51t36.5 133q0 97 -86 97q-58 0 -95 -48t-37 -124q0 -53 23 -81t65 -28z" />
    <glyph glyph-name="A" unicode="A" horiz-adv-x="744" 
d="M1 0l319 705h105l319 -705h-130l-70 163h-344l-69 -163h-130zM371 566l-127 -301h256l-127 301h-2z" />
    <glyph glyph-name="B" unicode="B" horiz-adv-x="688" 
d="M77 0v705h308q111 0 172 -48.5t61 -134.5q0 -57 -29 -98t-80 -60q60 -17 93.5 -59.5t33.5 -107.5q0 -94 -63.5 -145.5t-176.5 -51.5h-319zM200 406h163q131 0 131 101t-131 101h-163v-202zM200 97h180q132 0 132 106t-132 106h-180v-212z" />
    <glyph glyph-name="C" unicode="C" horiz-adv-x="679" 
d="M405 -10q-110 0 -188.5 44.5t-120.5 126t-42 192.5t42 192t120.5 125.5t188.5 44.5q71 0 134.5 -22t104.5 -63l-42 -102q-45 38 -92 55.5t-101 17.5q-107 0 -163 -64.5t-56 -183.5t56 -184t163 -65q54 0 101 17.5t92 55.5l42 -102q-41 -40 -104.5 -62.5t-134.5 -22.5z
" />
    <glyph glyph-name="D" unicode="D" horiz-adv-x="762" 
d="M77 0v705h262q177 0 273.5 -91t96.5 -261q0 -169 -96.5 -261t-273.5 -92h-262zM205 106h126q244 0 244 247q0 246 -244 246h-126v-493z" />
    <glyph glyph-name="E" unicode="E" horiz-adv-x="597" 
d="M77 0v705h469v-102h-346v-194h324v-102h-324v-205h346v-102h-469z" />
    <glyph glyph-name="F" unicode="F" horiz-adv-x="562" 
d="M77 0v705h461v-102h-333v-199h312v-102h-312v-302h-128z" />
    <glyph glyph-name="G" unicode="G" horiz-adv-x="736" 
d="M416 -10q-117 0 -197.5 44t-122.5 125t-42 192q0 112 43 193.5t124 126t194 44.5q74 0 139 -21.5t108 -59.5l-43 -100q-47 37 -96 53t-108 16q-112 0 -169.5 -65t-57.5 -187q0 -123 59 -187t175 -64q33 0 67.5 5.5t68.5 16.5v164h-162v95h269v-339q-49 -24 -116 -38
t-133 -14z" />
    <glyph glyph-name="H" unicode="H" horiz-adv-x="773" 
d="M77 0v705h128v-294h363v294h128v-705h-128v304h-363v-304h-128z" />
    <glyph glyph-name="I" unicode="I" horiz-adv-x="281" 
d="M77 0v705h128v-705h-128z" />
    <glyph glyph-name="J" unicode="J" horiz-adv-x="355" 
d="M-1 -9l-9 105l71 4q89 6 89 98v507h128v-506q0 -190 -197 -204z" />
    <glyph glyph-name="K" unicode="K" horiz-adv-x="664" 
d="M77 0v705h128v-312h2l311 312h156l-343 -339l360 -366h-158l-326 326h-2v-326h-128z" />
    <glyph glyph-name="L" unicode="L" horiz-adv-x="562" 
d="M77 0v705h128v-596h338v-109h-466z" />
    <glyph glyph-name="M" unicode="M" horiz-adv-x="868" 
d="M79 0v705h107l250 -461l249 461h105v-705h-116v475l-202 -368h-75l-202 366v-473h-116z" />
    <glyph glyph-name="N" unicode="N" horiz-adv-x="748" 
d="M77 0v705h96l379 -492v492h119v-705h-95l-380 494v-494h-119z" />
    <glyph glyph-name="O" unicode="O" horiz-adv-x="785" 
d="M393 -10q-102 0 -178.5 45t-118.5 126.5t-42 191.5q0 111 42 192t118 125.5t179 44.5t179 -44.5t118 -125.5t42 -191q0 -111 -42 -192.5t-118 -126.5t-179 -45zM393 100q97 0 151 67t54 186q0 120 -53.5 186t-151.5 66q-97 0 -151 -66t-54 -186q0 -119 54 -186t151 -67z
" />
    <glyph glyph-name="P" unicode="P" horiz-adv-x="652" 
d="M77 0v705h306q116 0 179 -58t63 -162t-63 -162.5t-179 -58.5h-178v-264h-128zM205 365h158q138 0 138 120q0 119 -138 119h-158v-239z" />
    <glyph glyph-name="Q" unicode="Q" horiz-adv-x="785" 
d="M584 -213l-97 157q-29 46 -95 46v0q-102 0 -178 45t-118 126.5t-42 191.5q0 111 42 192t118 125.5t179 44.5t179 -44.5t118 -125.5t42 -191q0 -120 -49.5 -206t-136.5 -126q43 -14 74 -67l73 -116zM393 100q97 0 151 67t54 186q0 120 -53.5 186t-151.5 66q-97 0 -151 -66
t-54 -186q0 -119 54 -186t151 -67z" />
    <glyph glyph-name="R" unicode="R" horiz-adv-x="686" 
d="M77 0v705h306q116 0 179 -55.5t63 -155.5q0 -79 -41 -130.5t-118 -69.5q51 -16 84 -77l118 -217h-141l-122 225q-18 33 -42.5 45t-62.5 12h-95v-282h-128zM205 377h156q140 0 140 114q0 113 -140 113h-156v-227z" />
    <glyph glyph-name="S" unicode="S" horiz-adv-x="631" 
d="M320 -10q-83 0 -154 21.5t-120 58.5l39 101q49 -35 107.5 -54t127.5 -19q79 0 115 26.5t36 68.5q0 35 -25.5 55t-87.5 33l-110 23q-188 40 -188 193q0 66 35 115t97 76t143 27q72 0 135 -21.5t105 -60.5l-39 -96q-83 70 -202 70q-69 0 -108 -29t-39 -76q0 -36 24 -57.5
t82 -33.5l109 -23q99 -21 147.5 -66t48.5 -120q0 -63 -34 -111t-96.5 -74.5t-147.5 -26.5z" />
    <glyph glyph-name="T" unicode="T" horiz-adv-x="621" 
d="M247 0v598h-242v107h612v-107h-242v-598h-128z" />
    <glyph glyph-name="U" unicode="U" horiz-adv-x="738" 
d="M370 -10q-145 0 -221.5 75.5t-76.5 223.5v416h128v-415q0 -95 43.5 -142.5t126.5 -47.5q169 0 169 190v415h127v-416q0 -148 -75 -223.5t-221 -75.5z" />
    <glyph glyph-name="V" unicode="V" horiz-adv-x="713" 
d="M303 0l-314 705h137l233 -541l233 541h132l-314 -705h-107z" />
    <glyph glyph-name="W" unicode="W" horiz-adv-x="1113" 
d="M271 0l-249 705h132l175 -520l184 520h95l180 -527l180 527h125l-251 -705h-106l-179 509l-180 -509h-106z" />
    <glyph glyph-name="X" unicode="X" horiz-adv-x="672" 
d="M-6 0l269 359l-259 346h149l183 -253l183 253h150l-259 -346l268 -359h-150l-192 264l-191 -264h-151z" />
    <glyph glyph-name="Y" unicode="Y" horiz-adv-x="618" 
d="M245 0v324l-271 381h149l188 -267l189 267h143l-270 -382v-323h-128z" />
    <glyph glyph-name="Z" unicode="Z" horiz-adv-x="605" 
d="M47 0v94l372 504h-372v107h522v-94l-372 -504h387v-107h-537z" />
    <glyph glyph-name="bracketleft" unicode="[" horiz-adv-x="354" 
d="M106 -180v885h236v-94h-111v-697h111v-94h-236z" />
    <glyph glyph-name="backslash" unicode="\" horiz-adv-x="313" 
d="M239 -71l-259 803l94 28l259 -803z" />
    <glyph glyph-name="bracketright" unicode="]" horiz-adv-x="354" 
d="M12 -180v94h111v697h-111v94h236v-885h-236z" />
    <glyph glyph-name="asciicircum" unicode="^" 
d="M46 140l207 488h94l207 -488h-96l-158 377l-158 -377h-96z" />
    <glyph glyph-name="underscore" unicode="_" horiz-adv-x="500" 
d="M20 -75v75h460v-75h-460z" />
    <glyph glyph-name="grave" unicode="`" horiz-adv-x="500" 
d="M208 554l-141 203h123l102 -203h-84z" />
    <glyph glyph-name="a" unicode="a" horiz-adv-x="547" 
d="M226 -10q-53 0 -94.5 20.5t-65 55.5t-23.5 79q0 54 28 85.5t91 45.5t169 14h35v21q0 50 -22 72t-74 22q-41 0 -84 -12.5t-87 -38.5l-36 85q26 18 61.5 31.5t75 21t74.5 7.5q107 0 159 -49.5t52 -153.5v-296h-117v78q-17 -41 -54 -64.5t-88 -23.5zM252 76q49 0 81.5 34
t32.5 86v22h-34q-94 0 -130.5 -14.5t-36.5 -52.5q0 -33 23 -54t64 -21z" />
    <glyph glyph-name="b" unicode="b" 
d="M347 -10q-54 0 -96.5 24t-63.5 65v-79h-122v705h125v-288q22 37 63.5 59.5t93.5 22.5q65 0 113 -31t75 -87.5t27 -135.5q0 -78 -27 -135.5t-75.5 -88.5t-112.5 -31zM312 85q56 0 90 40.5t34 119.5q0 80 -34 119.5t-90 39.5t-90 -39.5t-34 -119.5q0 -79 34 -119.5
t90 -40.5z" />
    <glyph glyph-name="c" unicode="c" horiz-adv-x="472" 
d="M291 -10q-77 0 -134 31.5t-88 89.5t-31 136t31 134.5t88 87t134 30.5q47 0 93 -15t76 -42l-37 -87q-26 23 -58.5 35t-62.5 12q-65 0 -100.5 -40.5t-35.5 -115.5q0 -74 35.5 -116.5t100.5 -42.5q29 0 62 12t59 36l37 -88q-30 -26 -76.5 -41.5t-92.5 -15.5z" />
    <glyph glyph-name="d" unicode="d" 
d="M253 -10q-64 0 -112.5 31t-75.5 88.5t-27 135.5q0 79 27 135.5t75.5 87.5t112.5 31q52 0 94 -23t63 -61v290h125v-705h-122v81q-20 -42 -63 -66.5t-97 -24.5zM288 85q56 0 90 40.5t34 119.5q0 80 -34 119.5t-90 39.5t-90 -39.5t-34 -119.5q0 -79 34 -119.5t90 -40.5z" />
    <glyph glyph-name="e" unicode="e" horiz-adv-x="542" 
d="M306 -10q-83 0 -143 31t-92.5 88t-32.5 135q0 76 31.5 133t87 89.5t126.5 32.5q104 0 164.5 -66t60.5 -180v-37h-350q14 -131 150 -131q41 0 82 12.5t75 39.5l35 -84q-35 -29 -88 -46t-106 -17zM288 414q-55 0 -89 -34t-41 -92h246q-4 61 -33.5 93.5t-82.5 32.5z" />
    <glyph glyph-name="f" unicode="f" horiz-adv-x="364" 
d="M98 0v395h-94v94h94v1q0 104 54.5 157t169.5 60l49 3l8 -92l-46 -3q-60 -4 -85 -29.5t-25 -75.5v-21h133v-94h-133v-395h-125z" />
    <glyph glyph-name="g" unicode="g" horiz-adv-x="604" 
d="M293 -190q-68 0 -127.5 15.5t-104.5 47.5l36 87q42 -28 90 -41.5t96 -13.5q134 0 134 129v67q-21 -41 -64.5 -65t-96.5 -24q-66 0 -115 30.5t-76 85.5t-27 128t27 127.5t76 85t115 30.5q55 0 98 -24.5t63 -65.5v80h122v-440q0 -119 -63 -179t-183 -60zM290 107
q58 0 92 40t34 109t-34 108.5t-92 39.5t-92 -39.5t-34 -108.5t34 -109t92 -40z" />
    <glyph glyph-name="h" unicode="h" horiz-adv-x="585" 
d="M65 0v705h125v-287q25 40 67 60.5t93 20.5q173 0 173 -201v-298h-125v292q0 57 -21.5 83t-66.5 26q-55 0 -87.5 -34.5t-32.5 -91.5v-275h-125z" />
    <glyph glyph-name="i" unicode="i" horiz-adv-x="255" 
d="M57 594v122h140v-122h-140zM65 0v489h125v-489h-125z" />
    <glyph glyph-name="j" unicode="j" horiz-adv-x="259" 
d="M61 594v122h140v-122h-140zM-45 -193l-9 91l46 5q77 9 77 90v496h125v-480q0 -98 -45 -144.5t-151 -54.5z" />
    <glyph glyph-name="k" unicode="k" horiz-adv-x="536" 
d="M65 0v705h125v-424h2l197 208h151l-222 -234l236 -255h-153l-209 218h-2v-218h-125z" />
    <glyph glyph-name="l" unicode="l" horiz-adv-x="319" 
d="M235 -10q-87 0 -128.5 47.5t-41.5 139.5v528h125v-522q0 -90 76 -90q11 0 22 1t21 4l-2 -99q-36 -9 -72 -9z" />
    <glyph glyph-name="m" unicode="m" horiz-adv-x="877" 
d="M67 0v489h122v-75q22 40 61 62.5t90 22.5q110 0 144 -96q23 45 66 70.5t98 25.5q165 0 165 -201v-298h-125v293q0 56 -18.5 82t-62.5 26q-49 0 -77 -34.5t-28 -95.5v-271h-125v293q0 56 -18.5 82t-61.5 26q-49 0 -77 -34.5t-28 -95.5v-271h-125z" />
    <glyph glyph-name="n" unicode="n" horiz-adv-x="585" 
d="M65 0v489h122v-76q25 42 67.5 64t95.5 22q173 0 173 -201v-298h-125v292q0 57 -21.5 83t-66.5 26q-55 0 -87.5 -34.5t-32.5 -91.5v-275h-125z" />
    <glyph glyph-name="o" unicode="o" horiz-adv-x="576" 
d="M288 -10q-76 0 -132 31t-87 88.5t-31 135.5t31 135t87 88t132 31t132 -31t87 -88t31 -135t-31 -135.5t-87 -88.5t-132 -31zM288 85q56 0 90 40.5t34 119.5q0 80 -34 119.5t-90 39.5t-90 -39.5t-34 -119.5q0 -79 34 -119.5t90 -40.5z" />
    <glyph glyph-name="p" unicode="p" 
d="M65 -180v669h122v-78q21 40 63.5 64t96.5 24q64 0 112.5 -31t75.5 -87.5t27 -135.5q0 -78 -27 -135.5t-75 -88.5t-113 -31q-52 0 -93.5 22.5t-63.5 60.5v-253h-125zM312 85q56 0 90 40.5t34 119.5q0 80 -34 119.5t-90 39.5t-90 -39.5t-34 -119.5q0 -79 34 -119.5
t90 -40.5z" />
    <glyph glyph-name="q" unicode="q" 
d="M410 -180v254q-21 -38 -63 -61t-94 -23q-64 0 -112.5 31t-75.5 88.5t-27 135.5q0 79 27 135.5t75.5 87.5t112.5 31q54 0 97 -24.5t63 -65.5v80h122v-669h-125zM288 85q56 0 90 40.5t34 119.5q0 80 -34 119.5t-90 39.5t-90 -39.5t-34 -119.5q0 -79 34 -119.5t90 -40.5z
" />
    <glyph glyph-name="r" unicode="r" horiz-adv-x="392" 
d="M65 0v489h122v-86q36 87 154 96l38 3l8 -106l-72 -7q-123 -12 -123 -126v-263h-127z" />
    <glyph glyph-name="s" unicode="s" horiz-adv-x="488" 
d="M244 -10q-62 0 -116 15t-90 43l32 82q37 -25 83 -38.5t92 -13.5q48 0 71.5 16.5t23.5 43.5q0 42 -62 54l-100 19q-127 24 -127 132q0 48 26.5 83t73.5 54t108 19q52 0 100 -14.5t82 -43.5l-34 -82q-29 24 -69.5 38t-77.5 14q-49 0 -72.5 -17t-23.5 -45q0 -44 57 -54
l100 -19q65 -12 98.5 -44t33.5 -86q0 -73 -57 -114.5t-152 -41.5z" />
    <glyph glyph-name="t" unicode="t" horiz-adv-x="384" 
d="M289 -10q-194 0 -194 192v213h-94v94h94v146h125v-146h148v-94h-148v-206q0 -48 21 -72t68 -24q14 0 29 3.5t31 7.5l19 -92q-18 -10 -45.5 -16t-53.5 -6z" />
    <glyph glyph-name="u" unicode="u" horiz-adv-x="579" 
d="M242 -10q-180 0 -180 202v297h125v-299q0 -52 21 -77t67 -25q50 0 82 34.5t32 91.5v275h125v-489h-122v73q-49 -83 -150 -83z" />
    <glyph glyph-name="v" unicode="v" horiz-adv-x="527" 
d="M209 0l-212 489h133l136 -342l141 342h125l-215 -489h-108z" />
    <glyph glyph-name="w" unicode="w" horiz-adv-x="853" 
d="M200 0l-193 489h128l125 -344l126 344h88l126 -346l125 346h121l-192 -489h-109l-119 315l-117 -315h-109z" />
    <glyph glyph-name="x" unicode="x" horiz-adv-x="546" 
d="M-3 0l205 253l-192 236h146l118 -151l118 151h146l-193 -237l206 -252h-147l-131 165l-130 -165h-146z" />
    <glyph glyph-name="y" unicode="y" horiz-adv-x="526" 
d="M109 -180l90 200l-203 469h133l137 -342l140 342h126l-294 -669h-129z" />
    <glyph glyph-name="z" unicode="z" horiz-adv-x="474" 
d="M49 0v81l252 314h-252v94h388v-81l-252 -314h263v-94h-399z" />
    <glyph glyph-name="braceleft" unicode="{" horiz-adv-x="391" 
d="M264 -180q-58 0 -89.5 31.5t-31.5 89.5v194q0 41 -14.5 58.5t-49.5 20.5l-36 3v91l36 3q35 3 49.5 21t14.5 58v194q0 58 31.5 89.5t89.5 31.5h115v-94h-68q-43 0 -43 -44v-192q0 -41 -22.5 -73t-55.5 -40q33 -7 55.5 -39t22.5 -73v-192q0 -44 43 -44h68v-94h-115z" />
    <glyph glyph-name="bar" unicode="|" horiz-adv-x="289" 
d="M82 -180v885h125v-885h-125z" />
    <glyph glyph-name="braceright" unicode="}" horiz-adv-x="391" 
d="M12 -180v94h69q42 0 42 44v192q0 41 23 73t56 39q-33 8 -56 40t-23 73v192q0 44 -42 44h-69v94h115q58 0 89.5 -31.5t31.5 -89.5v-194q0 -40 14.5 -58t49.5 -21l36 -3v-91l-36 -3q-35 -3 -49.5 -20.5t-14.5 -58.5v-194q0 -58 -31.5 -89.5t-89.5 -31.5h-115z" />
    <glyph glyph-name="asciitilde" unicode="~" 
d="M410 209q-23 0 -50.5 8.5t-67.5 29.5q-37 20 -59.5 27.5t-37.5 7.5q-51 0 -72 -59l-67 38q18 49 53.5 77t81.5 28q24 0 51.5 -8.5t65.5 -28.5q68 -36 97 -36q51 0 75 59l64 -39q-17 -48 -53 -76t-81 -28z" />
    <glyph glyph-name="uni00A0" unicode="&#xa0;" horiz-adv-x="270" 
 />
    <glyph glyph-name="exclamdown" unicode="&#xa1;" horiz-adv-x="248" 
d="M54 350v139h140v-139h-140zM47 -180l39 460h76l39 -460h-154z" />
    <glyph glyph-name="cent" unicode="&#xa2;" 
d="M271 -115v113q-87 20 -138 86t-51 161q0 61 23.5 111t65.5 84.5t100 46.5v122h100v-116q44 -4 83 -19.5t64 -39.5l-35 -86q-28 23 -63 36.5t-71 13.5q-65 0 -102 -42t-37 -109q0 -68 36.5 -111t101.5 -43q36 0 71.5 13.5t63.5 36.5l35 -86q-26 -23 -64.5 -40t-82.5 -22
v-110h-100z" />
    <glyph glyph-name="sterling" unicode="&#xa3;" 
d="M44 0v105h84v205h-84v88h84v99q0 99 58.5 158.5t177.5 59.5q59 0 116 -19t95 -54l-44 -93q-35 34 -77 48.5t-84 14.5q-58 0 -86 -28.5t-28 -81.5v-104h166v-88h-166v-205h305v-105h-517z" />
    <glyph glyph-name="currency" unicode="&#xa4;" 
d="M82 -30l-51 52l73 75q-22 31 -34.5 69t-12.5 79q0 42 12.5 80t34.5 69l-73 75l51 51l74 -75q30 23 66.5 35.5t76.5 12.5t76 -12t66 -35l73 76l54 -55l-74 -75q46 -64 46 -147q0 -41 -12 -78.5t-35 -69.5l74 -75l-51 -51l-73 75q-30 -23 -66.5 -36t-77.5 -13q-40 0 -77 13
t-67 35zM299 98q38 0 69.5 20t50 53.5t18.5 73.5q0 41 -18.5 74.5t-50 53.5t-69.5 20t-70 -20t-50.5 -53.5t-18.5 -74.5q0 -40 18.5 -73.5t50 -53.5t70.5 -20z" />
    <glyph glyph-name="yen" unicode="&#xa5;" 
d="M236 0v159h-168v88h168v68h-168v88h126l-210 302h140l176 -263l177 263h139l-209 -302h125v-88h-168v-68h168v-88h-168v-159h-128z" />
    <glyph glyph-name="brokenbar" unicode="&#xa6;" horiz-adv-x="289" 
d="M82 372v333h125v-333h-125zM82 -180v334h125v-334h-125z" />
    <glyph glyph-name="section" unicode="&#xa7;" horiz-adv-x="569" 
d="M263 -190q-67 0 -123.5 16.5t-91.5 44.5l35 85q32 -25 82 -41t98 -16q50 0 80.5 22.5t30.5 64.5q0 29 -16 51t-59 41l-126 57q-76 35 -107 76.5t-31 96.5q0 40 17 75t49 62q-12 16 -18.5 37t-6.5 48q0 58 29 99t80.5 63.5t118.5 22.5q64 0 116.5 -15t85.5 -43l-35 -82
q-33 23 -79 37t-88 14q-48 0 -78 -23t-30 -64q0 -29 16 -50.5t59 -41.5l126 -57q76 -34 107 -75.5t31 -97.5q0 -40 -17 -75t-49 -62q12 -16 18.5 -37.5t6.5 -47.5q0 -57 -29 -98.5t-81 -64t-121 -22.5zM146 330q0 -31 20.5 -56.5t69.5 -48.5l109 -50q19 -9 34.5 -18.5
t26.5 -19.5q18 26 18 58t-20 57.5t-70 47.5l-109 50q-19 9 -34.5 18.5t-26.5 19.5q-18 -26 -18 -58z" />
    <glyph glyph-name="dieresis" unicode="&#xa8;" horiz-adv-x="500" 
d="M286 597v115h116v-115h-116zM98 597v115h116v-115h-116z" />
    <glyph glyph-name="copyright" unicode="&#xa9;" horiz-adv-x="815" 
d="M408 -10q-77 0 -143 27.5t-115.5 77t-77 115.5t-27.5 143t27.5 143t77 115t115.5 76.5t143 27.5t143 -27.5t115 -76.5t76.5 -115t27.5 -143t-27.5 -143t-76.5 -115.5t-115 -77t-143 -27.5zM408 43q88 0 157 41t109 111t40 158t-40 158t-109 110.5t-157 40.5t-157.5 -40.5
t-109.5 -110.5t-40 -158t40 -158t109.5 -111t157.5 -41zM426 137q-100 0 -158.5 59t-58.5 158q0 100 58.5 157t158.5 57q40 0 79.5 -12.5t64.5 -35.5l-31 -76q-46 40 -105 40q-55 0 -87 -34t-32 -96t32 -97.5t87 -35.5q28 0 55.5 10t49.5 30l31 -75q-25 -22 -65 -35.5
t-79 -13.5z" />
    <glyph glyph-name="ordfeminine" unicode="&#xaa;" horiz-adv-x="339" 
d="M135 408q-50 0 -81.5 27t-31.5 67q0 47 41.5 67t121.5 20h43v11q0 54 -66 54q-25 0 -53.5 -6.5t-52.5 -20.5l-20 57q25 15 61.5 23t70.5 8q140 0 140 -119v-182h-77v55h-2q-16 -31 -38 -46t-56 -15zM156 463q31 0 51.5 21t20.5 58v3h-40q-45 0 -65 -10t-20 -31
q0 -17 12.5 -29t40.5 -12z" />
    <glyph glyph-name="guillemotleft" unicode="&#xab;" horiz-adv-x="494" 
d="M163 74l-101 161v62l99 161l84 -38l-73 -154l73 -155zM370 74l-101 161v62l99 161l84 -38l-73 -154l73 -155z" />
    <glyph glyph-name="logicalnot" unicode="&#xac;" 
d="M452 140v204h-396v88h488v-292h-92z" />
    <glyph glyph-name="uni00AD" unicode="&#xad;" horiz-adv-x="434" 
d="M68 218v100h298v-100h-298z" />
    <glyph glyph-name="registered" unicode="&#xae;" horiz-adv-x="815" 
d="M408 -10q-77 0 -143 27.5t-115.5 77t-77 115.5t-27.5 143t27.5 143t77 115t115.5 76.5t143 27.5t143 -27.5t115 -76.5t76.5 -115t27.5 -143t-27.5 -143t-76.5 -115.5t-115 -77t-143 -27.5zM408 43q88 0 157 41t109 111t40 158t-40 158t-109 110.5t-157 40.5t-157.5 -40.5
t-109.5 -110.5t-40 -158t40 -158t109.5 -111t157.5 -41zM253 142v423h183q71 0 108.5 -34.5t37.5 -90.5q0 -45 -22.5 -73.5t-63.5 -39.5q18 -6 31 -22.5t22 -47.5l38 -115h-98l-39 125q-7 22 -22 29.5t-35 7.5h-44v-162h-96zM348 376h75q68 0 68 59q0 58 -68 58h-75v-117z
" />
    <glyph glyph-name="macron" unicode="&#xaf;" horiz-adv-x="500" 
d="M93 616v74h315v-74h-315z" />
    <glyph glyph-name="degree" unicode="&#xb0;" horiz-adv-x="379" 
d="M190 406q-45 0 -80.5 20.5t-56 55.5t-20.5 79t20.5 78.5t56 55t80.5 20.5t80 -20t55.5 -55t20.5 -79t-20.5 -79.5t-55.5 -55.5t-80 -20zM190 477q35 0 57 24t22 60q0 35 -22 59t-57 24t-57.5 -24t-22.5 -59q0 -36 22.5 -60t57.5 -24z" />
    <glyph glyph-name="plusminus" unicode="&#xb1;" 
d="M254 139v152h-198v88h198v152h92v-152h198v-88h-198v-152h-92zM56 0v88h488v-88h-488z" />
    <glyph glyph-name="uni00B2" unicode="&#xb2;" horiz-adv-x="380" 
d="M48 282v73l124 130q25 26 35.5 47t10.5 42q0 52 -58 52q-24 0 -50 -10.5t-46 -30.5l-34 72q26 24 68 38t85 14q66 0 104.5 -32.5t38.5 -88.5q0 -33 -15.5 -64.5t-50.5 -66.5l-88 -91h175v-84h-299z" />
    <glyph glyph-name="uni00B3" unicode="&#xb3;" horiz-adv-x="380" 
d="M185 277q-52 0 -92.5 14t-67.5 39l34 71q43 -41 114 -41q33 0 52 13t19 39q0 23 -17 32t-48 9h-83v84h71q31 0 48 10.5t17 33.5q0 20 -16.5 32.5t-48.5 12.5q-60 0 -103 -41l-34 72q26 24 67.5 38t87.5 14q67 0 106 -30t39 -81q0 -34 -18.5 -59.5t-47.5 -37.5
q36 -10 57 -36t21 -66q0 -57 -44.5 -89.5t-112.5 -32.5z" />
    <glyph glyph-name="acute" unicode="&#xb4;" horiz-adv-x="500" 
d="M208 554l103 203h123l-142 -203h-84z" />
    <glyph glyph-name="uni00B5" unicode="&#xb5;" 
d="M75 -180v669h125v-298q0 -101 87 -101q51 0 83 34t32 91v274h125v-489h-122v87q-15 -47 -47.5 -72t-72.5 -25q-32 0 -55.5 10.5t-38.5 35.5l9 -216h-125z" />
    <glyph glyph-name="paragraph" unicode="&#xb6;" horiz-adv-x="625" 
d="M249 -180v462q-64 0 -112 27t-74.5 74.5t-26.5 110.5t26.5 110.5t75 74t113.5 26.5h297v-885h-91v796h-117v-796h-91z" />
    <glyph glyph-name="periodcentered" unicode="&#xb7;" horiz-adv-x="248" 
d="M54 198v139h140v-139h-140z" />
    <glyph glyph-name="cedilla" unicode="&#xb8;" horiz-adv-x="500" 
d="M251 -195q-29 0 -56 5.5t-46 15.5l18 56q18 -8 35.5 -12.5t38.5 -4.5q54 0 54 30q0 23 -37 23q-10 0 -19 -1t-22 -5l-19 18l13 90h67l-10 -58q6 1 11 1q41 0 66 -19t25 -53q0 -39 -33 -62.5t-86 -23.5z" />
    <glyph glyph-name="uni00B9" unicode="&#xb9;" horiz-adv-x="380" 
d="M66 282v84h100v227l-78 -44l-41 74l146 82h73v-339h80v-84h-280z" />
    <glyph glyph-name="ordmasculine" unicode="&#xba;" horiz-adv-x="353" 
d="M177 409q-68 0 -113 42t-45 112t45 111t113 41t112.5 -41t44.5 -111t-44.5 -112t-112.5 -42zM177 472q34 0 54 23.5t20 67.5t-20 67t-54 23t-54.5 -22.5t-20.5 -67.5t20.5 -68t54.5 -23z" />
    <glyph glyph-name="guillemotright" unicode="&#xbb;" horiz-adv-x="494" 
d="M125 74l-83 37l74 155l-74 154l84 38l100 -161v-62zM332 74l-83 37l74 155l-74 154l84 38l100 -161v-62z" />
    <glyph glyph-name="onequarter" unicode="&#xbc;" horiz-adv-x="911" 
d="M66 282v84h100v227l-78 -44l-41 74l146 82h73v-339h80v-84h-280zM318 -28l-80 48l413 713l80 -48zM742 0v71h-188v69l195 283h93v-268h51v-84h-51v-71h-100zM742 155v132l-90 -132h90z" />
    <glyph glyph-name="onehalf" unicode="&#xbd;" horiz-adv-x="959" 
d="M66 282v84h100v227l-78 -44l-41 74l146 82h73v-339h80v-84h-280zM318 -28l-80 48l413 713l80 -48zM627 0v73l124 130q25 26 35.5 47t10.5 42q0 52 -58 52q-24 0 -50 -10.5t-46 -30.5l-34 72q26 24 68 38t85 14q66 0 104.5 -32.5t38.5 -88.5q0 -33 -15.5 -64.5
t-50.5 -66.5l-88 -91h175v-84h-299z" />
    <glyph glyph-name="threequarters" unicode="&#xbe;" horiz-adv-x="911" 
d="M185 277q-52 0 -92.5 14t-67.5 39l34 71q43 -41 114 -41q33 0 52 13t19 39q0 23 -17 32t-48 9h-83v84h71q31 0 48 10.5t17 33.5q0 20 -16.5 32.5t-48.5 12.5q-60 0 -103 -41l-34 72q26 24 67.5 38t87.5 14q67 0 106 -30t39 -81q0 -34 -18.5 -59.5t-47.5 -37.5
q36 -10 57 -36t21 -66q0 -57 -44.5 -89.5t-112.5 -32.5zM318 -28l-80 48l413 713l80 -48zM742 0v71h-188v69l195 283h93v-268h51v-84h-51v-71h-100zM742 155v132l-90 -132h90z" />
    <glyph glyph-name="questiondown" unicode="&#xbf;" horiz-adv-x="459" 
d="M169 350v139h139v-139h-139zM226 -190q-94 0 -152 43t-58 113q0 43 20 80.5t72 80.5q47 39 65 68.5t23 58.5l5 26h75v-36q0 -42 -16.5 -79.5t-59.5 -78.5q-33 -31 -45 -53.5t-12 -46.5q0 -31 24 -49.5t67 -18.5q98 0 181 65l43 -95q-42 -36 -104.5 -57t-127.5 -21z" />
    <glyph glyph-name="Agrave" unicode="&#xc0;" horiz-adv-x="744" 
d="M1 0l319 705h105l319 -705h-130l-70 163h-344l-69 -163h-130zM371 566l-127 -301h256l-127 301h-2zM329 765l-160 174h131l118 -174h-89z" />
    <glyph glyph-name="Aacute" unicode="&#xc1;" horiz-adv-x="744" 
d="M1 0l319 705h105l319 -705h-130l-70 163h-344l-69 -163h-130zM371 566l-127 -301h256l-127 301h-2zM329 765l118 174h130l-159 -174h-89z" />
    <glyph glyph-name="Acircumflex" unicode="&#xc2;" horiz-adv-x="744" 
d="M1 0l319 705h105l319 -705h-130l-70 163h-344l-69 -163h-130zM371 566l-127 -301h256l-127 301h-2zM195 765l124 174h108l124 -174h-88l-90 104l-90 -104h-88z" />
    <glyph glyph-name="Atilde" unicode="&#xc3;" horiz-adv-x="744" 
d="M1 0l319 705h105l319 -705h-130l-70 163h-344l-69 -163h-130zM371 566l-127 -301h256l-127 301h-2zM212 772l-62 4q6 71 42.5 109.5t91.5 38.5q25 0 49 -9t55 -27q32 -19 48 -24.5t29 -5.5q57 0 69 70l62 -4q-5 -71 -41.5 -109.5t-91.5 -38.5q-25 0 -51 10t-55 27
q-28 17 -45 23t-31 6q-55 0 -69 -70z" />
    <glyph glyph-name="Adieresis" unicode="&#xc4;" horiz-adv-x="744" 
d="M1 0l319 705h105l319 -705h-130l-70 163h-344l-69 -163h-130zM371 566l-127 -301h256l-127 301h-2zM409 790v115h116v-115h-116zM221 790v115h116v-115h-116z" />
    <glyph glyph-name="Aring" unicode="&#xc5;" horiz-adv-x="744" 
d="M1 0l319 705h105l319 -705h-130l-70 163h-344l-69 -163h-130zM371 566l-127 -301h256l-127 301h-2zM373 755q-35 0 -64 16.5t-45.5 44.5t-16.5 62q0 52 36.5 87t89.5 35t89.5 -35t36.5 -87q0 -34 -16.5 -62t-45 -44.5t-64.5 -16.5zM373 812q29 0 47 19t18 47t-18 46.5
t-47 18.5q-28 0 -46.5 -18.5t-18.5 -46.5t18.5 -47t46.5 -19z" />
    <glyph glyph-name="AE" unicode="&#xc6;" horiz-adv-x="992" 
d="M-36 0l438 705h539v-102h-401l42 -194h338v-102h-315l44 -205h292v-102h-385l-35 163h-324l-97 -163h-136zM433 562l-177 -297h243l-64 297h-2z" />
    <glyph glyph-name="Ccedilla" unicode="&#xc7;" horiz-adv-x="679" 
d="M405 -10q-110 0 -188.5 44.5t-120.5 126t-42 192.5t42 192t120.5 125.5t188.5 44.5q71 0 134.5 -22t104.5 -63l-42 -102q-45 38 -92 55.5t-101 17.5q-107 0 -163 -64.5t-56 -183.5t56 -184t163 -65q54 0 101 17.5t92 55.5l42 -102q-41 -40 -104.5 -62.5t-134.5 -22.5z
M392 -195q-29 0 -56 5.5t-46 15.5l18 56q18 -8 35.5 -12.5t38.5 -4.5q54 0 54 30q0 23 -37 23q-10 0 -19 -1t-22 -5l-19 18l13 90h67l-10 -58q6 1 11 1q41 0 66 -19t25 -53q0 -39 -33 -62.5t-86 -23.5z" />
    <glyph glyph-name="Egrave" unicode="&#xc8;" horiz-adv-x="597" 
d="M77 0v705h469v-102h-346v-194h324v-102h-324v-205h346v-102h-469zM284 765l-160 174h131l118 -174h-89z" />
    <glyph glyph-name="Eacute" unicode="&#xc9;" horiz-adv-x="597" 
d="M77 0v705h469v-102h-346v-194h324v-102h-324v-205h346v-102h-469zM284 765l118 174h130l-159 -174h-89z" />
    <glyph glyph-name="Ecircumflex" unicode="&#xca;" horiz-adv-x="597" 
d="M77 0v705h469v-102h-346v-194h324v-102h-324v-205h346v-102h-469zM150 765l124 174h108l124 -174h-88l-90 104l-90 -104h-88z" />
    <glyph glyph-name="Edieresis" unicode="&#xcb;" horiz-adv-x="597" 
d="M77 0v705h469v-102h-346v-194h324v-102h-324v-205h346v-102h-469zM364 790v115h116v-115h-116zM176 790v115h116v-115h-116z" />
    <glyph glyph-name="Igrave" unicode="&#xcc;" horiz-adv-x="281" 
d="M77 0v705h128v-705h-128zM97 765l-160 174h131l118 -174h-89z" />
    <glyph glyph-name="Iacute" unicode="&#xcd;" horiz-adv-x="281" 
d="M77 0v705h128v-705h-128zM97 765l118 174h130l-159 -174h-89z" />
    <glyph glyph-name="Icircumflex" unicode="&#xce;" horiz-adv-x="281" 
d="M77 0v705h128v-705h-128zM-37 765l124 174h108l124 -174h-88l-90 104l-90 -104h-88z" />
    <glyph glyph-name="Idieresis" unicode="&#xcf;" horiz-adv-x="281" 
d="M77 0v705h128v-705h-128zM177 790v115h116v-115h-116zM-11 790v115h116v-115h-116z" />
    <glyph glyph-name="Eth" unicode="&#xd0;" horiz-adv-x="762" 
d="M77 0v705h262q177 0 273.5 -91t96.5 -261q0 -169 -96.5 -261t-273.5 -92h-262zM205 106h126q244 0 244 247q0 246 -244 246h-126v-493zM-10 310v94h404v-94h-404z" />
    <glyph glyph-name="Ntilde" unicode="&#xd1;" horiz-adv-x="748" 
d="M77 0v705h96l379 -492v492h119v-705h-95l-380 494v-494h-119zM213 772l-62 4q6 71 42.5 109.5t91.5 38.5q25 0 49 -9t55 -27q32 -19 48 -24.5t29 -5.5q57 0 69 70l62 -4q-5 -71 -41.5 -109.5t-91.5 -38.5q-25 0 -51 10t-55 27q-28 17 -45 23t-31 6q-55 0 -69 -70z" />
    <glyph glyph-name="Ograve" unicode="&#xd2;" horiz-adv-x="785" 
d="M393 -10q-102 0 -178.5 45t-118.5 126.5t-42 191.5q0 111 42 192t118 125.5t179 44.5t179 -44.5t118 -125.5t42 -191q0 -111 -42 -192.5t-118 -126.5t-179 -45zM393 100q97 0 151 67t54 186q0 120 -53.5 186t-151.5 66q-97 0 -151 -66t-54 -186q0 -119 54 -186t151 -67z
M348 765l-160 174h131l118 -174h-89z" />
    <glyph glyph-name="Oacute" unicode="&#xd3;" horiz-adv-x="785" 
d="M393 -10q-102 0 -178.5 45t-118.5 126.5t-42 191.5q0 111 42 192t118 125.5t179 44.5t179 -44.5t118 -125.5t42 -191q0 -111 -42 -192.5t-118 -126.5t-179 -45zM393 100q97 0 151 67t54 186q0 120 -53.5 186t-151.5 66q-97 0 -151 -66t-54 -186q0 -119 54 -186t151 -67z
M348 765l118 174h130l-159 -174h-89z" />
    <glyph glyph-name="Ocircumflex" unicode="&#xd4;" horiz-adv-x="785" 
d="M393 -10q-102 0 -178.5 45t-118.5 126.5t-42 191.5q0 111 42 192t118 125.5t179 44.5t179 -44.5t118 -125.5t42 -191q0 -111 -42 -192.5t-118 -126.5t-179 -45zM393 100q97 0 151 67t54 186q0 120 -53.5 186t-151.5 66q-97 0 -151 -66t-54 -186q0 -119 54 -186t151 -67z
M214 765l124 174h108l124 -174h-88l-90 104l-90 -104h-88z" />
    <glyph glyph-name="Otilde" unicode="&#xd5;" horiz-adv-x="785" 
d="M393 -10q-102 0 -178.5 45t-118.5 126.5t-42 191.5q0 111 42 192t118 125.5t179 44.5t179 -44.5t118 -125.5t42 -191q0 -111 -42 -192.5t-118 -126.5t-179 -45zM393 100q97 0 151 67t54 186q0 120 -53.5 186t-151.5 66q-97 0 -151 -66t-54 -186q0 -119 54 -186t151 -67z
M231 772l-62 4q6 71 42.5 109.5t91.5 38.5q25 0 49 -9t55 -27q32 -19 48 -24.5t29 -5.5q57 0 69 70l62 -4q-5 -71 -41.5 -109.5t-91.5 -38.5q-25 0 -51 10t-55 27q-28 17 -45 23t-31 6q-55 0 -69 -70z" />
    <glyph glyph-name="Odieresis" unicode="&#xd6;" horiz-adv-x="785" 
d="M393 -10q-102 0 -178.5 45t-118.5 126.5t-42 191.5q0 111 42 192t118 125.5t179 44.5t179 -44.5t118 -125.5t42 -191q0 -111 -42 -192.5t-118 -126.5t-179 -45zM393 100q97 0 151 67t54 186q0 120 -53.5 186t-151.5 66q-97 0 -151 -66t-54 -186q0 -119 54 -186t151 -67z
M428 790v115h116v-115h-116zM240 790v115h116v-115h-116z" />
    <glyph glyph-name="multiply" unicode="&#xd7;" 
d="M128 52l-62 61l172 172l-172 172l62 63l172 -172l172 172l62 -63l-172 -172l172 -172l-62 -61l-172 172z" />
    <glyph glyph-name="Oslash" unicode="&#xd8;" horiz-adv-x="785" 
d="M393 -10q-102 0 -178.5 45t-118.5 126.5t-42 191.5q0 111 42 192t118 125.5t179 44.5t179 -44.5t118 -125.5t42 -191q0 -111 -42 -192.5t-118 -126.5t-179 -45zM393 100q97 0 151 67t54 186q0 120 -53.5 186t-151.5 66q-97 0 -151 -66t-54 -186q0 -119 54 -186t151 -67z
M209 -60l-84 49l64 109l36 60l263 451l26 48l63 108l84 -49l-64 -109l-36 -60l-263 -450l-26 -48z" />
    <glyph glyph-name="Ugrave" unicode="&#xd9;" horiz-adv-x="738" 
d="M370 -10q-145 0 -221.5 75.5t-76.5 223.5v416h128v-415q0 -95 43.5 -142.5t126.5 -47.5q169 0 169 190v415h127v-416q0 -148 -75 -223.5t-221 -75.5zM326 765l-160 174h131l118 -174h-89z" />
    <glyph glyph-name="Uacute" unicode="&#xda;" horiz-adv-x="738" 
d="M370 -10q-145 0 -221.5 75.5t-76.5 223.5v416h128v-415q0 -95 43.5 -142.5t126.5 -47.5q169 0 169 190v415h127v-416q0 -148 -75 -223.5t-221 -75.5zM326 765l118 174h130l-159 -174h-89z" />
    <glyph glyph-name="Ucircumflex" unicode="&#xdb;" horiz-adv-x="738" 
d="M370 -10q-145 0 -221.5 75.5t-76.5 223.5v416h128v-415q0 -95 43.5 -142.5t126.5 -47.5q169 0 169 190v415h127v-416q0 -148 -75 -223.5t-221 -75.5zM192 765l124 174h108l124 -174h-88l-90 104l-90 -104h-88z" />
    <glyph glyph-name="Udieresis" unicode="&#xdc;" horiz-adv-x="738" 
d="M370 -10q-145 0 -221.5 75.5t-76.5 223.5v416h128v-415q0 -95 43.5 -142.5t126.5 -47.5q169 0 169 190v415h127v-416q0 -148 -75 -223.5t-221 -75.5zM406 790v115h116v-115h-116zM218 790v115h116v-115h-116z" />
    <glyph glyph-name="Yacute" unicode="&#xdd;" horiz-adv-x="618" 
d="M245 0v324l-271 381h149l188 -267l189 267h143l-270 -382v-323h-128zM265 765l118 174h130l-159 -174h-89z" />
    <glyph glyph-name="Thorn" unicode="&#xde;" horiz-adv-x="654" 
d="M77 0v705h128v-118h180q116 0 179 -58t63 -162t-63 -162.5t-179 -58.5h-180v-146h-128zM205 247h160q138 0 138 120q0 119 -138 119h-160v-239z" />
    <glyph glyph-name="germandbls" unicode="&#xdf;" horiz-adv-x="653" 
d="M436 -10q-54 0 -106.5 16.5t-89.5 46.5l36 84q38 -27 81.5 -40.5t80.5 -13.5t58 15.5t21 43.5q0 23 -20.5 38.5t-74.5 31.5q-79 24 -111 57t-32 82q0 32 14.5 61.5t57.5 69.5q26 25 36.5 43.5t10.5 39.5q0 27 -19.5 43t-57.5 16q-64 0 -97.5 -38t-33.5 -108v-478h-125
v459q0 123 66.5 189.5t190.5 66.5q92 0 143 -37.5t51 -101.5q0 -35 -15 -65t-53 -65q-32 -30 -43 -46.5t-11 -33.5q0 -21 20.5 -36.5t77.5 -32.5q74 -22 106.5 -58t32.5 -90q0 -72 -53 -115.5t-142 -43.5z" />
    <glyph glyph-name="agrave" unicode="&#xe0;" horiz-adv-x="547" 
d="M226 -10q-53 0 -94.5 20.5t-65 55.5t-23.5 79q0 54 28 85.5t91 45.5t169 14h35v21q0 50 -22 72t-74 22q-41 0 -84 -12.5t-87 -38.5l-36 85q26 18 61.5 31.5t75 21t74.5 7.5q107 0 159 -49.5t52 -153.5v-296h-117v78q-17 -41 -54 -64.5t-88 -23.5zM252 76q49 0 81.5 34
t32.5 86v22h-34q-94 0 -130.5 -14.5t-36.5 -52.5q0 -33 23 -54t64 -21zM237 554l-141 203h123l102 -203h-84z" />
    <glyph glyph-name="aacute" unicode="&#xe1;" horiz-adv-x="547" 
d="M226 -10q-53 0 -94.5 20.5t-65 55.5t-23.5 79q0 54 28 85.5t91 45.5t169 14h35v21q0 50 -22 72t-74 22q-41 0 -84 -12.5t-87 -38.5l-36 85q26 18 61.5 31.5t75 21t74.5 7.5q107 0 159 -49.5t52 -153.5v-296h-117v78q-17 -41 -54 -64.5t-88 -23.5zM252 76q49 0 81.5 34
t32.5 86v22h-34q-94 0 -130.5 -14.5t-36.5 -52.5q0 -33 23 -54t64 -21zM237 554l103 203h123l-142 -203h-84z" />
    <glyph glyph-name="acircumflex" unicode="&#xe2;" horiz-adv-x="547" 
d="M226 -10q-53 0 -94.5 20.5t-65 55.5t-23.5 79q0 54 28 85.5t91 45.5t169 14h35v21q0 50 -22 72t-74 22q-41 0 -84 -12.5t-87 -38.5l-36 85q26 18 61.5 31.5t75 21t74.5 7.5q107 0 159 -49.5t52 -153.5v-296h-117v78q-17 -41 -54 -64.5t-88 -23.5zM252 76q49 0 81.5 34
t32.5 86v22h-34q-94 0 -130.5 -14.5t-36.5 -52.5q0 -33 23 -54t64 -21zM114 554l110 203h110l110 -203h-80l-85 132l-85 -132h-80z" />
    <glyph glyph-name="atilde" unicode="&#xe3;" horiz-adv-x="547" 
d="M226 -10q-53 0 -94.5 20.5t-65 55.5t-23.5 79q0 54 28 85.5t91 45.5t169 14h35v21q0 50 -22 72t-74 22q-41 0 -84 -12.5t-87 -38.5l-36 85q26 18 61.5 31.5t75 21t74.5 7.5q107 0 159 -49.5t52 -153.5v-296h-117v78q-17 -41 -54 -64.5t-88 -23.5zM252 76q49 0 81.5 34
t32.5 86v22h-34q-94 0 -130.5 -14.5t-36.5 -52.5q0 -33 23 -54t64 -21zM147 584l-62 4q5 69 37 108.5t83 39.5q23 0 41.5 -9.5t42.5 -27.5q22 -16 35 -22.5t26 -6.5q51 0 61 70l62 -4q-4 -69 -36 -108.5t-83 -39.5q-21 0 -39.5 8t-45.5 29q-37 29 -60 29q-50 0 -62 -70z" />
    <glyph glyph-name="adieresis" unicode="&#xe4;" horiz-adv-x="547" 
d="M226 -10q-53 0 -94.5 20.5t-65 55.5t-23.5 79q0 54 28 85.5t91 45.5t169 14h35v21q0 50 -22 72t-74 22q-41 0 -84 -12.5t-87 -38.5l-36 85q26 18 61.5 31.5t75 21t74.5 7.5q107 0 159 -49.5t52 -153.5v-296h-117v78q-17 -41 -54 -64.5t-88 -23.5zM252 76q49 0 81.5 34
t32.5 86v22h-34q-94 0 -130.5 -14.5t-36.5 -52.5q0 -33 23 -54t64 -21zM315 597v115h116v-115h-116zM127 597v115h116v-115h-116z" />
    <glyph glyph-name="aring" unicode="&#xe5;" horiz-adv-x="547" 
d="M226 -10q-53 0 -94.5 20.5t-65 55.5t-23.5 79q0 54 28 85.5t91 45.5t169 14h35v21q0 50 -22 72t-74 22q-41 0 -84 -12.5t-87 -38.5l-36 85q26 18 61.5 31.5t75 21t74.5 7.5q107 0 159 -49.5t52 -153.5v-296h-117v78q-17 -41 -54 -64.5t-88 -23.5zM252 76q49 0 81.5 34
t32.5 86v22h-34q-94 0 -130.5 -14.5t-36.5 -52.5q0 -33 23 -54t64 -21zM279 546q-35 0 -64 16.5t-45.5 44.5t-16.5 62q0 52 36.5 87t89.5 35t89.5 -35t36.5 -87q0 -34 -16.5 -62t-45 -44.5t-64.5 -16.5zM279 603q29 0 47 19t18 47t-18 46.5t-47 18.5q-28 0 -46.5 -18.5
t-18.5 -46.5t18.5 -47t46.5 -19z" />
    <glyph glyph-name="ae" unicode="&#xe6;" horiz-adv-x="865" 
d="M236 -10q-58 0 -101.5 20.5t-67.5 55.5t-24 79q0 54 28 85.5t91.5 45.5t171.5 14h32v21q0 50 -22.5 72t-72.5 22q-42 0 -85 -12t-87 -39l-36 85q26 18 61.5 31.5t75 21t75.5 7.5q123 0 167 -77q29 38 74.5 57.5t92.5 19.5q102 0 162 -66t60 -180v-35h-344
q13 -133 146 -133q85 0 155 53l35 -85q-35 -29 -87.5 -46t-104.5 -17q-74 0 -130 27t-85 82q-22 -52 -68.5 -80.5t-111.5 -28.5zM612 414q-52 0 -84.5 -32t-39.5 -92h239q-4 60 -33 92t-82 32zM253 76q50 0 81.5 34.5t31.5 89.5v18h-34q-94 0 -130.5 -14.5t-36.5 -52.5
q0 -33 23 -54t65 -21z" />
    <glyph glyph-name="ccedilla" unicode="&#xe7;" horiz-adv-x="472" 
d="M291 -10q-77 0 -134 31.5t-88 89.5t-31 136t31 134.5t88 87t134 30.5q47 0 93 -15t76 -42l-37 -87q-26 23 -58.5 35t-62.5 12q-65 0 -100.5 -40.5t-35.5 -115.5q0 -74 35.5 -116.5t100.5 -42.5q29 0 62 12t59 36l37 -88q-30 -26 -76.5 -41.5t-92.5 -15.5zM284 -195
q-29 0 -56 5.5t-46 15.5l18 56q18 -8 35.5 -12.5t38.5 -4.5q54 0 54 30q0 23 -37 23q-10 0 -19 -1t-22 -5l-19 18l13 90h67l-10 -58q6 1 11 1q41 0 66 -19t25 -53q0 -39 -33 -62.5t-86 -23.5z" />
    <glyph glyph-name="egrave" unicode="&#xe8;" horiz-adv-x="542" 
d="M306 -10q-83 0 -143 31t-92.5 88t-32.5 135q0 76 31.5 133t87 89.5t126.5 32.5q104 0 164.5 -66t60.5 -180v-37h-350q14 -131 150 -131q41 0 82 12.5t75 39.5l35 -84q-35 -29 -88 -46t-106 -17zM288 414q-55 0 -89 -34t-41 -92h246q-4 61 -33.5 93.5t-82.5 32.5zM242 554
l-141 203h123l102 -203h-84z" />
    <glyph glyph-name="eacute" unicode="&#xe9;" horiz-adv-x="542" 
d="M306 -10q-83 0 -143 31t-92.5 88t-32.5 135q0 76 31.5 133t87 89.5t126.5 32.5q104 0 164.5 -66t60.5 -180v-37h-350q14 -131 150 -131q41 0 82 12.5t75 39.5l35 -84q-35 -29 -88 -46t-106 -17zM288 414q-55 0 -89 -34t-41 -92h246q-4 61 -33.5 93.5t-82.5 32.5zM242 554
l103 203h123l-142 -203h-84z" />
    <glyph glyph-name="ecircumflex" unicode="&#xea;" horiz-adv-x="542" 
d="M306 -10q-83 0 -143 31t-92.5 88t-32.5 135q0 76 31.5 133t87 89.5t126.5 32.5q104 0 164.5 -66t60.5 -180v-37h-350q14 -131 150 -131q41 0 82 12.5t75 39.5l35 -84q-35 -29 -88 -46t-106 -17zM288 414q-55 0 -89 -34t-41 -92h246q-4 61 -33.5 93.5t-82.5 32.5zM119 554
l110 203h110l110 -203h-80l-85 132l-85 -132h-80z" />
    <glyph glyph-name="edieresis" unicode="&#xeb;" horiz-adv-x="542" 
d="M306 -10q-83 0 -143 31t-92.5 88t-32.5 135q0 76 31.5 133t87 89.5t126.5 32.5q104 0 164.5 -66t60.5 -180v-37h-350q14 -131 150 -131q41 0 82 12.5t75 39.5l35 -84q-35 -29 -88 -46t-106 -17zM288 414q-55 0 -89 -34t-41 -92h246q-4 61 -33.5 93.5t-82.5 32.5zM320 597
v115h116v-115h-116zM132 597v115h116v-115h-116z" />
    <glyph glyph-name="igrave" unicode="&#xec;" horiz-adv-x="255" 
d="M65 0v489h125v-489h-125zM85 554l-141 203h123l102 -203h-84z" />
    <glyph glyph-name="iacute" unicode="&#xed;" horiz-adv-x="255" 
d="M65 0v489h125v-489h-125zM85 554l103 203h123l-142 -203h-84z" />
    <glyph glyph-name="icircumflex" unicode="&#xee;" horiz-adv-x="255" 
d="M65 0v489h125v-489h-125zM-38 554l110 203h110l110 -203h-80l-85 132l-85 -132h-80z" />
    <glyph glyph-name="idieresis" unicode="&#xef;" horiz-adv-x="255" 
d="M65 0v489h125v-489h-125zM163 597v115h116v-115h-116zM-25 597v115h116v-115h-116z" />
    <glyph glyph-name="eth" unicode="&#xf0;" horiz-adv-x="580" 
d="M283 -10q-73 0 -128 29.5t-86 81.5t-31 121q0 68 30 119t82.5 80t121.5 29q44 0 81 -13t63 -44q-14 54 -44 95t-67 68l-167 -76l-33 72l116 53q-17 7 -40.5 15t-49.5 14l23 81q53 -11 96.5 -27.5t76.5 -34.5l137 62l33 -72l-95 -43q67 -58 104 -138t37 -174
q0 -141 -67.5 -219.5t-192.5 -78.5zM287 86q59 0 91.5 37t32.5 99t-32.5 98t-91.5 36q-57 0 -90 -36t-33 -98q0 -64 32.5 -100t90.5 -36z" />
    <glyph glyph-name="ntilde" unicode="&#xf1;" horiz-adv-x="585" 
d="M65 0v489h122v-76q25 42 67.5 64t95.5 22q173 0 173 -201v-298h-125v292q0 57 -21.5 83t-66.5 26q-55 0 -87.5 -34.5t-32.5 -91.5v-275h-125zM162 584l-62 4q5 69 37 108.5t83 39.5q23 0 41.5 -9.5t42.5 -27.5q22 -16 35 -22.5t26 -6.5q51 0 61 70l62 -4
q-4 -69 -36 -108.5t-83 -39.5q-21 0 -39.5 8t-45.5 29q-37 29 -60 29q-50 0 -62 -70z" />
    <glyph glyph-name="ograve" unicode="&#xf2;" horiz-adv-x="576" 
d="M288 -10q-76 0 -132 31t-87 88.5t-31 135.5t31 135t87 88t132 31t132 -31t87 -88t31 -135t-31 -135.5t-87 -88.5t-132 -31zM288 85q56 0 90 40.5t34 119.5q0 80 -34 119.5t-90 39.5t-90 -39.5t-34 -119.5q0 -79 34 -119.5t90 -40.5zM246 554l-141 203h123l102 -203h-84z
" />
    <glyph glyph-name="oacute" unicode="&#xf3;" horiz-adv-x="576" 
d="M288 -10q-76 0 -132 31t-87 88.5t-31 135.5t31 135t87 88t132 31t132 -31t87 -88t31 -135t-31 -135.5t-87 -88.5t-132 -31zM288 85q56 0 90 40.5t34 119.5q0 80 -34 119.5t-90 39.5t-90 -39.5t-34 -119.5q0 -79 34 -119.5t90 -40.5zM246 554l103 203h123l-142 -203h-84z
" />
    <glyph glyph-name="ocircumflex" unicode="&#xf4;" horiz-adv-x="576" 
d="M288 -10q-76 0 -132 31t-87 88.5t-31 135.5t31 135t87 88t132 31t132 -31t87 -88t31 -135t-31 -135.5t-87 -88.5t-132 -31zM288 85q56 0 90 40.5t34 119.5q0 80 -34 119.5t-90 39.5t-90 -39.5t-34 -119.5q0 -79 34 -119.5t90 -40.5zM123 554l110 203h110l110 -203h-80
l-85 132l-85 -132h-80z" />
    <glyph glyph-name="otilde" unicode="&#xf5;" horiz-adv-x="576" 
d="M288 -10q-76 0 -132 31t-87 88.5t-31 135.5t31 135t87 88t132 31t132 -31t87 -88t31 -135t-31 -135.5t-87 -88.5t-132 -31zM288 85q56 0 90 40.5t34 119.5q0 80 -34 119.5t-90 39.5t-90 -39.5t-34 -119.5q0 -79 34 -119.5t90 -40.5zM156 584l-62 4q5 69 37 108.5t83 39.5
q23 0 41.5 -9.5t42.5 -27.5q22 -16 35 -22.5t26 -6.5q51 0 61 70l62 -4q-4 -69 -36 -108.5t-83 -39.5q-21 0 -39.5 8t-45.5 29q-37 29 -60 29q-50 0 -62 -70z" />
    <glyph glyph-name="odieresis" unicode="&#xf6;" horiz-adv-x="576" 
d="M288 -10q-76 0 -132 31t-87 88.5t-31 135.5t31 135t87 88t132 31t132 -31t87 -88t31 -135t-31 -135.5t-87 -88.5t-132 -31zM288 85q56 0 90 40.5t34 119.5q0 80 -34 119.5t-90 39.5t-90 -39.5t-34 -119.5q0 -79 34 -119.5t90 -40.5zM324 597v115h116v-115h-116zM136 597
v115h116v-115h-116z" />
    <glyph glyph-name="divide" unicode="&#xf7;" 
d="M242 432v104h104v-104h-104zM56 243v88h488v-88h-488zM242 38v104h104v-104h-104z" />
    <glyph glyph-name="oslash" unicode="&#xf8;" horiz-adv-x="576" 
d="M156 -59l-69 40l36 62q-40 33 -62.5 84.5t-22.5 117.5q0 78 31 135t87 88t132 31q51 0 94 -15l38 65l69 -40l-37 -63q41 -33 63.5 -84t22.5 -117q0 -78 -31 -135.5t-87 -88.5t-132 -31q-51 0 -95 15zM164 245q0 -59 20 -98l147 250q-20 7 -43 7q-56 0 -90 -39.5
t-34 -119.5zM288 85q56 0 90 40.5t34 119.5q0 59 -20 98l-147 -251q19 -7 43 -7z" />
    <glyph glyph-name="ugrave" unicode="&#xf9;" horiz-adv-x="579" 
d="M242 -10q-180 0 -180 202v297h125v-299q0 -52 21 -77t67 -25q50 0 82 34.5t32 91.5v275h125v-489h-122v73q-49 -83 -150 -83zM247 555l-141 203h123l102 -203h-84z" />
    <glyph glyph-name="uacute" unicode="&#xfa;" horiz-adv-x="579" 
d="M242 -10q-180 0 -180 202v297h125v-299q0 -52 21 -77t67 -25q50 0 82 34.5t32 91.5v275h125v-489h-122v73q-49 -83 -150 -83zM247 555l103 203h123l-142 -203h-84z" />
    <glyph glyph-name="ucircumflex" unicode="&#xfb;" horiz-adv-x="579" 
d="M242 -10q-180 0 -180 202v297h125v-299q0 -52 21 -77t67 -25q50 0 82 34.5t32 91.5v275h125v-489h-122v73q-49 -83 -150 -83zM124 555l110 203h110l110 -203h-80l-85 132l-85 -132h-80z" />
    <glyph glyph-name="udieresis" unicode="&#xfc;" horiz-adv-x="579" 
d="M242 -10q-180 0 -180 202v297h125v-299q0 -52 21 -77t67 -25q50 0 82 34.5t32 91.5v275h125v-489h-122v73q-49 -83 -150 -83zM325 598v115h116v-115h-116zM137 598v115h116v-115h-116z" />
    <glyph glyph-name="yacute" unicode="&#xfd;" horiz-adv-x="526" 
d="M109 -180l90 200l-203 469h133l137 -342l140 342h126l-294 -669h-129zM222 554l103 203h123l-142 -203h-84z" />
    <glyph glyph-name="thorn" unicode="&#xfe;" 
d="M65 -180v885h125v-288q22 38 63.5 60t93.5 22q64 0 112.5 -31t75.5 -87.5t27 -135.5q0 -78 -27 -135.5t-75 -88.5t-113 -31q-52 0 -93.5 22.5t-63.5 60.5v-253h-125zM312 85q56 0 90 40.5t34 119.5q0 80 -34 119.5t-90 39.5t-90 -39.5t-34 -119.5q0 -79 34 -119.5
t90 -40.5z" />
    <glyph glyph-name="ydieresis" unicode="&#xff;" horiz-adv-x="526" 
d="M109 -180l90 200l-203 469h133l137 -342l140 342h126l-294 -669h-129zM300 597v115h116v-115h-116zM112 597v115h116v-115h-116z" />
    <glyph glyph-name="Amacron" unicode="&#x100;" horiz-adv-x="744" 
d="M1 0l319 705h105l319 -705h-130l-70 163h-344l-69 -163h-130zM371 566l-127 -301h256l-127 301h-2zM201 806v74h345v-74h-345z" />
    <glyph glyph-name="amacron" unicode="&#x101;" horiz-adv-x="547" 
d="M226 -10q-53 0 -94.5 20.5t-65 55.5t-23.5 79q0 54 28 85.5t91 45.5t169 14h35v21q0 50 -22 72t-74 22q-41 0 -84 -12.5t-87 -38.5l-36 85q26 18 61.5 31.5t75 21t74.5 7.5q107 0 159 -49.5t52 -153.5v-296h-117v78q-17 -41 -54 -64.5t-88 -23.5zM252 76q49 0 81.5 34
t32.5 86v22h-34q-94 0 -130.5 -14.5t-36.5 -52.5q0 -33 23 -54t64 -21zM122 616v74h315v-74h-315z" />
    <glyph glyph-name="Abreve" unicode="&#x102;" horiz-adv-x="744" 
d="M1 0l319 705h105l319 -705h-130l-70 163h-344l-69 -163h-130zM371 566l-127 -301h256l-127 301h-2zM373 760q-77 0 -127 46t-55 124l71 9q5 -49 33.5 -76.5t77.5 -27.5q48 0 78 27.5t34 76.5l71 -9q-6 -78 -55.5 -124t-127.5 -46z" />
    <glyph glyph-name="abreve" unicode="&#x103;" horiz-adv-x="547" 
d="M226 -10q-53 0 -94.5 20.5t-65 55.5t-23.5 79q0 54 28 85.5t91 45.5t169 14h35v21q0 50 -22 72t-74 22q-41 0 -84 -12.5t-87 -38.5l-36 85q26 18 61.5 31.5t75 21t74.5 7.5q107 0 159 -49.5t52 -153.5v-296h-117v78q-17 -41 -54 -64.5t-88 -23.5zM252 76q49 0 81.5 34
t32.5 86v22h-34q-94 0 -130.5 -14.5t-36.5 -52.5q0 -33 23 -54t64 -21zM279 551q-73 0 -118 52t-48 141l71 7q4 -60 28.5 -92t66.5 -32t66.5 32t28.5 92l71 -7q-2 -89 -47 -141t-119 -52z" />
    <glyph glyph-name="Aogonek" unicode="&#x104;" horiz-adv-x="744" 
d="M1 0l319 705h105l319 -705h-130l-70 163h-344l-69 -163h-130zM371 566l-127 -301h256l-127 301h-2zM683 -195q-55 0 -86.5 28t-31.5 76q0 42 28 78t74 55l37 -42q-25 -10 -42.5 -30.5t-17.5 -46.5q0 -25 16 -38t40 -13q14 0 27 3t27 8l15 -61q-37 -17 -86 -17z" />
    <glyph glyph-name="aogonek" unicode="&#x105;" horiz-adv-x="547" 
d="M226 -10q-53 0 -94.5 20.5t-65 55.5t-23.5 79q0 54 28 85.5t91 45.5t169 14h35v21q0 50 -22 72t-74 22q-41 0 -84 -12.5t-87 -38.5l-36 85q26 18 61.5 31.5t75 21t74.5 7.5q107 0 159 -49.5t52 -153.5v-296h-117v78q-17 -41 -54 -64.5t-88 -23.5zM252 76q49 0 81.5 34
t32.5 86v22h-34q-94 0 -130.5 -14.5t-36.5 -52.5q0 -33 23 -54t64 -21zM429 -195q-55 0 -86.5 28t-31.5 76q0 42 28 78t74 55l37 -42q-25 -10 -42.5 -30.5t-17.5 -46.5q0 -25 16 -38t40 -13q14 0 27 3t27 8l15 -61q-37 -17 -86 -17z" />
    <glyph glyph-name="Cacute" unicode="&#x106;" horiz-adv-x="679" 
d="M405 -10q-110 0 -188.5 44.5t-120.5 126t-42 192.5t42 192t120.5 125.5t188.5 44.5q71 0 134.5 -22t104.5 -63l-42 -102q-45 38 -92 55.5t-101 17.5q-107 0 -163 -64.5t-56 -183.5t56 -184t163 -65q54 0 101 17.5t92 55.5l42 -102q-41 -40 -104.5 -62.5t-134.5 -22.5z
M348 765l118 174h130l-159 -174h-89z" />
    <glyph glyph-name="cacute" unicode="&#x107;" horiz-adv-x="472" 
d="M291 -10q-77 0 -134 31.5t-88 89.5t-31 136t31 134.5t88 87t134 30.5q47 0 93 -15t76 -42l-37 -87q-26 23 -58.5 35t-62.5 12q-65 0 -100.5 -40.5t-35.5 -115.5q0 -74 35.5 -116.5t100.5 -42.5q29 0 62 12t59 36l37 -88q-30 -26 -76.5 -41.5t-92.5 -15.5zM241 554
l103 203h123l-142 -203h-84z" />
    <glyph glyph-name="Ccircumflex" unicode="&#x108;" horiz-adv-x="679" 
d="M405 -10q-110 0 -188.5 44.5t-120.5 126t-42 192.5t42 192t120.5 125.5t188.5 44.5q71 0 134.5 -22t104.5 -63l-42 -102q-45 38 -92 55.5t-101 17.5q-107 0 -163 -64.5t-56 -183.5t56 -184t163 -65q54 0 101 17.5t92 55.5l42 -102q-41 -40 -104.5 -62.5t-134.5 -22.5z
M214 765l124 174h108l124 -174h-88l-90 104l-90 -104h-88z" />
    <glyph glyph-name="ccircumflex" unicode="&#x109;" horiz-adv-x="472" 
d="M291 -10q-77 0 -134 31.5t-88 89.5t-31 136t31 134.5t88 87t134 30.5q47 0 93 -15t76 -42l-37 -87q-26 23 -58.5 35t-62.5 12q-65 0 -100.5 -40.5t-35.5 -115.5q0 -74 35.5 -116.5t100.5 -42.5q29 0 62 12t59 36l37 -88q-30 -26 -76.5 -41.5t-92.5 -15.5zM118 554
l110 203h110l110 -203h-80l-85 132l-85 -132h-80z" />
    <glyph glyph-name="Cdotaccent" unicode="&#x10a;" horiz-adv-x="679" 
d="M405 -10q-110 0 -188.5 44.5t-120.5 126t-42 192.5t42 192t120.5 125.5t188.5 44.5q71 0 134.5 -22t104.5 -63l-42 -102q-45 38 -92 55.5t-101 17.5q-107 0 -163 -64.5t-56 -183.5t56 -184t163 -65q54 0 101 17.5t92 55.5l42 -102q-41 -40 -104.5 -62.5t-134.5 -22.5z
M331 794v116h122v-116h-122z" />
    <glyph glyph-name="cdotaccent" unicode="&#x10b;" horiz-adv-x="472" 
d="M291 -10q-77 0 -134 31.5t-88 89.5t-31 136t31 134.5t88 87t134 30.5q47 0 93 -15t76 -42l-37 -87q-26 23 -58.5 35t-62.5 12q-65 0 -100.5 -40.5t-35.5 -115.5q0 -74 35.5 -116.5t100.5 -42.5q29 0 62 12t59 36l37 -88q-30 -26 -76.5 -41.5t-92.5 -15.5zM222 597v116
h122v-116h-122z" />
    <glyph glyph-name="Ccaron" unicode="&#x10c;" horiz-adv-x="679" 
d="M405 -10q-110 0 -188.5 44.5t-120.5 126t-42 192.5t42 192t120.5 125.5t188.5 44.5q71 0 134.5 -22t104.5 -63l-42 -102q-45 38 -92 55.5t-101 17.5q-107 0 -163 -64.5t-56 -183.5t56 -184t163 -65q54 0 101 17.5t92 55.5l42 -102q-41 -40 -104.5 -62.5t-134.5 -22.5z
M338 765l-124 174h88l90 -104l90 104h88l-124 -174h-108z" />
    <glyph glyph-name="ccaron" unicode="&#x10d;" horiz-adv-x="472" 
d="M291 -10q-77 0 -134 31.5t-88 89.5t-31 136t31 134.5t88 87t134 30.5q47 0 93 -15t76 -42l-37 -87q-26 23 -58.5 35t-62.5 12q-65 0 -100.5 -40.5t-35.5 -115.5q0 -74 35.5 -116.5t100.5 -42.5q29 0 62 12t59 36l37 -88q-30 -26 -76.5 -41.5t-92.5 -15.5zM228 554
l-110 203h80l85 -132l85 132h80l-110 -203h-110z" />
    <glyph glyph-name="Dcaron" unicode="&#x10e;" horiz-adv-x="762" 
d="M77 0v705h262q177 0 273.5 -91t96.5 -261q0 -169 -96.5 -261t-273.5 -92h-262zM205 106h126q244 0 244 247q0 246 -244 246h-126v-493zM325 765l-124 174h88l90 -104l90 104h88l-124 -174h-108z" />
    <glyph glyph-name="dcaron" unicode="&#x10f;" 
d="M253 -10q-64 0 -112.5 31t-75.5 88.5t-27 135.5q0 79 27 135.5t75.5 87.5t112.5 31q52 0 94 -23t63 -61v290h125v-705h-122v81q-20 -42 -63 -66.5t-97 -24.5zM288 85q56 0 90 40.5t34 119.5q0 80 -34 119.5t-90 39.5t-90 -39.5t-34 -119.5q0 -79 34 -119.5t90 -40.5z
M575 513v192h84l-26 -192h-58z" />
    <glyph glyph-name="Dcroat" unicode="&#x110;" horiz-adv-x="762" 
d="M77 0v705h262q177 0 273.5 -91t96.5 -261q0 -169 -96.5 -261t-273.5 -92h-262zM205 106h126q244 0 244 247q0 246 -244 246h-126v-493zM-10 310v94h404v-94h-404z" />
    <glyph glyph-name="dcroat" unicode="&#x111;" 
d="M254 -10q-64 0 -112.5 31t-75.5 88.5t-27 135.5q0 79 27 135.5t75.5 87.5t112.5 31q52 0 94 -23t63 -61v129h-189v88h189v73h125v-73h87v-88h-87v-544h-124v77q-21 -40 -63 -63.5t-95 -23.5zM289 85q56 0 90 40.5t34 119.5q0 80 -34 119.5t-90 39.5t-90 -39.5t-34 -119.5
q0 -79 34 -119.5t90 -40.5z" />
    <glyph glyph-name="Emacron" unicode="&#x112;" horiz-adv-x="597" 
d="M77 0v705h469v-102h-346v-194h324v-102h-324v-205h346v-102h-469zM156 806v74h345v-74h-345z" />
    <glyph glyph-name="emacron" unicode="&#x113;" horiz-adv-x="542" 
d="M306 -10q-83 0 -143 31t-92.5 88t-32.5 135q0 76 31.5 133t87 89.5t126.5 32.5q104 0 164.5 -66t60.5 -180v-37h-350q14 -131 150 -131q41 0 82 12.5t75 39.5l35 -84q-35 -29 -88 -46t-106 -17zM288 414q-55 0 -89 -34t-41 -92h246q-4 61 -33.5 93.5t-82.5 32.5zM127 616
v74h315v-74h-315z" />
    <glyph glyph-name="Ebreve" unicode="&#x114;" horiz-adv-x="597" 
d="M77 0v705h469v-102h-346v-194h324v-102h-324v-205h346v-102h-469zM328 760q-77 0 -127 46t-55 124l71 9q5 -49 33.5 -76.5t77.5 -27.5q48 0 78 27.5t34 76.5l71 -9q-6 -78 -55.5 -124t-127.5 -46z" />
    <glyph glyph-name="ebreve" unicode="&#x115;" horiz-adv-x="542" 
d="M306 -10q-83 0 -143 31t-92.5 88t-32.5 135q0 76 31.5 133t87 89.5t126.5 32.5q104 0 164.5 -66t60.5 -180v-37h-350q14 -131 150 -131q41 0 82 12.5t75 39.5l35 -84q-35 -29 -88 -46t-106 -17zM288 414q-55 0 -89 -34t-41 -92h246q-4 61 -33.5 93.5t-82.5 32.5zM284 551
q-73 0 -118 52t-48 141l71 7q4 -60 28.5 -92t66.5 -32t66.5 32t28.5 92l71 -7q-2 -89 -47 -141t-119 -52z" />
    <glyph glyph-name="Edotaccent" unicode="&#x116;" horiz-adv-x="597" 
d="M77 0v705h469v-102h-346v-194h324v-102h-324v-205h346v-102h-469zM267 794v116h122v-116h-122z" />
    <glyph glyph-name="edotaccent" unicode="&#x117;" horiz-adv-x="542" 
d="M306 -10q-83 0 -143 31t-92.5 88t-32.5 135q0 76 31.5 133t87 89.5t126.5 32.5q104 0 164.5 -66t60.5 -180v-37h-350q14 -131 150 -131q41 0 82 12.5t75 39.5l35 -84q-35 -29 -88 -46t-106 -17zM288 414q-55 0 -89 -34t-41 -92h246q-4 61 -33.5 93.5t-82.5 32.5zM223 597
v116h122v-116h-122z" />
    <glyph glyph-name="Eogonek" unicode="&#x118;" horiz-adv-x="597" 
d="M77 0v705h469v-102h-346v-194h324v-102h-324v-205h346v-102h-469zM477 -195q-55 0 -86.5 28t-31.5 76q0 42 28 78t74 55l37 -42q-25 -10 -42.5 -30.5t-17.5 -46.5q0 -25 16 -38t40 -13q14 0 27 3t27 8l15 -61q-37 -17 -86 -17z" />
    <glyph glyph-name="eogonek" unicode="&#x119;" horiz-adv-x="542" 
d="M306 -10q-83 0 -143 31t-92.5 88t-32.5 135q0 76 31.5 133t87 89.5t126.5 32.5q104 0 164.5 -66t60.5 -180v-37h-350q14 -131 150 -131q41 0 82 12.5t75 39.5l35 -84q-35 -29 -88 -46t-106 -17zM288 414q-55 0 -89 -34t-41 -92h246q-4 61 -33.5 93.5t-82.5 32.5z
M350 -195q-55 0 -86.5 28t-31.5 76q0 42 28 78t74 55l37 -42q-25 -10 -42.5 -30.5t-17.5 -46.5q0 -25 16 -38t40 -13q14 0 27 3t27 8l15 -61q-37 -17 -86 -17z" />
    <glyph glyph-name="Ecaron" unicode="&#x11a;" horiz-adv-x="597" 
d="M77 0v705h469v-102h-346v-194h324v-102h-324v-205h346v-102h-469zM274 765l-124 174h88l90 -104l90 104h88l-124 -174h-108z" />
    <glyph glyph-name="ecaron" unicode="&#x11b;" horiz-adv-x="542" 
d="M306 -10q-83 0 -143 31t-92.5 88t-32.5 135q0 76 31.5 133t87 89.5t126.5 32.5q104 0 164.5 -66t60.5 -180v-37h-350q14 -131 150 -131q41 0 82 12.5t75 39.5l35 -84q-35 -29 -88 -46t-106 -17zM288 414q-55 0 -89 -34t-41 -92h246q-4 61 -33.5 93.5t-82.5 32.5zM229 554
l-110 203h80l85 -132l85 132h80l-110 -203h-110z" />
    <glyph glyph-name="Gcircumflex" unicode="&#x11c;" horiz-adv-x="736" 
d="M416 -10q-117 0 -197.5 44t-122.5 125t-42 192q0 112 43 193.5t124 126t194 44.5q74 0 139 -21.5t108 -59.5l-43 -100q-47 37 -96 53t-108 16q-112 0 -169.5 -65t-57.5 -187q0 -123 59 -187t175 -64q33 0 67.5 5.5t68.5 16.5v164h-162v95h269v-339q-49 -24 -116 -38
t-133 -14zM223 765l124 174h108l124 -174h-88l-90 104l-90 -104h-88z" />
    <glyph glyph-name="gcircumflex" unicode="&#x11d;" horiz-adv-x="604" 
d="M293 -190q-68 0 -127.5 15.5t-104.5 47.5l36 87q42 -28 90 -41.5t96 -13.5q134 0 134 129v67q-21 -41 -64.5 -65t-96.5 -24q-66 0 -115 30.5t-76 85.5t-27 128t27 127.5t76 85t115 30.5q55 0 98 -24.5t63 -65.5v80h122v-440q0 -119 -63 -179t-183 -60zM290 107
q58 0 92 40t34 109t-34 108.5t-92 39.5t-92 -39.5t-34 -108.5t34 -109t92 -40zM137 554l110 203h110l110 -203h-80l-85 132l-85 -132h-80z" />
    <glyph glyph-name="Gbreve" unicode="&#x11e;" horiz-adv-x="736" 
d="M416 -10q-117 0 -197.5 44t-122.5 125t-42 192q0 112 43 193.5t124 126t194 44.5q74 0 139 -21.5t108 -59.5l-43 -100q-47 37 -96 53t-108 16q-112 0 -169.5 -65t-57.5 -187q0 -123 59 -187t175 -64q33 0 67.5 5.5t68.5 16.5v164h-162v95h269v-339q-49 -24 -116 -38
t-133 -14zM401 760q-77 0 -127 46t-55 124l71 9q5 -49 33.5 -76.5t77.5 -27.5q48 0 78 27.5t34 76.5l71 -9q-6 -78 -55.5 -124t-127.5 -46z" />
    <glyph glyph-name="gbreve" unicode="&#x11f;" horiz-adv-x="604" 
d="M293 -190q-68 0 -127.5 15.5t-104.5 47.5l36 87q42 -28 90 -41.5t96 -13.5q134 0 134 129v67q-21 -41 -64.5 -65t-96.5 -24q-66 0 -115 30.5t-76 85.5t-27 128t27 127.5t76 85t115 30.5q55 0 98 -24.5t63 -65.5v80h122v-440q0 -119 -63 -179t-183 -60zM290 107
q58 0 92 40t34 109t-34 108.5t-92 39.5t-92 -39.5t-34 -108.5t34 -109t92 -40zM302 551q-73 0 -118 52t-48 141l71 7q4 -60 28.5 -92t66.5 -32t66.5 32t28.5 92l71 -7q-2 -89 -47 -141t-119 -52z" />
    <glyph glyph-name="Gdotaccent" unicode="&#x120;" horiz-adv-x="736" 
d="M416 -10q-117 0 -197.5 44t-122.5 125t-42 192q0 112 43 193.5t124 126t194 44.5q74 0 139 -21.5t108 -59.5l-43 -100q-47 37 -96 53t-108 16q-112 0 -169.5 -65t-57.5 -187q0 -123 59 -187t175 -64q33 0 67.5 5.5t68.5 16.5v164h-162v95h269v-339q-49 -24 -116 -38
t-133 -14zM340 794v116h122v-116h-122z" />
    <glyph glyph-name="gdotaccent" unicode="&#x121;" horiz-adv-x="604" 
d="M293 -190q-68 0 -127.5 15.5t-104.5 47.5l36 87q42 -28 90 -41.5t96 -13.5q134 0 134 129v67q-21 -41 -64.5 -65t-96.5 -24q-66 0 -115 30.5t-76 85.5t-27 128t27 127.5t76 85t115 30.5q55 0 98 -24.5t63 -65.5v80h122v-440q0 -119 -63 -179t-183 -60zM290 107
q58 0 92 40t34 109t-34 108.5t-92 39.5t-92 -39.5t-34 -108.5t34 -109t92 -40zM241 597v116h122v-116h-122z" />
    <glyph glyph-name="uni0122" unicode="&#x122;" horiz-adv-x="736" 
d="M416 -10q-117 0 -197.5 44t-122.5 125t-42 192q0 112 43 193.5t124 126t194 44.5q74 0 139 -21.5t108 -59.5l-43 -100q-47 37 -96 53t-108 16q-112 0 -169.5 -65t-57.5 -187q0 -123 59 -187t175 -64q33 0 67.5 5.5t68.5 16.5v164h-162v95h269v-339q-49 -24 -116 -38
t-133 -14zM416 -278l-47 32q18 18 26.5 35t10.5 36h-63v102h130v-67q0 -41 -13 -75.5t-44 -62.5z" />
    <glyph glyph-name="uni0123" unicode="&#x123;" horiz-adv-x="604" 
d="M293 -190q-68 0 -127.5 15.5t-104.5 47.5l36 87q42 -28 90 -41.5t96 -13.5q134 0 134 129v67q-21 -41 -64.5 -65t-96.5 -24q-66 0 -115 30.5t-76 85.5t-27 128t27 127.5t76 85t115 30.5q55 0 98 -24.5t63 -65.5v80h122v-440q0 -119 -63 -179t-183 -60zM290 107
q58 0 92 40t34 109t-34 108.5t-92 39.5t-92 -39.5t-34 -108.5t34 -109t92 -40zM237 564v67q0 41 13 75.5t44 62.5l47 -32q-18 -18 -26.5 -35t-10.5 -36h63v-102h-130z" />
    <glyph glyph-name="Hcircumflex" unicode="&#x124;" horiz-adv-x="773" 
d="M77 0v705h128v-294h363v294h128v-705h-128v304h-363v-304h-128zM208 765l124 174h108l124 -174h-88l-90 104l-90 -104h-88z" />
    <glyph glyph-name="hcircumflex" unicode="&#x125;" horiz-adv-x="585" 
d="M65 0v705h125v-287q25 40 67 60.5t93 20.5q173 0 173 -201v-298h-125v292q0 57 -21.5 83t-66.5 26q-55 0 -87.5 -34.5t-32.5 -91.5v-275h-125zM116 765l124 174h108l124 -174h-88l-90 104l-90 -104h-88z" />
    <glyph glyph-name="Hbar" unicode="&#x126;" horiz-adv-x="817" 
d="M99 0v511h-85v94h85v100h128v-100h363v100h128v-100h85v-94h-85v-511h-128v294h-363v-294h-128zM227 401h363v110h-363v-110z" />
    <glyph glyph-name="hbar" unicode="&#x127;" horiz-adv-x="585" 
d="M65 0v544h-87v88h87v73h125v-73h189v-88h-189v-126q25 40 67 60.5t93 20.5q173 0 173 -201v-298h-125v292q0 57 -21.5 83t-66.5 26q-55 0 -87.5 -34.5t-32.5 -91.5v-275h-125z" />
    <glyph glyph-name="Itilde" unicode="&#x128;" horiz-adv-x="281" 
d="M77 0v705h128v-705h-128zM-20 772l-62 4q6 71 42.5 109.5t91.5 38.5q25 0 49 -9t55 -27q32 -19 48 -24.5t29 -5.5q57 0 69 70l62 -4q-5 -71 -41.5 -109.5t-91.5 -38.5q-25 0 -51 10t-55 27q-28 17 -45 23t-31 6q-55 0 -69 -70z" />
    <glyph glyph-name="itilde" unicode="&#x129;" horiz-adv-x="255" 
d="M65 0v489h125v-489h-125zM-5 584l-62 4q5 69 37 108.5t83 39.5q23 0 41.5 -9.5t42.5 -27.5q22 -16 35 -22.5t26 -6.5q51 0 61 70l62 -4q-4 -69 -36 -108.5t-83 -39.5q-21 0 -39.5 8t-45.5 29q-37 29 -60 29q-50 0 -62 -70z" />
    <glyph glyph-name="Imacron" unicode="&#x12a;" horiz-adv-x="281" 
d="M77 0v705h128v-705h-128zM-31 806v74h345v-74h-345z" />
    <glyph glyph-name="imacron" unicode="&#x12b;" horiz-adv-x="255" 
d="M65 0v489h125v-489h-125zM-30 616v74h315v-74h-315z" />
    <glyph glyph-name="Ibreve" unicode="&#x12c;" horiz-adv-x="281" 
d="M77 0v705h128v-705h-128zM141 760q-77 0 -127 46t-55 124l71 9q5 -49 33.5 -76.5t77.5 -27.5q48 0 78 27.5t34 76.5l71 -9q-6 -78 -55.5 -124t-127.5 -46z" />
    <glyph glyph-name="ibreve" unicode="&#x12d;" horiz-adv-x="255" 
d="M65 0v489h125v-489h-125zM127 551q-73 0 -118 52t-48 141l71 7q4 -60 28.5 -92t66.5 -32t66.5 32t28.5 92l71 -7q-2 -89 -47 -141t-119 -52z" />
    <glyph glyph-name="Iogonek" unicode="&#x12e;" horiz-adv-x="281" 
d="M77 0v705h128v-705h-128zM157 -195q-55 0 -86.5 28t-31.5 76q0 42 28 78t74 55l37 -42q-25 -10 -42.5 -30.5t-17.5 -46.5q0 -25 16 -38t40 -13q14 0 27 3t27 8l15 -61q-37 -17 -86 -17z" />
    <glyph glyph-name="iogonek" unicode="&#x12f;" horiz-adv-x="255" 
d="M65 0v489h125v-489h-125zM57 594v122h140v-122h-140zM143 -195q-55 0 -86.5 28t-31.5 76q0 42 28 78t74 55l37 -42q-25 -10 -42.5 -30.5t-17.5 -46.5q0 -25 16 -38t40 -13q14 0 27 3t27 8l15 -61q-37 -17 -86 -17z" />
    <glyph glyph-name="Idotaccent" unicode="&#x130;" horiz-adv-x="281" 
d="M77 0v705h128v-705h-128zM80 794v116h122v-116h-122z" />
    <glyph glyph-name="dotlessi" unicode="&#x131;" horiz-adv-x="255" 
d="M65 0v489h125v-489h-125z" />
    <glyph glyph-name="IJ" unicode="&#x132;" horiz-adv-x="636" 
d="M77 0v705h128v-705h-128zM280 -9l-9 105l71 4q89 6 89 98v507h128v-506q0 -190 -197 -204z" />
    <glyph glyph-name="Jcircumflex" unicode="&#x134;" horiz-adv-x="355" 
d="M-1 -9l-9 105l71 4q89 6 89 98v507h128v-506q0 -190 -197 -204zM35 765l124 174h108l124 -174h-88l-90 104l-90 -104h-88z" />
    <glyph glyph-name="jcircumflex" unicode="&#x135;" horiz-adv-x="259" 
d="M-45 -193l-9 91l46 5q77 9 77 90v496h125v-480q0 -98 -45 -144.5t-151 -54.5zM-34 554l110 203h110l110 -203h-80l-85 132l-85 -132h-80z" />
    <glyph glyph-name="uni0136" unicode="&#x136;" horiz-adv-x="664" 
d="M77 0v705h128v-312h2l311 312h156l-343 -339l360 -366h-158l-326 326h-2v-326h-128zM340 -278l-47 32q18 18 26.5 35t10.5 36h-63v102h130v-67q0 -41 -13 -75.5t-44 -62.5z" />
    <glyph glyph-name="uni0137" unicode="&#x137;" horiz-adv-x="536" 
d="M65 0v705h125v-424h2l197 208h151l-222 -234l236 -255h-153l-209 218h-2v-218h-125zM276 -278l-47 32q18 18 26.5 35t10.5 36h-63v102h130v-67q0 -41 -13 -75.5t-44 -62.5z" />
    <glyph glyph-name="kgreenlandic" unicode="&#x138;" horiz-adv-x="536" 
d="M65 0v489h125v-208h2l197 208h151l-222 -234l236 -255h-153l-209 218h-2v-218h-125z" />
    <glyph glyph-name="Lacute" unicode="&#x139;" horiz-adv-x="562" 
d="M77 0v705h128v-596h338v-109h-466zM97 765l118 174h130l-159 -174h-89z" />
    <glyph glyph-name="lacute" unicode="&#x13a;" horiz-adv-x="319" 
d="M235 -10q-87 0 -128.5 47.5t-41.5 139.5v528h125v-522q0 -90 76 -90q11 0 22 1t21 4l-2 -99q-36 -9 -72 -9zM83 765l118 174h130l-159 -174h-89z" />
    <glyph glyph-name="uni013B" unicode="&#x13b;" horiz-adv-x="562" 
d="M77 0v705h128v-596h338v-109h-466zM318 -278l-47 32q18 18 26.5 35t10.5 36h-63v102h130v-67q0 -41 -13 -75.5t-44 -62.5z" />
    <glyph glyph-name="uni013C" unicode="&#x13c;" horiz-adv-x="319" 
d="M235 -10q-87 0 -128.5 47.5t-41.5 139.5v528h125v-522q0 -90 76 -90q11 0 22 1t21 4l-2 -99q-36 -9 -72 -9zM200 -278l-47 32q18 18 26.5 35t10.5 36h-63v102h130v-67q0 -41 -13 -75.5t-44 -62.5z" />
    <glyph glyph-name="Lcaron" unicode="&#x13d;" horiz-adv-x="562" 
d="M77 0v705h128v-596h338v-109h-466zM311 469v236h97l-23 -236h-74z" />
    <glyph glyph-name="lcaron" unicode="&#x13e;" horiz-adv-x="319" 
d="M235 -10q-87 0 -128.5 47.5t-41.5 139.5v528h125v-522q0 -90 76 -90q11 0 22 1t21 4l-2 -99q-36 -9 -72 -9zM230 513v192h84l-26 -192h-58z" />
    <glyph glyph-name="Ldot" unicode="&#x13f;" horiz-adv-x="562" 
d="M77 0v705h128v-596h338v-109h-466zM355 332v123h140v-123h-140z" />
    <glyph glyph-name="ldot" unicode="&#x140;" horiz-adv-x="371" 
d="M235 -10q-87 0 -128.5 47.5t-41.5 139.5v528h125v-522q0 -90 76 -90q11 0 22 1t21 4l-2 -99q-36 -9 -72 -9zM243 295v123h140v-123h-140z" />
    <glyph glyph-name="Lslash" unicode="&#x141;" horiz-adv-x="562" 
d="M77 0v705h128v-596h338v-109h-466zM11 229l-48 85l400 230l48 -85z" />
    <glyph glyph-name="lslash" unicode="&#x142;" horiz-adv-x="319" 
d="M235 -10q-87 0 -128.5 47.5t-41.5 139.5v528h125v-522q0 -90 76 -90q11 0 22 1t21 4l-2 -99q-36 -9 -72 -9zM10 227l-48 84l303 176l48 -84z" />
    <glyph glyph-name="Nacute" unicode="&#x143;" horiz-adv-x="748" 
d="M77 0v705h96l379 -492v492h119v-705h-95l-380 494v-494h-119zM330 765l118 174h130l-159 -174h-89z" />
    <glyph glyph-name="nacute" unicode="&#x144;" horiz-adv-x="585" 
d="M65 0v489h122v-76q25 42 67.5 64t95.5 22q173 0 173 -201v-298h-125v292q0 57 -21.5 83t-66.5 26q-55 0 -87.5 -34.5t-32.5 -91.5v-275h-125zM252 554l103 203h123l-142 -203h-84z" />
    <glyph glyph-name="uni0145" unicode="&#x145;" horiz-adv-x="748" 
d="M77 0v705h96l379 -492v492h119v-705h-95l-380 494v-494h-119zM382 -278l-47 32q18 18 26.5 35t10.5 36h-63v102h130v-67q0 -41 -13 -75.5t-44 -62.5z" />
    <glyph glyph-name="uni0146" unicode="&#x146;" horiz-adv-x="585" 
d="M65 0v489h122v-76q25 42 67.5 64t95.5 22q173 0 173 -201v-298h-125v292q0 57 -21.5 83t-66.5 26q-55 0 -87.5 -34.5t-32.5 -91.5v-275h-125zM302 -278l-47 32q18 18 26.5 35t10.5 36h-63v102h130v-67q0 -41 -13 -75.5t-44 -62.5z" />
    <glyph glyph-name="Ncaron" unicode="&#x147;" horiz-adv-x="748" 
d="M77 0v705h96l379 -492v492h119v-705h-95l-380 494v-494h-119zM320 765l-124 174h88l90 -104l90 104h88l-124 -174h-108z" />
    <glyph glyph-name="ncaron" unicode="&#x148;" horiz-adv-x="585" 
d="M65 0v489h122v-76q25 42 67.5 64t95.5 22q173 0 173 -201v-298h-125v292q0 57 -21.5 83t-66.5 26q-55 0 -87.5 -34.5t-32.5 -91.5v-275h-125zM239 554l-110 203h80l85 -132l85 132h80l-110 -203h-110z" />
    <glyph glyph-name="napostrophe" unicode="&#x149;" horiz-adv-x="585" 
d="M48 567l-47 32q18 16 25.5 32.5t9.5 32.5h-62v105h130v-67q0 -40 -12 -73t-44 -62zM65 0v489h122v-76q25 42 67.5 64t95.5 22q173 0 173 -201v-298h-125v292q0 57 -21.5 83t-66.5 26q-55 0 -87.5 -34.5t-32.5 -91.5v-275h-125z" />
    <glyph glyph-name="Eng" unicode="&#x14a;" horiz-adv-x="748" 
d="M432 -193l-8 91l48 5q80 9 80 90v38l-356 463v-494h-119v705h96l379 -492v492h119v-696q0 -98 -45 -144.5t-150 -54.5z" />
    <glyph glyph-name="eng" unicode="&#x14b;" horiz-adv-x="585" 
d="M284 -193l-8 91l45 5q77 9 77 90v299q0 57 -21.5 83t-66.5 26q-55 0 -87.5 -34.5t-32.5 -91.5v-275h-125v489h122v-76q25 42 67.5 64t95.5 22q173 0 173 -201v-289q0 -98 -45 -144.5t-150 -54.5z" />
    <glyph glyph-name="Omacron" unicode="&#x14c;" horiz-adv-x="785" 
d="M393 -10q-102 0 -178.5 45t-118.5 126.5t-42 191.5q0 111 42 192t118 125.5t179 44.5t179 -44.5t118 -125.5t42 -191q0 -111 -42 -192.5t-118 -126.5t-179 -45zM393 100q97 0 151 67t54 186q0 120 -53.5 186t-151.5 66q-97 0 -151 -66t-54 -186q0 -119 54 -186t151 -67z
M220 806v74h345v-74h-345z" />
    <glyph glyph-name="omacron" unicode="&#x14d;" horiz-adv-x="576" 
d="M288 -10q-76 0 -132 31t-87 88.5t-31 135.5t31 135t87 88t132 31t132 -31t87 -88t31 -135t-31 -135.5t-87 -88.5t-132 -31zM288 85q56 0 90 40.5t34 119.5q0 80 -34 119.5t-90 39.5t-90 -39.5t-34 -119.5q0 -79 34 -119.5t90 -40.5zM131 616v74h315v-74h-315z" />
    <glyph glyph-name="Obreve" unicode="&#x14e;" horiz-adv-x="785" 
d="M393 -10q-102 0 -178.5 45t-118.5 126.5t-42 191.5q0 111 42 192t118 125.5t179 44.5t179 -44.5t118 -125.5t42 -191q0 -111 -42 -192.5t-118 -126.5t-179 -45zM393 100q97 0 151 67t54 186q0 120 -53.5 186t-151.5 66q-97 0 -151 -66t-54 -186q0 -119 54 -186t151 -67z
M392 760q-77 0 -127 46t-55 124l71 9q5 -49 33.5 -76.5t77.5 -27.5q48 0 78 27.5t34 76.5l71 -9q-6 -78 -55.5 -124t-127.5 -46z" />
    <glyph glyph-name="obreve" unicode="&#x14f;" horiz-adv-x="576" 
d="M288 -10q-76 0 -132 31t-87 88.5t-31 135.5t31 135t87 88t132 31t132 -31t87 -88t31 -135t-31 -135.5t-87 -88.5t-132 -31zM288 85q56 0 90 40.5t34 119.5q0 80 -34 119.5t-90 39.5t-90 -39.5t-34 -119.5q0 -79 34 -119.5t90 -40.5zM288 551q-73 0 -118 52t-48 141l71 7
q4 -60 28.5 -92t66.5 -32t66.5 32t28.5 92l71 -7q-2 -89 -47 -141t-119 -52z" />
    <glyph glyph-name="Ohungarumlaut" unicode="&#x150;" horiz-adv-x="785" 
d="M393 -10q-102 0 -178.5 45t-118.5 126.5t-42 191.5q0 111 42 192t118 125.5t179 44.5t179 -44.5t118 -125.5t42 -191q0 -111 -42 -192.5t-118 -126.5t-179 -45zM393 100q97 0 151 67t54 186q0 120 -53.5 186t-151.5 66q-97 0 -151 -66t-54 -186q0 -119 54 -186t151 -67z
M284 765l85 174h112l-127 -174h-70zM430 765l95 174h112l-136 -174h-71z" />
    <glyph glyph-name="ohungarumlaut" unicode="&#x151;" horiz-adv-x="576" 
d="M288 -10q-76 0 -132 31t-87 88.5t-31 135.5t31 135t87 88t132 31t132 -31t87 -88t31 -135t-31 -135.5t-87 -88.5t-132 -31zM288 85q56 0 90 40.5t34 119.5q0 80 -34 119.5t-90 39.5t-90 -39.5t-34 -119.5q0 -79 34 -119.5t90 -40.5zM328 554l49 203h105l-88 -203h-66z
M179 554l50 203h105l-89 -203h-66z" />
    <glyph glyph-name="OE" unicode="&#x152;" horiz-adv-x="1056" 
d="M424 0q-177 0 -273.5 92t-96.5 261q0 170 96.5 261t273.5 91h581v-102h-346v-194h324v-102h-324v-205h346v-102h-581zM432 106h104v493h-104q-244 0 -244 -246q0 -247 244 -247z" />
    <glyph glyph-name="oe" unicode="&#x153;" horiz-adv-x="914" 
d="M284 -10q-75 0 -130 31.5t-85.5 89t-30.5 135.5t30.5 134.5t85.5 87.5t130 31q64 0 112 -25t78 -71q28 43 76 69.5t108 26.5q102 0 162 -66t60 -180v-37h-343q6 -65 41.5 -98t103.5 -33q85 0 155 53l35 -85q-35 -29 -87 -46t-105 -17q-71 0 -125 25t-83 72
q-30 -46 -77.5 -71.5t-110.5 -25.5zM661 414q-53 0 -85.5 -32t-38.5 -94h239q-3 61 -32.5 93.5t-82.5 32.5zM288 85q56 0 90 40.5t34 119.5t-34 119t-90 40t-90 -40t-34 -119t34.5 -119.5t89.5 -40.5z" />
    <glyph glyph-name="Racute" unicode="&#x154;" horiz-adv-x="686" 
d="M77 0v705h306q116 0 179 -55.5t63 -155.5q0 -79 -41 -130.5t-118 -69.5q51 -16 84 -77l118 -217h-141l-122 225q-18 33 -42.5 45t-62.5 12h-95v-282h-128zM205 377h156q140 0 140 114q0 113 -140 113h-156v-227zM304 765l118 174h130l-159 -174h-89z" />
    <glyph glyph-name="racute" unicode="&#x155;" horiz-adv-x="392" 
d="M65 0v489h122v-86q36 87 154 96l38 3l8 -106l-72 -7q-123 -12 -123 -126v-263h-127zM185 554l103 203h123l-142 -203h-84z" />
    <glyph glyph-name="uni0156" unicode="&#x156;" horiz-adv-x="686" 
d="M77 0v705h306q116 0 179 -55.5t63 -155.5q0 -79 -41 -130.5t-118 -69.5q51 -16 84 -77l118 -217h-141l-122 225q-18 33 -42.5 45t-62.5 12h-95v-282h-128zM205 377h156q140 0 140 114q0 113 -140 113h-156v-227zM357 -278l-47 32q18 18 26.5 35t10.5 36h-63v102h130v-67
q0 -41 -13 -75.5t-44 -62.5z" />
    <glyph glyph-name="uni0157" unicode="&#x157;" horiz-adv-x="392" 
d="M65 0v489h122v-86q36 87 154 96l38 3l8 -106l-72 -7q-123 -12 -123 -126v-263h-127zM136 -278l-47 32q18 18 26.5 35t10.5 36h-63v102h130v-67q0 -41 -13 -75.5t-44 -62.5z" />
    <glyph glyph-name="Rcaron" unicode="&#x158;" horiz-adv-x="686" 
d="M77 0v705h306q116 0 179 -55.5t63 -155.5q0 -79 -41 -130.5t-118 -69.5q51 -16 84 -77l118 -217h-141l-122 225q-18 33 -42.5 45t-62.5 12h-95v-282h-128zM205 377h156q140 0 140 114q0 113 -140 113h-156v-227zM294 765l-124 174h88l90 -104l90 104h88l-124 -174h-108z
" />
    <glyph glyph-name="rcaron" unicode="&#x159;" horiz-adv-x="392" 
d="M65 0v489h122v-86q36 87 154 96l38 3l8 -106l-72 -7q-123 -12 -123 -126v-263h-127zM172 554l-110 203h80l85 -132l85 132h80l-110 -203h-110z" />
    <glyph glyph-name="Sacute" unicode="&#x15a;" horiz-adv-x="631" 
d="M320 -10q-83 0 -154 21.5t-120 58.5l39 101q49 -35 107.5 -54t127.5 -19q79 0 115 26.5t36 68.5q0 35 -25.5 55t-87.5 33l-110 23q-188 40 -188 193q0 66 35 115t97 76t143 27q72 0 135 -21.5t105 -60.5l-39 -96q-83 70 -202 70q-69 0 -108 -29t-39 -76q0 -36 24 -57.5
t82 -33.5l109 -23q99 -21 147.5 -66t48.5 -120q0 -63 -34 -111t-96.5 -74.5t-147.5 -26.5zM281 765l118 174h130l-159 -174h-89z" />
    <glyph glyph-name="sacute" unicode="&#x15b;" horiz-adv-x="488" 
d="M244 -10q-62 0 -116 15t-90 43l32 82q37 -25 83 -38.5t92 -13.5q48 0 71.5 16.5t23.5 43.5q0 42 -62 54l-100 19q-127 24 -127 132q0 48 26.5 83t73.5 54t108 19q52 0 100 -14.5t82 -43.5l-34 -82q-29 24 -69.5 38t-77.5 14q-49 0 -72.5 -17t-23.5 -45q0 -44 57 -54
l100 -19q65 -12 98.5 -44t33.5 -86q0 -73 -57 -114.5t-152 -41.5zM211 554l103 203h123l-142 -203h-84z" />
    <glyph glyph-name="Scircumflex" unicode="&#x15c;" horiz-adv-x="631" 
d="M320 -10q-83 0 -154 21.5t-120 58.5l39 101q49 -35 107.5 -54t127.5 -19q79 0 115 26.5t36 68.5q0 35 -25.5 55t-87.5 33l-110 23q-188 40 -188 193q0 66 35 115t97 76t143 27q72 0 135 -21.5t105 -60.5l-39 -96q-83 70 -202 70q-69 0 -108 -29t-39 -76q0 -36 24 -57.5
t82 -33.5l109 -23q99 -21 147.5 -66t48.5 -120q0 -63 -34 -111t-96.5 -74.5t-147.5 -26.5zM147 765l124 174h108l124 -174h-88l-90 104l-90 -104h-88z" />
    <glyph glyph-name="scircumflex" unicode="&#x15d;" horiz-adv-x="488" 
d="M244 -10q-62 0 -116 15t-90 43l32 82q37 -25 83 -38.5t92 -13.5q48 0 71.5 16.5t23.5 43.5q0 42 -62 54l-100 19q-127 24 -127 132q0 48 26.5 83t73.5 54t108 19q52 0 100 -14.5t82 -43.5l-34 -82q-29 24 -69.5 38t-77.5 14q-49 0 -72.5 -17t-23.5 -45q0 -44 57 -54
l100 -19q65 -12 98.5 -44t33.5 -86q0 -73 -57 -114.5t-152 -41.5zM88 554l110 203h110l110 -203h-80l-85 132l-85 -132h-80z" />
    <glyph glyph-name="Scedilla" unicode="&#x15e;" horiz-adv-x="631" 
d="M320 -10q-83 0 -154 21.5t-120 58.5l39 101q49 -35 107.5 -54t127.5 -19q79 0 115 26.5t36 68.5q0 35 -25.5 55t-87.5 33l-110 23q-188 40 -188 193q0 66 35 115t97 76t143 27q72 0 135 -21.5t105 -60.5l-39 -96q-83 70 -202 70q-69 0 -108 -29t-39 -76q0 -36 24 -57.5
t82 -33.5l109 -23q99 -21 147.5 -66t48.5 -120q0 -63 -34 -111t-96.5 -74.5t-147.5 -26.5zM324 -195q-29 0 -56 5.5t-46 15.5l18 56q18 -8 35.5 -12.5t38.5 -4.5q54 0 54 30q0 23 -37 23q-10 0 -19 -1t-22 -5l-19 18l13 90h67l-10 -58q6 1 11 1q41 0 66 -19t25 -53
q0 -39 -33 -62.5t-86 -23.5z" />
    <glyph glyph-name="scedilla" unicode="&#x15f;" horiz-adv-x="488" 
d="M244 -10q-62 0 -116 15t-90 43l32 82q37 -25 83 -38.5t92 -13.5q48 0 71.5 16.5t23.5 43.5q0 42 -62 54l-100 19q-127 24 -127 132q0 48 26.5 83t73.5 54t108 19q52 0 100 -14.5t82 -43.5l-34 -82q-29 24 -69.5 38t-77.5 14q-49 0 -72.5 -17t-23.5 -45q0 -44 57 -54
l100 -19q65 -12 98.5 -44t33.5 -86q0 -73 -57 -114.5t-152 -41.5zM245 -195q-29 0 -56 5.5t-46 15.5l18 56q18 -8 35.5 -12.5t38.5 -4.5q54 0 54 30q0 23 -37 23q-10 0 -19 -1t-22 -5l-19 18l13 90h67l-10 -58q6 1 11 1q41 0 66 -19t25 -53q0 -39 -33 -62.5t-86 -23.5z" />
    <glyph glyph-name="Scaron" unicode="&#x160;" horiz-adv-x="631" 
d="M320 -10q-83 0 -154 21.5t-120 58.5l39 101q49 -35 107.5 -54t127.5 -19q79 0 115 26.5t36 68.5q0 35 -25.5 55t-87.5 33l-110 23q-188 40 -188 193q0 66 35 115t97 76t143 27q72 0 135 -21.5t105 -60.5l-39 -96q-83 70 -202 70q-69 0 -108 -29t-39 -76q0 -36 24 -57.5
t82 -33.5l109 -23q99 -21 147.5 -66t48.5 -120q0 -63 -34 -111t-96.5 -74.5t-147.5 -26.5zM271 765l-124 174h88l90 -104l90 104h88l-124 -174h-108z" />
    <glyph glyph-name="scaron" unicode="&#x161;" horiz-adv-x="488" 
d="M244 -10q-62 0 -116 15t-90 43l32 82q37 -25 83 -38.5t92 -13.5q48 0 71.5 16.5t23.5 43.5q0 42 -62 54l-100 19q-127 24 -127 132q0 48 26.5 83t73.5 54t108 19q52 0 100 -14.5t82 -43.5l-34 -82q-29 24 -69.5 38t-77.5 14q-49 0 -72.5 -17t-23.5 -45q0 -44 57 -54
l100 -19q65 -12 98.5 -44t33.5 -86q0 -73 -57 -114.5t-152 -41.5zM198 554l-110 203h80l85 -132l85 132h80l-110 -203h-110z" />
    <glyph glyph-name="uni0162" unicode="&#x162;" horiz-adv-x="621" 
d="M247 0v598h-242v107h612v-107h-242v-598h-128zM312 -195q-29 0 -56 5.5t-46 15.5l18 56q18 -8 35.5 -12.5t38.5 -4.5q54 0 54 30q0 23 -37 23q-10 0 -19 -1t-22 -5l-19 18l13 90h67l-10 -58q6 1 11 1q41 0 66 -19t25 -53q0 -39 -33 -62.5t-86 -23.5z" />
    <glyph glyph-name="uni0163" unicode="&#x163;" horiz-adv-x="384" 
d="M289 -10q-194 0 -194 192v213h-94v94h94v146h125v-146h148v-94h-148v-206q0 -48 21 -72t68 -24q14 0 29 3.5t31 7.5l19 -92q-18 -10 -45.5 -16t-53.5 -6zM231 -195q-29 0 -56 5.5t-46 15.5l18 56q18 -8 35.5 -12.5t38.5 -4.5q54 0 54 30q0 23 -37 23q-10 0 -19 -1t-22 -5
l-19 18l13 90h67l-10 -58q6 1 11 1q41 0 66 -19t25 -53q0 -39 -33 -62.5t-86 -23.5z" />
    <glyph glyph-name="Tcaron" unicode="&#x164;" horiz-adv-x="621" 
d="M247 0v598h-242v107h612v-107h-242v-598h-128zM257 765l-124 174h88l90 -104l90 104h88l-124 -174h-108z" />
    <glyph glyph-name="tcaron" unicode="&#x165;" horiz-adv-x="384" 
d="M289 -10q-194 0 -194 192v213h-94v94h94v146h125v-146h148v-94h-148v-206q0 -48 21 -72t68 -24q14 0 29 3.5t31 7.5l19 -92q-18 -10 -45.5 -16t-53.5 -6zM275 531v174h84l-26 -174h-58z" />
    <glyph glyph-name="Tbar" unicode="&#x166;" horiz-adv-x="621" 
d="M247 0v598h-242v107h612v-107h-242v-598h-128zM109 310v94h404v-94h-404z" />
    <glyph glyph-name="tbar" unicode="&#x167;" horiz-adv-x="384" 
d="M289 -10q-194 0 -194 192v213h-94v94h94v146h125v-146h148v-94h-148v-206q0 -48 21 -72t68 -24q14 0 29 3.5t31 7.5l19 -92q-18 -10 -45.5 -16t-53.5 -6zM26 223v76h307v-76h-307z" />
    <glyph glyph-name="Utilde" unicode="&#x168;" horiz-adv-x="738" 
d="M370 -10q-145 0 -221.5 75.5t-76.5 223.5v416h128v-415q0 -95 43.5 -142.5t126.5 -47.5q169 0 169 190v415h127v-416q0 -148 -75 -223.5t-221 -75.5zM209 772l-62 4q6 71 42.5 109.5t91.5 38.5q25 0 49 -9t55 -27q32 -19 48 -24.5t29 -5.5q57 0 69 70l62 -4
q-5 -71 -41.5 -109.5t-91.5 -38.5q-25 0 -51 10t-55 27q-28 17 -45 23t-31 6q-55 0 -69 -70z" />
    <glyph glyph-name="utilde" unicode="&#x169;" horiz-adv-x="579" 
d="M242 -10q-180 0 -180 202v297h125v-299q0 -52 21 -77t67 -25q50 0 82 34.5t32 91.5v275h125v-489h-122v73q-49 -83 -150 -83zM157 585l-62 4q5 69 37 108.5t83 39.5q23 0 41.5 -9.5t42.5 -27.5q22 -16 35 -22.5t26 -6.5q51 0 61 70l62 -4q-4 -69 -36 -108.5t-83 -39.5
q-21 0 -39.5 8t-45.5 29q-37 29 -60 29q-50 0 -62 -70z" />
    <glyph glyph-name="Umacron" unicode="&#x16a;" horiz-adv-x="738" 
d="M370 -10q-145 0 -221.5 75.5t-76.5 223.5v416h128v-415q0 -95 43.5 -142.5t126.5 -47.5q169 0 169 190v415h127v-416q0 -148 -75 -223.5t-221 -75.5zM198 806v74h345v-74h-345z" />
    <glyph glyph-name="umacron" unicode="&#x16b;" horiz-adv-x="579" 
d="M242 -10q-180 0 -180 202v297h125v-299q0 -52 21 -77t67 -25q50 0 82 34.5t32 91.5v275h125v-489h-122v73q-49 -83 -150 -83zM132 617v74h315v-74h-315z" />
    <glyph glyph-name="Ubreve" unicode="&#x16c;" horiz-adv-x="738" 
d="M370 -10q-145 0 -221.5 75.5t-76.5 223.5v416h128v-415q0 -95 43.5 -142.5t126.5 -47.5q169 0 169 190v415h127v-416q0 -148 -75 -223.5t-221 -75.5zM370 760q-77 0 -127 46t-55 124l71 9q5 -49 33.5 -76.5t77.5 -27.5q48 0 78 27.5t34 76.5l71 -9q-6 -78 -55.5 -124
t-127.5 -46z" />
    <glyph glyph-name="ubreve" unicode="&#x16d;" horiz-adv-x="579" 
d="M242 -10q-180 0 -180 202v297h125v-299q0 -52 21 -77t67 -25q50 0 82 34.5t32 91.5v275h125v-489h-122v73q-49 -83 -150 -83zM289 552q-73 0 -118 52t-48 141l71 7q4 -60 28.5 -92t66.5 -32t66.5 32t28.5 92l71 -7q-2 -89 -47 -141t-119 -52z" />
    <glyph glyph-name="Uring" unicode="&#x16e;" horiz-adv-x="738" 
d="M370 -10q-145 0 -221.5 75.5t-76.5 223.5v416h128v-415q0 -95 43.5 -142.5t126.5 -47.5q169 0 169 190v415h127v-416q0 -148 -75 -223.5t-221 -75.5zM370 755q-35 0 -64 16.5t-45.5 44.5t-16.5 62q0 52 36.5 87t89.5 35t89.5 -35t36.5 -87q0 -34 -16.5 -62t-45 -44.5
t-64.5 -16.5zM370 812q29 0 47 19t18 47t-18 46.5t-47 18.5q-28 0 -46.5 -18.5t-18.5 -46.5t18.5 -47t46.5 -19z" />
    <glyph glyph-name="uring" unicode="&#x16f;" horiz-adv-x="579" 
d="M242 -10q-180 0 -180 202v297h125v-299q0 -52 21 -77t67 -25q50 0 82 34.5t32 91.5v275h125v-489h-122v73q-49 -83 -150 -83zM289 547q-35 0 -64 16.5t-45.5 44.5t-16.5 62q0 52 36.5 87t89.5 35t89.5 -35t36.5 -87q0 -34 -16.5 -62t-45 -44.5t-64.5 -16.5zM289 604
q29 0 47 19t18 47t-18 46.5t-47 18.5q-28 0 -46.5 -18.5t-18.5 -46.5t18.5 -47t46.5 -19z" />
    <glyph glyph-name="Uhungarumlaut" unicode="&#x170;" horiz-adv-x="738" 
d="M370 -10q-145 0 -221.5 75.5t-76.5 223.5v416h128v-415q0 -95 43.5 -142.5t126.5 -47.5q169 0 169 190v415h127v-416q0 -148 -75 -223.5t-221 -75.5zM262 765l85 174h112l-127 -174h-70zM408 765l95 174h112l-136 -174h-71z" />
    <glyph glyph-name="uhungarumlaut" unicode="&#x171;" horiz-adv-x="579" 
d="M242 -10q-180 0 -180 202v297h125v-299q0 -52 21 -77t67 -25q50 0 82 34.5t32 91.5v275h125v-489h-122v73q-49 -83 -150 -83zM329 555l49 203h105l-88 -203h-66zM180 555l50 203h105l-89 -203h-66z" />
    <glyph glyph-name="Uogonek" unicode="&#x172;" horiz-adv-x="738" 
d="M370 -10q-145 0 -221.5 75.5t-76.5 223.5v416h128v-415q0 -95 43.5 -142.5t126.5 -47.5q169 0 169 190v415h127v-416q0 -148 -75 -223.5t-221 -75.5zM406 -195q-55 0 -86.5 28t-31.5 76q0 42 28 78t74 55l37 -42q-25 -10 -42.5 -30.5t-17.5 -46.5q0 -25 16 -38t40 -13
q14 0 27 3t27 8l15 -61q-37 -17 -86 -17z" />
    <glyph glyph-name="uogonek" unicode="&#x173;" horiz-adv-x="579" 
d="M242 -10q-180 0 -180 202v297h125v-299q0 -52 21 -77t67 -25q50 0 82 34.5t32 91.5v275h125v-489h-122v73q-49 -83 -150 -83zM458 -195q-55 0 -86.5 28t-31.5 76q0 42 28 78t74 55l37 -42q-25 -10 -42.5 -30.5t-17.5 -46.5q0 -25 16 -38t40 -13q14 0 27 3t27 8l15 -61
q-37 -17 -86 -17z" />
    <glyph glyph-name="Wcircumflex" unicode="&#x174;" horiz-adv-x="1113" 
d="M271 0l-249 705h132l175 -520l184 520h95l180 -527l180 527h125l-251 -705h-106l-179 509l-180 -509h-106zM379 765l124 174h108l124 -174h-88l-90 104l-90 -104h-88z" />
    <glyph glyph-name="wcircumflex" unicode="&#x175;" horiz-adv-x="853" 
d="M200 0l-193 489h128l125 -344l126 344h88l126 -346l125 346h121l-192 -489h-109l-119 315l-117 -315h-109zM262 554l110 203h110l110 -203h-80l-85 132l-85 -132h-80z" />
    <glyph glyph-name="Ycircumflex" unicode="&#x176;" horiz-adv-x="618" 
d="M245 0v324l-271 381h149l188 -267l189 267h143l-270 -382v-323h-128zM131 765l124 174h108l124 -174h-88l-90 104l-90 -104h-88z" />
    <glyph glyph-name="ycircumflex" unicode="&#x177;" horiz-adv-x="526" 
d="M109 -180l90 200l-203 469h133l137 -342l140 342h126l-294 -669h-129zM99 554l110 203h110l110 -203h-80l-85 132l-85 -132h-80z" />
    <glyph glyph-name="Ydieresis" unicode="&#x178;" horiz-adv-x="618" 
d="M245 0v324l-271 381h149l188 -267l189 267h143l-270 -382v-323h-128zM345 790v115h116v-115h-116zM157 790v115h116v-115h-116z" />
    <glyph glyph-name="Zacute" unicode="&#x179;" horiz-adv-x="605" 
d="M47 0v94l372 504h-372v107h522v-94l-372 -504h387v-107h-537zM269 765l118 174h130l-159 -174h-89z" />
    <glyph glyph-name="zacute" unicode="&#x17a;" horiz-adv-x="474" 
d="M49 0v81l252 314h-252v94h388v-81l-252 -314h263v-94h-399zM201 554l103 203h123l-142 -203h-84z" />
    <glyph glyph-name="Zdotaccent" unicode="&#x17b;" horiz-adv-x="605" 
d="M47 0v94l372 504h-372v107h522v-94l-372 -504h387v-107h-537zM252 794v116h122v-116h-122z" />
    <glyph glyph-name="zdotaccent" unicode="&#x17c;" horiz-adv-x="474" 
d="M49 0v81l252 314h-252v94h388v-81l-252 -314h263v-94h-399zM182 597v116h122v-116h-122z" />
    <glyph glyph-name="Zcaron" unicode="&#x17d;" horiz-adv-x="605" 
d="M47 0v94l372 504h-372v107h522v-94l-372 -504h387v-107h-537zM259 765l-124 174h88l90 -104l90 104h88l-124 -174h-108z" />
    <glyph glyph-name="zcaron" unicode="&#x17e;" horiz-adv-x="474" 
d="M49 0v81l252 314h-252v94h388v-81l-252 -314h263v-94h-399zM188 554l-110 203h80l85 -132l85 132h80l-110 -203h-110z" />
    <glyph glyph-name="uni0181" unicode="&#x181;" horiz-adv-x="838" 
d="M227 0v614h-26q-49 0 -72.5 -23.5t-23.5 -74.5v-47h-105v52q0 184 208 184h327q111 0 172 -48.5t61 -134.5q0 -57 -29 -98t-80 -60q60 -17 93.5 -59.5t33.5 -107.5q0 -94 -63.5 -145.5t-176.5 -51.5h-319zM350 406h163q131 0 131 101t-131 101h-163v-202zM350 97h180
q132 0 132 106t-132 106h-180v-212z" />
    <glyph glyph-name="uni018A" unicode="&#x18a;" horiz-adv-x="912" 
d="M227 0v614h-26q-49 0 -72.5 -23.5t-23.5 -74.5v-47h-105v52q0 184 203 184h286q177 0 273.5 -91t96.5 -261q0 -169 -96.5 -261t-273.5 -92h-262zM355 106h126q244 0 244 247q0 246 -244 246h-126v-493z" />
    <glyph glyph-name="uni018F" unicode="&#x18f;" horiz-adv-x="785" 
d="M400 -10q-114 0 -191 46.5t-116 129.5t-39 193v47h541q-13 97 -74 148t-166 51q-67 0 -122 -17t-105 -54l-45 98q53 40 126 61.5t161 21.5q110 0 191 -44t126 -125t45 -194q0 -111 -42 -192t-116.5 -125.5t-173.5 -44.5zM394 96q86 0 138.5 52.5t62.5 153.5h-408
q20 -206 207 -206z" />
    <glyph glyph-name="florin" unicode="&#x192;" 
d="M32 -190v99h57q37 0 60.5 20.5t33.5 70.5l84 395h-109v94h129l8 39q20 89 73 138t139 49h60v-100h-47q-43 0 -67 -20.5t-35 -70.5l-7 -35h114v-94h-134l-86 -399q-19 -89 -71.5 -137.5t-135.5 -48.5h-66z" />
    <glyph glyph-name="Ohorn" unicode="&#x1a0;" horiz-adv-x="785" 
d="M393 -10q-102 0 -178.5 45t-118.5 126.5t-42 191.5q0 111 42 192t118 125.5t179 44.5t179 -44.5t118 -125.5t42 -191q0 -111 -42 -192.5t-118 -126.5t-179 -45zM393 100q97 0 151 67t54 186q0 120 -53.5 186t-151.5 66q-97 0 -151 -66t-54 -186q0 -119 54 -186t151 -67z
M494 641l-44 68q19 -1 38.5 -2.5t32.5 -1.5q53 0 76 22.5t23 83.5v21h108v-37q0 -43 -18 -78t-50 -55.5t-74 -20.5h-92z" />
    <glyph glyph-name="ohorn" unicode="&#x1a1;" horiz-adv-x="576" 
d="M288 -10q-76 0 -132 31t-87 88.5t-31 135.5t31 135t87 88t132 31t132 -31t87 -88t31 -135t-31 -135.5t-87 -88.5t-132 -31zM288 85q56 0 90 40.5t34 119.5q0 80 -34 119.5t-90 39.5t-90 -39.5t-34 -119.5q0 -79 34 -119.5t90 -40.5zM418 425l-71 45v19q53 1 75.5 23.5
t22.5 82.5v21h108v-37q0 -64 -36.5 -106t-98.5 -48z" />
    <glyph glyph-name="Uhorn" unicode="&#x1af;" horiz-adv-x="738" 
d="M370 -10q-145 0 -221.5 75.5t-76.5 223.5v416h128v-415q0 -95 43.5 -142.5t126.5 -47.5q169 0 169 190v415h127v-416q0 -148 -75 -223.5t-221 -75.5zM644 641l-71 45v19q53 1 75.5 23.5t22.5 82.5v21h109v-37q0 -64 -36.5 -106t-99.5 -48z" />
    <glyph glyph-name="uhorn" unicode="&#x1b0;" horiz-adv-x="579" 
d="M242 -10q-180 0 -180 202v297h125v-299q0 -52 21 -77t67 -25q50 0 82 34.5t32 91.5v275h125v-489h-122v73q-49 -83 -150 -83zM492 425l-71 45v19q53 1 75.5 23.5t22.5 82.5v21h108v-37q0 -64 -36.5 -106t-98.5 -48z" />
    <glyph glyph-name="uni01B3" unicode="&#x1b3;" horiz-adv-x="619" 
d="M245 0v324l-271 381h149l188 -268l127 184q33 47 74 70t99 23q43 0 70 -11v-89q-20 7 -49 7q-24 0 -45.5 -11t-40.5 -37l-173 -250v-323h-128z" />
    <glyph glyph-name="uni01B4" unicode="&#x1b4;" horiz-adv-x="571" 
d="M364 384q22 53 60.5 84t106.5 31q20 0 39.5 -3t31.5 -8l-16 -93q-10 4 -19.5 5t-19.5 1q-28 0 -48.5 -16t-37.5 -55l-223 -510h-129l90 200l-203 469h133l137 -342z" />
    <glyph glyph-name="uni01C4" unicode="&#x1c4;" horiz-adv-x="1352" 
d="M77 0v705h262q177 0 273.5 -91t96.5 -261q0 -169 -96.5 -261t-273.5 -92h-262zM205 106h126q244 0 244 247q0 246 -244 246h-126v-493zM794 0v94l372 504h-372v107h522v-94l-372 -504h387v-107h-537zM1006 765l-124 174h88l90 -104l90 104h88l-124 -174h-108z" />
    <glyph glyph-name="uni01C5" unicode="&#x1c5;" horiz-adv-x="1236" 
d="M77 0v705h262q177 0 273.5 -91t96.5 -261q0 -169 -96.5 -261t-273.5 -92h-262zM205 106h126q244 0 244 247q0 246 -244 246h-126v-493zM811 0v81l252 314h-252v94h388v-81l-252 -314h263v-94h-399zM950 554l-110 203h80l85 -132l85 132h80l-110 -203h-110z" />
    <glyph glyph-name="uni01C6" unicode="&#x1c6;" horiz-adv-x="1074" 
d="M253 -10q-64 0 -112.5 31t-75.5 88.5t-27 135.5q0 79 27 135.5t75.5 87.5t112.5 31q52 0 94 -23t63 -61v290h125v-705h-122v81q-20 -42 -63 -66.5t-97 -24.5zM288 85q56 0 90 40.5t34 119.5q0 80 -34 119.5t-90 39.5t-90 -39.5t-34 -119.5q0 -79 34 -119.5t90 -40.5z
M649 0v81l252 314h-252v94h388v-81l-252 -314h263v-94h-399zM788 554l-110 203h80l85 -132l85 132h80l-110 -203h-110z" />
    <glyph glyph-name="uni01C7" unicode="&#x1c7;" horiz-adv-x="957" 
d="M77 0v705h128v-596h338v-109h-466zM601 -9l-9 105l71 4q89 6 89 98v507h128v-506q0 -190 -197 -204z" />
    <glyph glyph-name="uni01C8" unicode="&#x1c8;" horiz-adv-x="821" 
d="M77 0v705h128v-596h338v-109h-466zM623 594v122h140v-122h-140zM517 -193l-9 91l46 5q77 9 77 90v496h125v-480q0 -98 -45 -144.5t-151 -54.5z" />
    <glyph glyph-name="uni01C9" unicode="&#x1c9;" horiz-adv-x="578" 
d="M235 -10q-87 0 -128.5 47.5t-41.5 139.5v528h125v-522q0 -90 76 -90q11 0 22 1t21 4l-2 -99q-36 -9 -72 -9zM380 594v122h140v-122h-140zM274 -193l-9 91l46 5q77 9 77 90v496h125v-480q0 -98 -45 -144.5t-151 -54.5z" />
    <glyph glyph-name="uni01CA" unicode="&#x1ca;" horiz-adv-x="1103" 
d="M77 0v705h96l379 -492v492h119v-705h-95l-380 494v-494h-119zM747 -9l-9 105l71 4q89 6 89 98v507h128v-506q0 -190 -197 -204z" />
    <glyph glyph-name="uni01CB" unicode="&#x1cb;" horiz-adv-x="1007" 
d="M77 0v705h96l379 -492v492h119v-705h-95l-380 494v-494h-119zM809 594v122h140v-122h-140zM703 -193l-9 91l46 5q77 9 77 90v496h125v-480q0 -98 -45 -144.5t-151 -54.5z" />
    <glyph glyph-name="uni01CC" unicode="&#x1cc;" horiz-adv-x="844" 
d="M65 0v489h122v-76q25 42 67.5 64t95.5 22q173 0 173 -201v-298h-125v292q0 57 -21.5 83t-66.5 26q-55 0 -87.5 -34.5t-32.5 -91.5v-275h-125zM646 594v122h140v-122h-140zM540 -193l-9 91l46 5q77 9 77 90v496h125v-480q0 -98 -45 -144.5t-151 -54.5z" />
    <glyph glyph-name="uni01CD" unicode="&#x1cd;" horiz-adv-x="744" 
d="M1 0l319 705h105l319 -705h-130l-70 163h-344l-69 -163h-130zM371 566l-127 -301h256l-127 301h-2zM319 765l-124 174h88l90 -104l90 104h88l-124 -174h-108z" />
    <glyph glyph-name="uni01CE" unicode="&#x1ce;" horiz-adv-x="547" 
d="M226 -10q-53 0 -94.5 20.5t-65 55.5t-23.5 79q0 54 28 85.5t91 45.5t169 14h35v21q0 50 -22 72t-74 22q-41 0 -84 -12.5t-87 -38.5l-36 85q26 18 61.5 31.5t75 21t74.5 7.5q107 0 159 -49.5t52 -153.5v-296h-117v78q-17 -41 -54 -64.5t-88 -23.5zM252 76q49 0 81.5 34
t32.5 86v22h-34q-94 0 -130.5 -14.5t-36.5 -52.5q0 -33 23 -54t64 -21zM224 554l-110 203h80l85 -132l85 132h80l-110 -203h-110z" />
    <glyph glyph-name="uni01D4" unicode="&#x1d4;" horiz-adv-x="579" 
d="M242 -10q-180 0 -180 202v297h125v-299q0 -52 21 -77t67 -25q50 0 82 34.5t32 91.5v275h125v-489h-122v73q-49 -83 -150 -83zM234 555l-110 203h80l85 -132l85 132h80l-110 -203h-110z" />
    <glyph glyph-name="uni01E5" unicode="&#x1e5;" horiz-adv-x="604" 
d="M293 -190q-68 0 -127.5 15.5t-104.5 47.5l36 87q42 -28 90 -41.5t96 -13.5q72 0 106 38h-98v78h126v13v99q-20 -41 -63 -65.5t-97 -24.5q-65 0 -114.5 29.5t-77 81.5t-27.5 117q0 66 27.5 117.5t77 81t114.5 29.5q54 0 97 -24.5t63 -65.5v80h122v-440q0 -14 -1 -28h60
v-78h-75q-50 -133 -230 -133zM290 138q56 0 90.5 37t34.5 96t-34.5 96t-90.5 37t-91 -36.5t-35 -96.5t35.5 -96.5t90.5 -36.5z" />
    <glyph glyph-name="Gcaron" unicode="&#x1e6;" horiz-adv-x="736" 
d="M416 -10q-117 0 -197.5 44t-122.5 125t-42 192q0 112 43 193.5t124 126t194 44.5q74 0 139 -21.5t108 -59.5l-43 -100q-47 37 -96 53t-108 16q-112 0 -169.5 -65t-57.5 -187q0 -123 59 -187t175 -64q33 0 67.5 5.5t68.5 16.5v164h-162v95h269v-339q-49 -24 -116 -38
t-133 -14zM347 765l-124 174h88l90 -104l90 104h88l-124 -174h-108z" />
    <glyph glyph-name="gcaron" unicode="&#x1e7;" horiz-adv-x="604" 
d="M293 -190q-68 0 -127.5 15.5t-104.5 47.5l36 87q42 -28 90 -41.5t96 -13.5q134 0 134 129v67q-21 -41 -64.5 -65t-96.5 -24q-66 0 -115 30.5t-76 85.5t-27 128t27 127.5t76 85t115 30.5q55 0 98 -24.5t63 -65.5v80h122v-440q0 -119 -63 -179t-183 -60zM290 107
q58 0 92 40t34 109t-34 108.5t-92 39.5t-92 -39.5t-34 -108.5t34 -109t92 -40zM247 554l-110 203h80l85 -132l85 132h80l-110 -203h-110z" />
    <glyph glyph-name="uni01E9" unicode="&#x1e9;" horiz-adv-x="536" 
d="M65 0v705h125v-424h2l197 208h151l-222 -234l236 -255h-153l-209 218h-2v-218h-125zM240 765l-124 174h88l90 -104l90 104h88l-124 -174h-108z" />
    <glyph glyph-name="uni01EA" unicode="&#x1ea;" horiz-adv-x="785" 
d="M393 -10q-102 0 -178.5 45t-118.5 126.5t-42 191.5q0 111 42 192t118 125.5t179 44.5t179 -44.5t118 -125.5t42 -191q0 -111 -42 -192.5t-118 -126.5t-179 -45zM393 100q97 0 151 67t54 186q0 120 -53.5 186t-151.5 66q-97 0 -151 -66t-54 -186q0 -119 54 -186t151 -67z
M431 -195q-55 0 -86.5 28t-31.5 76q0 42 28 78t74 55l37 -42q-25 -10 -42.5 -30.5t-17.5 -46.5q0 -25 16 -38t40 -13q14 0 27 3t27 8l15 -61q-37 -17 -86 -17z" />
    <glyph glyph-name="uni01EB" unicode="&#x1eb;" horiz-adv-x="576" 
d="M288 -10q-76 0 -132 31t-87 88.5t-31 135.5t31 135t87 88t132 31t132 -31t87 -88t31 -135t-31 -135.5t-87 -88.5t-132 -31zM288 85q56 0 90 40.5t34 119.5q0 80 -34 119.5t-90 39.5t-90 -39.5t-34 -119.5q0 -79 34 -119.5t90 -40.5zM326 -195q-55 0 -86.5 28t-31.5 76
q0 42 28 78t74 55l37 -42q-25 -10 -42.5 -30.5t-17.5 -46.5q0 -25 16 -38t40 -13q14 0 27 3t27 8l15 -61q-37 -17 -86 -17z" />
    <glyph glyph-name="uni01EF" unicode="&#x1ef;" horiz-adv-x="516" 
d="M233 -190q-141 0 -224 60l37 87q70 -52 172 -52q73 0 109 30.5t36 88.5q0 53 -36 81.5t-106 28.5h-97v59l191 198h-283v98h424v-84l-178 -186q98 -2 153.5 -51.5t55.5 -135.5q0 -102 -68.5 -162t-185.5 -60zM189 554l-110 203h80l85 -132l85 132h80l-110 -203h-110z" />
    <glyph glyph-name="Aringacute" unicode="&#x1fa;" horiz-adv-x="744" 
d="M1 0l319 705h105l319 -705h-130l-70 163h-344l-69 -163h-130zM371 566l-127 -301h256l-127 301h-2zM373 755q-51 0 -86 34.5t-35 83.5q0 50 35 83.5t86 33.5q35 0 64 -17l65 60h100l-122 -105q14 -25 14 -55q0 -49 -35 -83.5t-86 -34.5zM373 807q29 0 47 19t18 47
t-18 46.5t-47 18.5q-28 0 -46.5 -18.5t-18.5 -46.5t18.5 -47t46.5 -19z" />
    <glyph glyph-name="aringacute" unicode="&#x1fb;" horiz-adv-x="547" 
d="M226 -10q-53 0 -94.5 20.5t-65 55.5t-23.5 79q0 54 28 85.5t91 45.5t169 14h35v21q0 50 -22 72t-74 22q-41 0 -84 -12.5t-87 -38.5l-36 85q26 18 61.5 31.5t75 21t74.5 7.5q107 0 159 -49.5t52 -153.5v-296h-117v78q-17 -41 -54 -64.5t-88 -23.5zM252 76q49 0 81.5 34
t32.5 86v22h-34q-94 0 -130.5 -14.5t-36.5 -52.5q0 -33 23 -54t64 -21zM279 541q-51 0 -86 34t-35 83q0 50 35 84t86 34q18 0 34 -5t30 -13l65 60h100l-122 -104q14 -26 14 -56q0 -49 -35 -83t-86 -34zM279 594q29 0 47 18t18 46q0 29 -18 47t-47 18q-28 0 -46.5 -18
t-18.5 -47q0 -28 18.5 -46t46.5 -18z" />
    <glyph glyph-name="AEacute" unicode="&#x1fc;" horiz-adv-x="992" 
d="M-36 0l438 705h539v-102h-401l42 -194h338v-102h-315l44 -205h292v-102h-385l-35 163h-324l-97 -163h-136zM433 562l-177 -297h243l-64 297h-2zM444 765l118 174h130l-159 -174h-89z" />
    <glyph glyph-name="aeacute" unicode="&#x1fd;" horiz-adv-x="865" 
d="M236 -10q-58 0 -101.5 20.5t-67.5 55.5t-24 79q0 54 28 85.5t91.5 45.5t171.5 14h32v21q0 50 -22.5 72t-72.5 22q-42 0 -85 -12t-87 -39l-36 85q26 18 61.5 31.5t75 21t75.5 7.5q123 0 167 -77q29 38 74.5 57.5t92.5 19.5q102 0 162 -66t60 -180v-35h-344
q13 -133 146 -133q85 0 155 53l35 -85q-35 -29 -87.5 -46t-104.5 -17q-74 0 -130 27t-85 82q-22 -52 -68.5 -80.5t-111.5 -28.5zM612 414q-52 0 -84.5 -32t-39.5 -92h239q-4 60 -33 92t-82 32zM253 76q50 0 81.5 34.5t31.5 89.5v18h-34q-94 0 -130.5 -14.5t-36.5 -52.5
q0 -33 23 -54t65 -21zM373 554l103 203h123l-142 -203h-84z" />
    <glyph glyph-name="Oslashacute" unicode="&#x1fe;" horiz-adv-x="785" 
d="M393 -10q-102 0 -178.5 45t-118.5 126.5t-42 191.5q0 111 42 192t118 125.5t179 44.5t179 -44.5t118 -125.5t42 -191q0 -111 -42 -192.5t-118 -126.5t-179 -45zM393 100q97 0 151 67t54 186q0 120 -53.5 186t-151.5 66q-97 0 -151 -66t-54 -186q0 -119 54 -186t151 -67z
M209 -60l-84 49l64 109l36 60l263 451l26 48l63 108l84 -49l-64 -109l-36 -60l-263 -450l-26 -48zM348 765l118 174h130l-159 -174h-89z" />
    <glyph glyph-name="oslashacute" unicode="&#x1ff;" horiz-adv-x="576" 
d="M156 -59l-69 40l36 62q-40 33 -62.5 84.5t-22.5 117.5q0 78 31 135t87 88t132 31q51 0 94 -15l38 65l69 -40l-37 -63q41 -33 63.5 -84t22.5 -117q0 -78 -31 -135.5t-87 -88.5t-132 -31q-51 0 -95 15zM164 245q0 -59 20 -98l147 250q-20 7 -43 7q-56 0 -90 -39.5
t-34 -119.5zM288 85q56 0 90 40.5t34 119.5q0 59 -20 98l-147 -251q19 -7 43 -7zM246 554l103 203h123l-142 -203h-84z" />
    <glyph glyph-name="uni0200" unicode="&#x200;" horiz-adv-x="744" 
d="M1 0l319 705h105l319 -705h-130l-70 163h-344l-69 -163h-130zM371 566l-127 -301h256l-127 301h-2zM411 765l-126 174h112l85 -174h-71zM265 765l-136 174h112l94 -174h-70z" />
    <glyph glyph-name="uni0201" unicode="&#x201;" horiz-adv-x="547" 
d="M226 -10q-53 0 -94.5 20.5t-65 55.5t-23.5 79q0 54 28 85.5t91 45.5t169 14h35v21q0 50 -22 72t-74 22q-41 0 -84 -12.5t-87 -38.5l-36 85q26 18 61.5 31.5t75 21t74.5 7.5q107 0 159 -49.5t52 -153.5v-296h-117v78q-17 -41 -54 -64.5t-88 -23.5zM252 76q49 0 81.5 34
t32.5 86v22h-34q-94 0 -130.5 -14.5t-36.5 -52.5q0 -33 23 -54t64 -21zM322 554l-88 203h105l49 -203h-66zM174 554l-89 203h105l50 -203h-66z" />
    <glyph glyph-name="uni0202" unicode="&#x202;" horiz-adv-x="744" 
d="M1 0l319 705h105l319 -705h-130l-70 163h-344l-69 -163h-130zM371 566l-127 -301h256l-127 301h-2zM262 760l-71 9q5 79 55 124.5t127 45.5q78 0 127.5 -45.5t55.5 -124.5l-71 -9q-4 50 -34 77.5t-78 27.5q-49 0 -77.5 -27.5t-33.5 -77.5z" />
    <glyph glyph-name="uni0203" unicode="&#x203;" horiz-adv-x="547" 
d="M226 -10q-53 0 -94.5 20.5t-65 55.5t-23.5 79q0 54 28 85.5t91 45.5t169 14h35v21q0 50 -22 72t-74 22q-41 0 -84 -12.5t-87 -38.5l-36 85q26 18 61.5 31.5t75 21t74.5 7.5q107 0 159 -49.5t52 -153.5v-296h-117v78q-17 -41 -54 -64.5t-88 -23.5zM252 76q49 0 81.5 34
t32.5 86v22h-34q-94 0 -130.5 -14.5t-36.5 -52.5q0 -33 23 -54t64 -21zM184 551l-71 6q3 89 48 141.5t118 52.5q74 0 119 -52.5t47 -141.5l-71 -6q-4 59 -28.5 91.5t-66.5 32.5t-66.5 -32.5t-28.5 -91.5z" />
    <glyph glyph-name="uni0204" unicode="&#x204;" horiz-adv-x="597" 
d="M77 0v705h469v-102h-346v-194h324v-102h-324v-205h346v-102h-469zM366 765l-126 174h112l85 -174h-71zM220 765l-136 174h112l94 -174h-70z" />
    <glyph glyph-name="uni0205" unicode="&#x205;" horiz-adv-x="542" 
d="M306 -10q-83 0 -143 31t-92.5 88t-32.5 135q0 76 31.5 133t87 89.5t126.5 32.5q104 0 164.5 -66t60.5 -180v-37h-350q14 -131 150 -131q41 0 82 12.5t75 39.5l35 -84q-35 -29 -88 -46t-106 -17zM288 414q-55 0 -89 -34t-41 -92h246q-4 61 -33.5 93.5t-82.5 32.5zM327 554
l-88 203h105l49 -203h-66zM179 554l-89 203h105l50 -203h-66z" />
    <glyph glyph-name="uni0206" unicode="&#x206;" horiz-adv-x="597" 
d="M77 0v705h469v-102h-346v-194h324v-102h-324v-205h346v-102h-469zM217 760l-71 9q5 79 55 124.5t127 45.5q78 0 127.5 -45.5t55.5 -124.5l-71 -9q-4 50 -34 77.5t-78 27.5q-49 0 -77.5 -27.5t-33.5 -77.5z" />
    <glyph glyph-name="uni0207" unicode="&#x207;" horiz-adv-x="542" 
d="M306 -10q-83 0 -143 31t-92.5 88t-32.5 135q0 76 31.5 133t87 89.5t126.5 32.5q104 0 164.5 -66t60.5 -180v-37h-350q14 -131 150 -131q41 0 82 12.5t75 39.5l35 -84q-35 -29 -88 -46t-106 -17zM288 414q-55 0 -89 -34t-41 -92h246q-4 61 -33.5 93.5t-82.5 32.5zM189 551
l-71 6q3 89 48 141.5t118 52.5q74 0 119 -52.5t47 -141.5l-71 -6q-4 59 -28.5 91.5t-66.5 32.5t-66.5 -32.5t-28.5 -91.5z" />
    <glyph glyph-name="uni0208" unicode="&#x208;" horiz-adv-x="281" 
d="M77 0v705h128v-705h-128zM179 765l-126 174h112l85 -174h-71zM33 765l-136 174h112l94 -174h-70z" />
    <glyph glyph-name="uni0209" unicode="&#x209;" horiz-adv-x="255" 
d="M65 0v489h125v-489h-125zM170 554l-88 203h105l49 -203h-66zM22 554l-89 203h105l50 -203h-66z" />
    <glyph glyph-name="uni020A" unicode="&#x20a;" horiz-adv-x="281" 
d="M77 0v705h128v-705h-128zM30 760l-71 9q5 79 55 124.5t127 45.5q78 0 127.5 -45.5t55.5 -124.5l-71 -9q-4 50 -34 77.5t-78 27.5q-49 0 -77.5 -27.5t-33.5 -77.5z" />
    <glyph glyph-name="uni020B" unicode="&#x20b;" horiz-adv-x="255" 
d="M65 0v489h125v-489h-125zM32 551l-71 6q3 89 48 141.5t118 52.5q74 0 119 -52.5t47 -141.5l-71 -6q-4 59 -28.5 91.5t-66.5 32.5t-66.5 -32.5t-28.5 -91.5z" />
    <glyph glyph-name="uni020C" unicode="&#x20c;" horiz-adv-x="785" 
d="M393 -10q-102 0 -178.5 45t-118.5 126.5t-42 191.5q0 111 42 192t118 125.5t179 44.5t179 -44.5t118 -125.5t42 -191q0 -111 -42 -192.5t-118 -126.5t-179 -45zM393 100q97 0 151 67t54 186q0 120 -53.5 186t-151.5 66q-97 0 -151 -66t-54 -186q0 -119 54 -186t151 -67z
M430 765l-126 174h112l85 -174h-71zM284 765l-136 174h112l94 -174h-70z" />
    <glyph glyph-name="uni020D" unicode="&#x20d;" horiz-adv-x="576" 
d="M288 -10q-76 0 -132 31t-87 88.5t-31 135.5t31 135t87 88t132 31t132 -31t87 -88t31 -135t-31 -135.5t-87 -88.5t-132 -31zM288 85q56 0 90 40.5t34 119.5q0 80 -34 119.5t-90 39.5t-90 -39.5t-34 -119.5q0 -79 34 -119.5t90 -40.5zM331 554l-88 203h105l49 -203h-66z
M183 554l-89 203h105l50 -203h-66z" />
    <glyph glyph-name="uni020E" unicode="&#x20e;" horiz-adv-x="785" 
d="M393 -10q-102 0 -178.5 45t-118.5 126.5t-42 191.5q0 111 42 192t118 125.5t179 44.5t179 -44.5t118 -125.5t42 -191q0 -111 -42 -192.5t-118 -126.5t-179 -45zM393 100q97 0 151 67t54 186q0 120 -53.5 186t-151.5 66q-97 0 -151 -66t-54 -186q0 -119 54 -186t151 -67z
M281 760l-71 9q5 79 55 124.5t127 45.5q78 0 127.5 -45.5t55.5 -124.5l-71 -9q-4 50 -34 77.5t-78 27.5q-49 0 -77.5 -27.5t-33.5 -77.5z" />
    <glyph glyph-name="uni020F" unicode="&#x20f;" horiz-adv-x="576" 
d="M288 -10q-76 0 -132 31t-87 88.5t-31 135.5t31 135t87 88t132 31t132 -31t87 -88t31 -135t-31 -135.5t-87 -88.5t-132 -31zM288 85q56 0 90 40.5t34 119.5q0 80 -34 119.5t-90 39.5t-90 -39.5t-34 -119.5q0 -79 34 -119.5t90 -40.5zM193 551l-71 6q3 89 48 141.5
t118 52.5q74 0 119 -52.5t47 -141.5l-71 -6q-4 59 -28.5 91.5t-66.5 32.5t-66.5 -32.5t-28.5 -91.5z" />
    <glyph glyph-name="uni0210" unicode="&#x210;" horiz-adv-x="686" 
d="M77 0v705h306q116 0 179 -55.5t63 -155.5q0 -79 -41 -130.5t-118 -69.5q51 -16 84 -77l118 -217h-141l-122 225q-18 33 -42.5 45t-62.5 12h-95v-282h-128zM205 377h156q140 0 140 114q0 113 -140 113h-156v-227zM386 765l-126 174h112l85 -174h-71zM240 765l-136 174h112
l94 -174h-70z" />
    <glyph glyph-name="uni0211" unicode="&#x211;" horiz-adv-x="392" 
d="M65 0v489h122v-86q36 87 154 96l38 3l8 -106l-72 -7q-123 -12 -123 -126v-263h-127zM270 554l-88 203h105l49 -203h-66zM122 554l-89 203h105l50 -203h-66z" />
    <glyph glyph-name="uni0212" unicode="&#x212;" horiz-adv-x="686" 
d="M77 0v705h306q116 0 179 -55.5t63 -155.5q0 -79 -41 -130.5t-118 -69.5q51 -16 84 -77l118 -217h-141l-122 225q-18 33 -42.5 45t-62.5 12h-95v-282h-128zM205 377h156q140 0 140 114q0 113 -140 113h-156v-227zM237 760l-71 9q5 79 55 124.5t127 45.5q78 0 127.5 -45.5
t55.5 -124.5l-71 -9q-4 50 -34 77.5t-78 27.5q-49 0 -77.5 -27.5t-33.5 -77.5z" />
    <glyph glyph-name="uni0213" unicode="&#x213;" horiz-adv-x="392" 
d="M65 0v489h122v-86q36 87 154 96l38 3l8 -106l-72 -7q-123 -12 -123 -126v-263h-127zM132 551l-71 6q3 89 48 141.5t118 52.5q74 0 119 -52.5t47 -141.5l-71 -6q-4 59 -28.5 91.5t-66.5 32.5t-66.5 -32.5t-28.5 -91.5z" />
    <glyph glyph-name="uni0214" unicode="&#x214;" horiz-adv-x="738" 
d="M370 -10q-145 0 -221.5 75.5t-76.5 223.5v416h128v-415q0 -95 43.5 -142.5t126.5 -47.5q169 0 169 190v415h127v-416q0 -148 -75 -223.5t-221 -75.5zM408 765l-126 174h112l85 -174h-71zM262 765l-136 174h112l94 -174h-70z" />
    <glyph glyph-name="uni0215" unicode="&#x215;" horiz-adv-x="579" 
d="M242 -10q-180 0 -180 202v297h125v-299q0 -52 21 -77t67 -25q50 0 82 34.5t32 91.5v275h125v-489h-122v73q-49 -83 -150 -83zM332 555l-88 203h105l49 -203h-66zM184 555l-89 203h105l50 -203h-66z" />
    <glyph glyph-name="uni0216" unicode="&#x216;" horiz-adv-x="738" 
d="M370 -10q-145 0 -221.5 75.5t-76.5 223.5v416h128v-415q0 -95 43.5 -142.5t126.5 -47.5q169 0 169 190v415h127v-416q0 -148 -75 -223.5t-221 -75.5zM259 760l-71 9q5 79 55 124.5t127 45.5q78 0 127.5 -45.5t55.5 -124.5l-71 -9q-4 50 -34 77.5t-78 27.5
q-49 0 -77.5 -27.5t-33.5 -77.5z" />
    <glyph glyph-name="uni0217" unicode="&#x217;" horiz-adv-x="579" 
d="M242 -10q-180 0 -180 202v297h125v-299q0 -52 21 -77t67 -25q50 0 82 34.5t32 91.5v275h125v-489h-122v73q-49 -83 -150 -83zM194 552l-71 6q3 89 48 141.5t118 52.5q74 0 119 -52.5t47 -141.5l-71 -6q-4 59 -28.5 91.5t-66.5 32.5t-66.5 -32.5t-28.5 -91.5z" />
    <glyph glyph-name="uni0218" unicode="&#x218;" horiz-adv-x="631" 
d="M320 -10q-83 0 -154 21.5t-120 58.5l39 101q49 -35 107.5 -54t127.5 -19q79 0 115 26.5t36 68.5q0 35 -25.5 55t-87.5 33l-110 23q-188 40 -188 193q0 66 35 115t97 76t143 27q72 0 135 -21.5t105 -60.5l-39 -96q-83 70 -202 70q-69 0 -108 -29t-39 -76q0 -36 24 -57.5
t82 -33.5l109 -23q99 -21 147.5 -66t48.5 -120q0 -63 -34 -111t-96.5 -74.5t-147.5 -26.5zM331 -278l-47 32q18 18 26.5 35t10.5 36h-63v102h130v-67q0 -41 -13 -75.5t-44 -62.5z" />
    <glyph glyph-name="uni0219" unicode="&#x219;" horiz-adv-x="488" 
d="M244 -10q-62 0 -116 15t-90 43l32 82q37 -25 83 -38.5t92 -13.5q48 0 71.5 16.5t23.5 43.5q0 42 -62 54l-100 19q-127 24 -127 132q0 48 26.5 83t73.5 54t108 19q52 0 100 -14.5t82 -43.5l-34 -82q-29 24 -69.5 38t-77.5 14q-49 0 -72.5 -17t-23.5 -45q0 -44 57 -54
l100 -19q65 -12 98.5 -44t33.5 -86q0 -73 -57 -114.5t-152 -41.5zM252 -278l-47 32q18 18 26.5 35t10.5 36h-63v102h130v-67q0 -41 -13 -75.5t-44 -62.5z" />
    <glyph glyph-name="uni021A" unicode="&#x21a;" horiz-adv-x="621" 
d="M247 0v598h-242v107h612v-107h-242v-598h-128zM319 -278l-47 32q18 18 26.5 35t10.5 36h-63v102h130v-67q0 -41 -13 -75.5t-44 -62.5z" />
    <glyph glyph-name="uni021B" unicode="&#x21b;" horiz-adv-x="384" 
d="M289 -10q-194 0 -194 192v213h-94v94h94v146h125v-146h148v-94h-148v-206q0 -48 21 -72t68 -24q14 0 29 3.5t31 7.5l19 -92q-18 -10 -45.5 -16t-53.5 -6zM238 -278l-47 32q18 18 26.5 35t10.5 36h-63v102h130v-67q0 -41 -13 -75.5t-44 -62.5z" />
    <glyph glyph-name="uni021F" unicode="&#x21f;" horiz-adv-x="585" 
d="M65 0v705h125v-287q25 40 67 60.5t93 20.5q173 0 173 -201v-298h-125v292q0 57 -21.5 83t-66.5 26q-55 0 -87.5 -34.5t-32.5 -91.5v-275h-125zM240 765l-124 174h88l90 -104l90 104h88l-124 -174h-108z" />
    <glyph glyph-name="uni0226" unicode="&#x226;" horiz-adv-x="744" 
d="M1 0l319 705h105l319 -705h-130l-70 163h-344l-69 -163h-130zM371 566l-127 -301h256l-127 301h-2zM312 794v116h122v-116h-122z" />
    <glyph glyph-name="uni0227" unicode="&#x227;" horiz-adv-x="547" 
d="M226 -10q-53 0 -94.5 20.5t-65 55.5t-23.5 79q0 54 28 85.5t91 45.5t169 14h35v21q0 50 -22 72t-74 22q-41 0 -84 -12.5t-87 -38.5l-36 85q26 18 61.5 31.5t75 21t74.5 7.5q107 0 159 -49.5t52 -153.5v-296h-117v78q-17 -41 -54 -64.5t-88 -23.5zM252 76q49 0 81.5 34
t32.5 86v22h-34q-94 0 -130.5 -14.5t-36.5 -52.5q0 -33 23 -54t64 -21zM218 597v116h122v-116h-122z" />
    <glyph glyph-name="uni0228" unicode="&#x228;" horiz-adv-x="597" 
d="M77 0v705h469v-102h-346v-194h324v-102h-324v-205h346v-102h-469zM329 -195q-29 0 -56 5.5t-46 15.5l18 56q18 -8 35.5 -12.5t38.5 -4.5q54 0 54 30q0 23 -37 23q-10 0 -19 -1t-22 -5l-19 18l13 90h67l-10 -58q6 1 11 1q41 0 66 -19t25 -53q0 -39 -33 -62.5t-86 -23.5z
" />
    <glyph glyph-name="uni022A" unicode="&#x22a;" horiz-adv-x="785" 
d="M393 -10q-102 0 -178.5 45t-118.5 126.5t-42 191.5q0 111 42 192t118 125.5t179 44.5t179 -44.5t118 -125.5t42 -191q0 -111 -42 -192.5t-118 -126.5t-179 -45zM393 100q97 0 151 67t54 186q0 120 -53.5 186t-151.5 66q-97 0 -151 -66t-54 -186q0 -119 54 -186t151 -67z
M235 924v74h315v-74h-315zM240 787v88h116v-88h-116zM428 787v88h116v-88h-116z" />
    <glyph glyph-name="uni022B" unicode="&#x22b;" horiz-adv-x="576" 
d="M288 -10q-76 0 -132 31t-87 88.5t-31 135.5t31 135t87 88t132 31t132 -31t87 -88t31 -135t-31 -135.5t-87 -88.5t-132 -31zM288 85q56 0 90 40.5t34 119.5q0 80 -34 119.5t-90 39.5t-90 -39.5t-34 -119.5q0 -79 34 -119.5t90 -40.5zM130 708v74h316v-74h-316zM136 572v87
h116v-87h-116zM324 572v87h116v-87h-116z" />
    <glyph glyph-name="uni022C" unicode="&#x22c;" horiz-adv-x="785" 
d="M393 -10q-102 0 -178.5 45t-118.5 126.5t-42 191.5q0 111 42 192t118 125.5t179 44.5t179 -44.5t118 -125.5t42 -191q0 -111 -42 -192.5t-118 -126.5t-179 -45zM393 100q97 0 151 67t54 186q0 120 -53.5 186t-151.5 66q-97 0 -151 -66t-54 -186q0 -119 54 -186t151 -67z
M234 924v74h316v-74h-316zM459 767q-19 0 -36.5 6t-40.5 19q-19 11 -30.5 15t-21.5 4q-23 0 -35 -11t-17 -34l-58 3q4 54 33.5 81t72.5 27q17 0 34 -5.5t42 -19.5q19 -10 31 -14.5t22 -4.5q42 0 51 45l58 -3q-4 -54 -32.5 -81t-72.5 -27z" />
    <glyph glyph-name="uni022D" unicode="&#x22d;" horiz-adv-x="576" 
d="M288 -10q-76 0 -132 31t-87 88.5t-31 135.5t31 135t87 88t132 31t132 -31t87 -88t31 -135t-31 -135.5t-87 -88.5t-132 -31zM288 85q56 0 90 40.5t34 119.5q0 80 -34 119.5t-90 39.5t-90 -39.5t-34 -119.5q0 -79 34 -119.5t90 -40.5zM131 708v74h315v-74h-315zM174 550
l-58 3q4 54 33.5 81t72.5 27q16 0 34 -5.5t42 -19.5q14 -8 28 -13.5t25 -5.5q42 0 51 45l58 -3q-4 -54 -32.5 -81t-72.5 -27q-33 0 -77 25q-19 11 -31 15t-21 4q-23 0 -35 -11t-17 -34z" />
    <glyph glyph-name="uni0230" unicode="&#x230;" horiz-adv-x="785" 
d="M393 -10q-102 0 -178.5 45t-118.5 126.5t-42 191.5q0 111 42 192t118 125.5t179 44.5t179 -44.5t118 -125.5t42 -191q0 -111 -42 -192.5t-118 -126.5t-179 -45zM393 100q97 0 151 67t54 186q0 120 -53.5 186t-151.5 66q-97 0 -151 -66t-54 -186q0 -119 54 -186t151 -67z
M234 924v74h316v-74h-316zM334 787v88h116v-88h-116z" />
    <glyph glyph-name="uni0231" unicode="&#x231;" horiz-adv-x="576" 
d="M288 -10q-76 0 -132 31t-87 88.5t-31 135.5t31 135t87 88t132 31t132 -31t87 -88t31 -135t-31 -135.5t-87 -88.5t-132 -31zM288 85q56 0 90 40.5t34 119.5q0 80 -34 119.5t-90 39.5t-90 -39.5t-34 -119.5q0 -79 34 -119.5t90 -40.5zM130 708v74h316v-74h-316zM230 572v87
h116v-87h-116z" />
    <glyph glyph-name="uni0232" unicode="&#x232;" horiz-adv-x="618" 
d="M245 0v324l-271 381h149l188 -267l189 267h143l-270 -382v-323h-128zM137 806v74h345v-74h-345z" />
    <glyph glyph-name="uni0233" unicode="&#x233;" horiz-adv-x="526" 
d="M109 -180l90 200l-203 469h133l137 -342l140 342h126l-294 -669h-129zM107 616v74h315v-74h-315z" />
    <glyph glyph-name="uni0237" unicode="&#x237;" horiz-adv-x="259" 
d="M-45 -193l-9 91l46 5q77 9 77 90v496h125v-480q0 -98 -45 -144.5t-151 -54.5z" />
    <glyph glyph-name="uni0253" unicode="&#x253;" 
d="M347 -10q-54 0 -96.5 24t-63.5 65v-79h-122v522q0 89 49.5 141t147.5 52q35 0 65 -10l-14 -94q-13 3 -21 4t-19 1q-41 0 -62 -24.5t-21 -70.5v-104q22 37 63.5 59.5t93.5 22.5q65 0 113 -31t75 -87.5t27 -135.5q0 -78 -27 -135.5t-75.5 -88.5t-112.5 -31zM312 85
q56 0 90 40.5t34 119.5q0 80 -34 119.5t-90 39.5t-90 -39.5t-34 -119.5q0 -79 34 -119.5t90 -40.5z" />
    <glyph glyph-name="uni0257" unicode="&#x257;" 
d="M253 -10q-64 0 -112.5 31t-75.5 88.5t-27 135.5q0 79 27 135.5t75.5 87.5t112.5 31q52 0 94 -23t63 -61v107q0 89 49.5 141t147.5 52q16 0 34 -2.5t31 -7.5l-14 -94q-13 3 -21 4t-19 1q-37 0 -60 -22.5t-23 -72.5v-521h-122v81q-20 -42 -63 -66.5t-97 -24.5zM288 85
q56 0 90 40.5t34 119.5q0 80 -34 119.5t-90 39.5t-90 -39.5t-34 -119.5q0 -79 34 -119.5t90 -40.5z" />
    <glyph glyph-name="uni0259" unicode="&#x259;" horiz-adv-x="543" 
d="M264 -10q-108 0 -169 64.5t-61 183.5v35h351q-7 66 -44.5 98.5t-102.5 32.5q-84 0 -161 -52l-35 85q40 30 93 46t106 16q81 0 140.5 -31t91.5 -87.5t32 -134.5q0 -77 -31 -134.5t-85.5 -89.5t-124.5 -32zM261 75q51 0 84 32t40 94h-242q4 -64 34 -95t84 -31z" />
    <glyph glyph-name="uni0292" unicode="&#x292;" horiz-adv-x="516" 
d="M233 -190q-141 0 -224 60l37 87q70 -52 172 -52q73 0 109 30.5t36 88.5q0 53 -36 81.5t-106 28.5h-97v59l191 198h-283v98h424v-84l-178 -186q98 -2 153.5 -51.5t55.5 -135.5q0 -102 -68.5 -162t-185.5 -60z" />
    <glyph glyph-name="uni02B9" unicode="&#x2b9;" horiz-adv-x="242" 
d="M80 415l-31 290h145l-30 -290h-84z" />
    <glyph glyph-name="uni02BA" unicode="&#x2ba;" horiz-adv-x="447" 
d="M79 415l-30 290h145l-30 -290h-85zM284 415l-30 290h145l-30 -290h-85z" />
    <glyph glyph-name="uni02BB" unicode="&#x2bb;" horiz-adv-x="500" 
d="M185 564v68q0 40 12 73.5t44 61.5l47 -33q-18 -16 -25.5 -32.5t-9.5 -32.5h62v-105h-130z" />
    <glyph glyph-name="uni02BC" unicode="&#x2bc;" horiz-adv-x="350" 
d="M184 567l-47 32q18 16 25.5 32.5t9.5 32.5h-62v105h130v-67q0 -40 -12 -73t-44 -62z" />
    <glyph glyph-name="uni02BE" unicode="&#x2be;" horiz-adv-x="500" 
d="M250 552v55q22 0 35 14.5t13 34.5q0 21 -13 35.5t-35 14.5v55q46 0 76.5 -30.5t30.5 -74.5t-30.5 -74t-76.5 -30z" />
    <glyph glyph-name="uni02BF" unicode="&#x2bf;" horiz-adv-x="500" 
d="M250 552q-45 0 -75.5 30t-30.5 74t30.5 74.5t75.5 30.5v-55q-21 0 -34.5 -14.5t-13.5 -35.5q0 -20 13.5 -34.5t34.5 -14.5v-55z" />
    <glyph glyph-name="circumflex" unicode="&#x2c6;" horiz-adv-x="500" 
d="M85 554l110 203h110l110 -203h-80l-85 132l-85 -132h-80z" />
    <glyph glyph-name="caron" unicode="&#x2c7;" horiz-adv-x="500" 
d="M195 554l-110 203h80l85 -132l85 132h80l-110 -203h-110z" />
    <glyph glyph-name="uni02C8" unicode="&#x2c8;" horiz-adv-x="500" 
d="M210 594v203h80v-203h-80z" />
    <glyph glyph-name="uni02C9" unicode="&#x2c9;" horiz-adv-x="500" 
d="M93 616v74h315v-74h-315z" />
    <glyph glyph-name="uni02CA" unicode="&#x2ca;" horiz-adv-x="500" 
d="M208 554l103 203h123l-142 -203h-84z" />
    <glyph glyph-name="fourthtofinechinese" unicode="&#x2cb;" horiz-adv-x="500" 
d="M208 554l-141 203h123l102 -203h-84z" />
    <glyph glyph-name="uni02CC" unicode="&#x2cc;" horiz-adv-x="500" 
d="M210 -270v203h80v-203h-80z" />
    <glyph glyph-name="breve" unicode="&#x2d8;" horiz-adv-x="500" 
d="M250 551q-73 0 -118 52t-48 141l71 7q4 -60 28.5 -92t66.5 -32t66.5 32t28.5 92l71 -7q-2 -89 -47 -141t-119 -52z" />
    <glyph glyph-name="dotaccent" unicode="&#x2d9;" horiz-adv-x="500" 
d="M189 597v116h122v-116h-122z" />
    <glyph glyph-name="ring" unicode="&#x2da;" horiz-adv-x="500" 
d="M250 546q-35 0 -64 16.5t-45.5 44.5t-16.5 62q0 52 36.5 87t89.5 35t89.5 -35t36.5 -87q0 -34 -16.5 -62t-45 -44.5t-64.5 -16.5zM250 603q29 0 47 19t18 47t-18 46.5t-47 18.5q-28 0 -46.5 -18.5t-18.5 -46.5t18.5 -47t46.5 -19z" />
    <glyph glyph-name="ogonek" unicode="&#x2db;" horiz-adv-x="500" 
d="M229 -195q-55 0 -86.5 28t-31.5 76q0 42 28 78t74 55l37 -42q-25 -10 -42.5 -30.5t-17.5 -46.5q0 -25 16 -38t40 -13q14 0 27 3t27 8l15 -61q-37 -17 -86 -17z" />
    <glyph glyph-name="tilde" unicode="&#x2dc;" horiz-adv-x="500" 
d="M118 584l-62 4q5 69 37 108.5t83 39.5q23 0 41.5 -9.5t42.5 -27.5q22 -16 35 -22.5t26 -6.5q51 0 61 70l62 -4q-4 -69 -36 -108.5t-83 -39.5q-21 0 -39.5 8t-45.5 29q-37 29 -60 29q-50 0 -62 -70z" />
    <glyph glyph-name="hungarumlaut" unicode="&#x2dd;" horiz-adv-x="500" 
d="M290 554l49 203h105l-88 -203h-66zM141 554l50 203h105l-89 -203h-66z" />
    <glyph glyph-name="gravecomb" unicode="&#x300;" horiz-adv-x="0" 
d="M-42 554l-141 203h123l102 -203h-84z" />
    <glyph glyph-name="acutecomb" unicode="&#x301;" horiz-adv-x="0" 
d="M-42 554l103 203h123l-142 -203h-84z" />
    <glyph glyph-name="uni0302" unicode="&#x302;" horiz-adv-x="0" 
d="M-165 554l110 203h110l110 -203h-80l-85 132l-85 -132h-80z" />
    <glyph glyph-name="tildecomb" unicode="&#x303;" horiz-adv-x="0" 
d="M-132 584l-62 4q5 69 37 108.5t83 39.5q23 0 41.5 -9.5t42.5 -27.5q22 -16 35 -22.5t26 -6.5q51 0 61 70l62 -4q-4 -69 -36 -108.5t-83 -39.5q-21 0 -39.5 8t-45.5 29q-37 29 -60 29q-50 0 -62 -70z" />
    <glyph glyph-name="uni0304" unicode="&#x304;" horiz-adv-x="0" 
d="M-157 616v74h315v-74h-315z" />
    <glyph glyph-name="uni0306" unicode="&#x306;" horiz-adv-x="0" 
d="M0 551q-73 0 -118 52t-48 141l71 7q4 -60 28.5 -92t66.5 -32t66.5 32t28.5 92l71 -7q-2 -89 -47 -141t-119 -52z" />
    <glyph glyph-name="uni0307" unicode="&#x307;" horiz-adv-x="0" 
d="M-61 597v116h122v-116h-122z" />
    <glyph glyph-name="uni0308" unicode="&#x308;" horiz-adv-x="0" 
d="M36 597v115h116v-115h-116zM-152 597v115h116v-115h-116z" />
    <glyph glyph-name="hookabovecomb" unicode="&#x309;" horiz-adv-x="0" 
d="M-38 554v21q0 21 8.5 35t19.5 24t19.5 20t8.5 23q0 25 -40 25q-31 0 -60 -15l-19 54q42 24 107 24q50 0 78.5 -18.5t28.5 -53.5q0 -25 -11.5 -40.5t-26 -26.5t-26 -23.5t-11.5 -32.5v-16h-76z" />
    <glyph glyph-name="uni030A" unicode="&#x30a;" horiz-adv-x="0" 
d="M0 546q-35 0 -64 16.5t-45.5 44.5t-16.5 62q0 52 36.5 87t89.5 35t89.5 -35t36.5 -87q0 -34 -16.5 -62t-45 -44.5t-64.5 -16.5zM0 603q29 0 47 19t18 47t-18 46.5t-47 18.5q-28 0 -46.5 -18.5t-18.5 -46.5t18.5 -47t46.5 -19z" />
    <glyph glyph-name="uni030B" unicode="&#x30b;" horiz-adv-x="0" 
d="M40 554l49 203h105l-88 -203h-66zM-109 554l50 203h105l-89 -203h-66z" />
    <glyph glyph-name="uni030C" unicode="&#x30c;" horiz-adv-x="0" 
d="M-55 554l-110 203h80l85 -132l85 132h80l-110 -203h-110z" />
    <glyph glyph-name="uni030F" unicode="&#x30f;" horiz-adv-x="0" 
d="M43 554l-88 203h105l49 -203h-66zM-105 554l-89 203h105l50 -203h-66z" />
    <glyph glyph-name="uni0311" unicode="&#x311;" horiz-adv-x="0" 
d="M-95 551l-71 6q3 89 48 141.5t118 52.5q74 0 119 -52.5t47 -141.5l-71 -6q-4 59 -28.5 91.5t-66.5 32.5t-66.5 -32.5t-28.5 -91.5z" />
    <glyph glyph-name="uni0312" unicode="&#x312;" horiz-adv-x="0" 
d="M-65 564v67q0 41 13 75.5t44 62.5l47 -32q-18 -18 -26.5 -35t-10.5 -36h63v-102h-130z" />
    <glyph glyph-name="uni031B" unicode="&#x31b;" horiz-adv-x="0" 
d="M71 425l-71 45v19q53 1 75.5 23.5t22.5 82.5v21h108v-37q0 -64 -36.5 -106t-98.5 -48z" />
    <glyph glyph-name="dotbelowcomb" unicode="&#x323;" horiz-adv-x="0" 
d="M-61 -204v116h122v-116h-122z" />
    <glyph glyph-name="uni0324" unicode="&#x324;" horiz-adv-x="0" 
d="M36 -193v115h116v-115h-116zM-152 -193v115h116v-115h-116z" />
    <glyph glyph-name="uni0326" unicode="&#x326;" horiz-adv-x="0" 
d="M8 -278l-47 32q18 18 26.5 35t10.5 36h-63v102h130v-67q0 -41 -13 -75.5t-44 -62.5z" />
    <glyph glyph-name="uni0327" unicode="&#x327;" horiz-adv-x="0" 
d="M1 -195q-29 0 -56 5.5t-46 15.5l18 56q18 -8 35.5 -12.5t38.5 -4.5q54 0 54 30q0 23 -37 23q-10 0 -19 -1t-22 -5l-19 18l13 90h67l-10 -58q6 1 11 1q41 0 66 -19t25 -53q0 -39 -33 -62.5t-86 -23.5z" />
    <glyph glyph-name="uni0328" unicode="&#x328;" horiz-adv-x="0" 
d="M-21 -195q-55 0 -86.5 28t-31.5 76q0 42 28 78t74 55l37 -42q-25 -10 -42.5 -30.5t-17.5 -46.5q0 -25 16 -38t40 -13q14 0 27 3t27 8l15 -61q-37 -17 -86 -17z" />
    <glyph glyph-name="uni032E" unicode="&#x32e;" horiz-adv-x="0" 
d="M0 -215q-73 0 -118 41.5t-48 111.5l71 7q4 -40 28.5 -63t66.5 -23t66.5 23t28.5 63l71 -7q-2 -70 -47 -111.5t-119 -41.5z" />
    <glyph glyph-name="uni0331" unicode="&#x331;" horiz-adv-x="0" 
d="M-157 -165v74h315v-74h-315z" />
    <glyph glyph-name="uni0335" unicode="&#x335;" horiz-adv-x="0" 
d="M-200 531v88h401v-88h-401z" />
    <glyph glyph-name="uni0337" unicode="&#x337;" horiz-adv-x="0" 
d="M-127 228l-48 84l303 176l48 -84z" />
    <glyph glyph-name="uni0338" unicode="&#x338;" horiz-adv-x="0" 
d="M-132 -58l-69 40l333 568l69 -40z" />
    <glyph glyph-name="uni0394" unicode="&#x394;" horiz-adv-x="744" 
d="M40 0v72l280 633h105l280 -633v-72h-665zM371 566l-197 -464h397l-198 464h-2z" />
    <glyph glyph-name="Sigma" unicode="&#x3a3;" 
d="M35 -180v90l261 353l-261 352v90h530v-106h-372l223 -302v-69l-223 -302h372v-106h-530z" />
    <glyph glyph-name="uni03A9" unicode="&#x3a9;" horiz-adv-x="799" 
d="M37 0v106h176q-86 56 -124.5 130.5t-38.5 166.5q0 97 45 167t124 107.5t181 37.5t181 -37.5t123.5 -107.5t44.5 -167q0 -92 -38 -166.5t-124 -130.5h175v-106h-309v101q162 117 162 285q0 105 -57.5 162t-157.5 57t-158 -57t-58 -162q0 -168 162 -285v-101h-309z" />
    <glyph glyph-name="uni03BC" unicode="&#x3bc;" horiz-adv-x="579" 
d="M62 -180v669h125v-298q0 -52 21 -77t67 -25q50 0 82 34.5t32 91.5v274h125v-489h-122v87q-15 -47 -47.5 -72t-72.5 -25q-32 0 -55.5 10.5t-38.5 35.5l9 -216h-125z" />
    <glyph glyph-name="pi" unicode="&#x3c0;" horiz-adv-x="618" 
d="M535 -8q-100 0 -144 54t-44 148v201h-123q-1 -120 -16 -214.5t-46 -180.5h-129q34 107 50 201t17 194h-96v94h577v-94h-109v-190q0 -57 21.5 -83.5t71.5 -26.5q10 0 21 1.5t23 3.5l-5 -102q-40 -6 -69 -6z" />
    <glyph glyph-name="uni0400" unicode="&#x400;" horiz-adv-x="597" 
d="M77 0v705h469v-102h-346v-194h324v-102h-324v-205h346v-102h-469zM284 765l-160 174h131l118 -174h-89z" />
    <glyph glyph-name="uni0401" unicode="&#x401;" horiz-adv-x="597" 
d="M77 0v705h469v-102h-346v-194h324v-102h-324v-205h346v-102h-469zM364 790v115h116v-115h-116zM176 790v115h116v-115h-116z" />
    <glyph glyph-name="uni0402" unicode="&#x402;" horiz-adv-x="870" 
d="M590 -190q-35 0 -67 5.5t-56 15.5l22 95q37 -14 87 -14q54 0 84 36.5t30 106.5v85q0 101 -46.5 146.5t-135.5 45.5q-77 0 -133 -30v-302h-128v598h-242v107h612v-107h-242v-185q25 13 65 21t82 8q143 0 219.5 -73.5t76.5 -222.5v-86q0 -121 -62 -185.5t-166 -64.5z" />
    <glyph glyph-name="uni0403" unicode="&#x403;" horiz-adv-x="559" 
d="M77 0v705h466v-107h-338v-598h-128zM236 765l118 174h130l-159 -174h-89z" />
    <glyph glyph-name="uni0404" unicode="&#x404;" horiz-adv-x="679" 
d="M405 -10q-110 0 -188.5 44.5t-120.5 126t-42 192.5t42 192t120.5 125.5t188.5 44.5q71 0 134.5 -22t104.5 -63l-42 -102q-45 38 -92 55.5t-101 17.5q-93 0 -148.5 -49.5t-68.5 -141.5h318v-102h-320q12 -101 68.5 -152.5t150.5 -51.5q54 0 101 17.5t92 55.5l42 -102
q-41 -40 -104.5 -62.5t-134.5 -22.5z" />
    <glyph glyph-name="uni0405" unicode="&#x405;" horiz-adv-x="631" 
d="M320 -10q-83 0 -154 21.5t-120 58.5l39 101q49 -35 107.5 -54t127.5 -19q79 0 115 26.5t36 68.5q0 35 -25.5 55t-87.5 33l-110 23q-188 40 -188 193q0 66 35 115t97 76t143 27q72 0 135 -21.5t105 -60.5l-39 -96q-83 70 -202 70q-69 0 -108 -29t-39 -76q0 -36 24 -57.5
t82 -33.5l109 -23q99 -21 147.5 -66t48.5 -120q0 -63 -34 -111t-96.5 -74.5t-147.5 -26.5z" />
    <glyph glyph-name="uni0406" unicode="&#x406;" horiz-adv-x="281" 
d="M77 0v705h128v-705h-128z" />
    <glyph glyph-name="uni0407" unicode="&#x407;" horiz-adv-x="281" 
d="M77 0v705h128v-705h-128zM177 790v115h116v-115h-116zM-11 790v115h116v-115h-116z" />
    <glyph glyph-name="uni0408" unicode="&#x408;" horiz-adv-x="355" 
d="M-1 -9l-9 105l71 4q89 6 89 98v507h128v-506q0 -190 -197 -204z" />
    <glyph glyph-name="uni0409" unicode="&#x409;" horiz-adv-x="1133" 
d="M77 -17l-63 95q40 23 70.5 53.5t51 77t31 115.5t10.5 167v214h488v-294h191q113 0 176.5 -52t63.5 -153q0 -100 -63.5 -153t-176.5 -53h-319v598h-242v-140q0 -135 -25.5 -228.5t-74.5 -152.5t-118 -94zM665 102h175q132 0 132 104q0 103 -132 103h-175v-207z" />
    <glyph glyph-name="uni040A" unicode="&#x40a;" horiz-adv-x="1164" 
d="M77 0v705h128v-294h363v294h128v-294h191q113 0 176.5 -52t63.5 -153q0 -100 -63.5 -153t-176.5 -53h-319v304h-363v-304h-128zM696 102h175q132 0 132 104q0 103 -132 103h-175v-207z" />
    <glyph glyph-name="uni040B" unicode="&#x40b;" horiz-adv-x="866" 
d="M247 0v598h-242v107h612v-107h-242v-185q27 14 69 21.5t84 7.5q138 0 212 -73.5t74 -222.5v-146h-128v140q0 101 -44.5 146.5t-127.5 45.5q-36 0 -72 -6.5t-67 -23.5v-302h-128z" />
    <glyph glyph-name="uni040C" unicode="&#x40c;" horiz-adv-x="675" 
d="M77 0v705h128v-299h100l189 299h141l-211 -322q40 -18 70.5 -50.5t54.5 -81.5l122 -251h-139l-94 203q-24 52 -57.5 74t-83.5 22h-92v-299h-128zM295 765l118 174h130l-159 -174h-89z" />
    <glyph glyph-name="uni040D" unicode="&#x40d;" horiz-adv-x="748" 
d="M77 0v705h119v-496l379 496h96v-705h-119v498l-380 -498h-95zM330 765l-160 174h131l118 -174h-89z" />
    <glyph glyph-name="uni040E" unicode="&#x40e;" horiz-adv-x="660" 
d="M181 0l109 213l-304 492h137l227 -374l191 374h132l-359 -705h-133zM333 760q-80 0 -130.5 38t-67.5 102l64 22q20 -49 52 -70.5t83 -21.5q52 0 83.5 22t53.5 69l62 -21q-23 -69 -75.5 -104.5t-124.5 -35.5z" />
    <glyph glyph-name="uni040F" unicode="&#x40f;" horiz-adv-x="767" 
d="M326 -165v165h-249v705h128v-598h357v598h128v-705h-250v-165h-114z" />
    <glyph glyph-name="uni0410" unicode="&#x410;" horiz-adv-x="744" 
d="M1 0l319 705h105l319 -705h-130l-70 163h-344l-69 -163h-130zM371 566l-127 -301h256l-127 301h-2z" />
    <glyph glyph-name="uni0411" unicode="&#x411;" horiz-adv-x="673" 
d="M77 0v705h490v-102h-367v-192h196q113 0 176.5 -52t63.5 -153q0 -100 -63.5 -153t-176.5 -53h-319zM200 102h180q132 0 132 104q0 103 -132 103h-180v-207z" />
    <glyph glyph-name="uni0412" unicode="&#x412;" horiz-adv-x="688" 
d="M77 0v705h308q111 0 172 -48.5t61 -134.5q0 -57 -29 -98t-80 -60q60 -17 93.5 -59.5t33.5 -107.5q0 -94 -63.5 -145.5t-176.5 -51.5h-319zM200 406h163q131 0 131 101t-131 101h-163v-202zM200 97h180q132 0 132 106t-132 106h-180v-212z" />
    <glyph glyph-name="uni0413" unicode="&#x413;" horiz-adv-x="559" 
d="M77 0v705h466v-107h-338v-598h-128z" />
    <glyph glyph-name="uni0414" unicode="&#x414;" horiz-adv-x="799" 
d="M14 -165v267h70q94 118 94 419v184h499v-603h100v-267h-114v165h-535v-165h-114zM214 102h334v501h-251v-94q0 -144 -20.5 -243t-62.5 -164z" />
    <glyph glyph-name="uni0415" unicode="&#x415;" horiz-adv-x="597" 
d="M77 0v705h469v-102h-346v-194h324v-102h-324v-205h346v-102h-469z" />
    <glyph glyph-name="uni0416" unicode="&#x416;" horiz-adv-x="1014" 
d="M4 0l122 251q47 98 125 132l-210 322h141l189 -299h75v299h123v-299h75l189 299h141l-211 -322q40 -18 70.5 -50.5t54.5 -81.5l122 -251h-138l-95 203q-25 52 -58 74t-83 22h-67v-299h-123v299h-67q-51 0 -84.5 -22.5t-57.5 -73.5l-94 -203h-139z" />
    <glyph glyph-name="uni0417" unicode="&#x417;" horiz-adv-x="634" 
d="M304 -10q-88 0 -156 22.5t-118 62.5l40 97q44 -36 99 -54.5t125 -18.5q83 0 122.5 27t39.5 82q0 99 -132 99h-171v101h154q131 0 131 97q0 47 -34.5 74.5t-108.5 27.5q-58 0 -112.5 -18t-97.5 -53l-40 96q47 40 116.5 61.5t147.5 21.5q128 0 192 -53.5t64 -139.5
q0 -57 -29.5 -98t-79.5 -60q59 -17 92.5 -59.5t33.5 -107.5q0 -94 -68 -150.5t-210 -56.5z" />
    <glyph glyph-name="uni0418" unicode="&#x418;" horiz-adv-x="748" 
d="M77 0v705h119v-496l379 496h96v-705h-119v498l-380 -498h-95z" />
    <glyph glyph-name="uni0419" unicode="&#x419;" horiz-adv-x="748" 
d="M77 0v705h119v-496l379 496h96v-705h-119v498l-380 -498h-95zM373 760q-80 0 -130.5 38t-67.5 102l64 22q20 -49 52 -70.5t83 -21.5q52 0 83.5 22t53.5 69l62 -21q-23 -69 -75.5 -104.5t-124.5 -35.5z" />
    <glyph glyph-name="uni041A" unicode="&#x41a;" horiz-adv-x="675" 
d="M77 0v705h128v-299h100l189 299h141l-211 -322q40 -18 70.5 -50.5t54.5 -81.5l122 -251h-139l-94 203q-24 52 -57.5 74t-83.5 22h-92v-299h-128z" />
    <glyph glyph-name="uni041B" unicode="&#x41b;" horiz-adv-x="752" 
d="M77 -17l-63 95q40 23 70.5 53.5t51 77t31 115.5t10.5 167v214h498v-705h-128v598h-252v-140q0 -135 -25.5 -228.5t-74.5 -152.5t-118 -94z" />
    <glyph glyph-name="uni041C" unicode="&#x41c;" horiz-adv-x="868" 
d="M79 0v705h107l250 -461l249 461h105v-705h-116v475l-202 -368h-75l-202 366v-473h-116z" />
    <glyph glyph-name="uni041D" unicode="&#x41d;" horiz-adv-x="773" 
d="M77 0v705h128v-294h363v294h128v-705h-128v304h-363v-304h-128z" />
    <glyph glyph-name="uni041E" unicode="&#x41e;" horiz-adv-x="785" 
d="M393 -10q-102 0 -178.5 45t-118.5 126.5t-42 191.5q0 111 42 192t118 125.5t179 44.5t179 -44.5t118 -125.5t42 -191q0 -111 -42 -192.5t-118 -126.5t-179 -45zM393 100q97 0 151 67t54 186q0 120 -53.5 186t-151.5 66q-97 0 -151 -66t-54 -186q0 -119 54 -186t151 -67z
" />
    <glyph glyph-name="uni041F" unicode="&#x41f;" horiz-adv-x="767" 
d="M77 0v705h613v-705h-128v598h-357v-598h-128z" />
    <glyph glyph-name="uni0420" unicode="&#x420;" horiz-adv-x="652" 
d="M77 0v705h306q116 0 179 -58t63 -162t-63 -162.5t-179 -58.5h-178v-264h-128zM205 365h158q138 0 138 120q0 119 -138 119h-158v-239z" />
    <glyph glyph-name="uni0421" unicode="&#x421;" horiz-adv-x="679" 
d="M405 -10q-110 0 -188.5 44.5t-120.5 126t-42 192.5t42 192t120.5 125.5t188.5 44.5q71 0 134.5 -22t104.5 -63l-42 -102q-45 38 -92 55.5t-101 17.5q-107 0 -163 -64.5t-56 -183.5t56 -184t163 -65q54 0 101 17.5t92 55.5l42 -102q-41 -40 -104.5 -62.5t-134.5 -22.5z
" />
    <glyph glyph-name="uni0422" unicode="&#x422;" horiz-adv-x="621" 
d="M247 0v598h-242v107h612v-107h-242v-598h-128z" />
    <glyph glyph-name="uni0423" unicode="&#x423;" horiz-adv-x="660" 
d="M181 0l109 213l-304 492h137l227 -374l191 374h132l-359 -705h-133z" />
    <glyph glyph-name="uni0424" unicode="&#x424;" horiz-adv-x="885" 
d="M378 -25v80q-151 2 -237.5 81t-86.5 222q0 146 86 224.5t238 78.5v74h129v-74q154 -2 239 -80.5t85 -222.5q0 -96 -39.5 -163.5t-112 -103.5t-172.5 -36v-80h-129zM514 563h-8v-410h8q80 0 133 52.5t53 152.5q0 103 -51.5 154t-134.5 51zM371 153h8v410h-8
q-82 0 -134 -51t-52 -154q0 -100 53 -152.5t133 -52.5z" />
    <glyph glyph-name="uni0425" unicode="&#x425;" horiz-adv-x="672" 
d="M-6 0l269 359l-259 346h149l183 -253l183 253h150l-259 -346l268 -359h-150l-192 264l-191 -264h-151z" />
    <glyph glyph-name="uni0426" unicode="&#x426;" horiz-adv-x="812" 
d="M676 -165v165h-599v705h128v-598h357v598h128v-598h100v-272h-114z" />
    <glyph glyph-name="uni0427" unicode="&#x427;" horiz-adv-x="697" 
d="M492 0v275q-27 -13 -69.5 -21t-84.5 -8q-137 0 -211 74t-74 222v163h128v-157q0 -100 43 -146t128 -46q36 0 72.5 7.5t67.5 23.5v318h128v-705h-128z" />
    <glyph glyph-name="uni0428" unicode="&#x428;" horiz-adv-x="1070" 
d="M77 0v705h126v-598h269v598h126v-598h269v598h126v-705h-916z" />
    <glyph glyph-name="uni0429" unicode="&#x429;" horiz-adv-x="1115" 
d="M979 -165v165h-902v705h126v-598h269v598h126v-598h269v598h126v-598h100v-272h-114z" />
    <glyph glyph-name="uni042A" unicode="&#x42a;" horiz-adv-x="806" 
d="M210 0v598h-205v107h334v-294h190q113 0 176.5 -52t63.5 -153q0 -100 -63.5 -153t-176.5 -53h-319zM339 102h175q132 0 132 104q0 103 -132 103h-175v-207z" />
    <glyph glyph-name="uni042B" unicode="&#x42b;" horiz-adv-x="901" 
d="M77 0v705h128v-294h161q113 0 176.5 -52t63.5 -153q0 -100 -63.5 -153t-176.5 -53h-289zM696 0v705h128v-705h-128zM205 102h145q132 0 132 104q0 103 -132 103h-145v-207z" />
    <glyph glyph-name="uni042C" unicode="&#x42c;" horiz-adv-x="673" 
d="M77 0v705h128v-294h191q113 0 176.5 -52t63.5 -153q0 -100 -63.5 -153t-176.5 -53h-319zM205 102h175q132 0 132 104q0 103 -132 103h-175v-207z" />
    <glyph glyph-name="uni042D" unicode="&#x42d;" horiz-adv-x="679" 
d="M274 -10q-71 0 -134.5 22.5t-104.5 62.5l42 102q45 -38 92 -55.5t101 -17.5q94 0 150.5 51.5t68.5 152.5h-320v102h318q-13 92 -67 141.5t-140 49.5q-54 0 -102 -16.5t-101 -56.5l-42 102q49 41 113.5 63t135.5 22q105 0 181.5 -44.5t118 -125.5t41.5 -192t-42 -192.5
t-120.5 -126t-188.5 -44.5z" />
    <glyph glyph-name="uni042E" unicode="&#x42e;" horiz-adv-x="1046" 
d="M663 -10q-92 0 -162 38.5t-112 109t-52 166.5h-132v-304h-128v705h128v-294h133q11 94 53.5 162t111.5 105t160 37q101 0 175 -44.5t114.5 -125.5t40.5 -192t-41 -192.5t-115 -126t-174 -44.5zM663 100q93 0 144.5 67t51.5 186q0 120 -51 186t-145 66q-93 0 -144.5 -66
t-51.5 -186q0 -119 51.5 -186t144.5 -67z" />
    <glyph glyph-name="uni042F" unicode="&#x42f;" horiz-adv-x="689" 
d="M30 0l118 217q32 59 80 76q-79 17 -122 69t-43 132q0 100 63 155.5t179 55.5h307v-705h-128v282h-86q-37 0 -61.5 -12t-42.5 -45l-123 -225h-141zM327 377h157v227h-157q-140 0 -140 -113q0 -114 140 -114z" />
    <glyph glyph-name="uni0430" unicode="&#x430;" horiz-adv-x="561" 
d="M233 -10q-53 0 -94.5 20.5t-65 55.5t-23.5 79q0 54 28 85.5t91 45.5t169 14h35v21q0 50 -22 72t-74 22q-41 0 -84 -12.5t-87 -38.5l-36 85q26 18 61.5 31.5t75 21t74.5 7.5q107 0 159 -49.5t52 -153.5v-296h-117v78q-17 -41 -54 -64.5t-88 -23.5zM259 76q49 0 81.5 34
t32.5 86v22h-34q-94 0 -130.5 -14.5t-36.5 -52.5q0 -33 23 -54t64 -21z" />
    <glyph glyph-name="uni0431" unicode="&#x431;" horiz-adv-x="590" 
d="M300 -10q-118 0 -186.5 72t-68.5 212v73q0 148 66 225.5t196 108.5l171 42l37 -99l-199 -47q-75 -18 -114 -66.5t-39 -122.5v-5q22 45 65.5 73t106.5 28q61 0 108.5 -29.5t74.5 -83.5t27 -129q0 -77 -30.5 -133.5t-85.5 -87.5t-129 -31zM295 85q59 0 91.5 39t32.5 113
q0 73 -32.5 112.5t-91.5 39.5q-58 0 -91 -39t-33 -108q0 -77 32.5 -117t91.5 -40z" />
    <glyph glyph-name="uni0432" unicode="&#x432;" horiz-adv-x="568" 
d="M71 0v489h264q95 0 136.5 -33.5t41.5 -94.5q0 -38 -21 -66t-58 -41q48 -11 72 -42t24 -75q0 -63 -48 -100t-139 -37h-272zM187 288h136q36 0 56 16.5t20 46.5t-20 45.5t-56 15.5h-136v-124zM187 77h145q84 0 84 67t-84 67h-145v-134z" />
    <glyph glyph-name="uni0433" unicode="&#x433;" horiz-adv-x="457" 
d="M71 0v489h370v-98h-245v-391h-125z" />
    <glyph glyph-name="uni0434" unicode="&#x434;" horiz-adv-x="618" 
d="M26 -130v228h56q29 46 41.5 105t12.5 147v139h381v-391h80v-228h-106v130h-359v-130h-106zM195 98h205v295h-157v-72q0 -63 -12.5 -122t-35.5 -101z" />
    <glyph glyph-name="uni0435" unicode="&#x435;" horiz-adv-x="556" 
d="M313 -10q-83 0 -143 31t-92.5 88t-32.5 135q0 76 31.5 133t87 89.5t126.5 32.5q104 0 164.5 -66t60.5 -180v-37h-350q14 -131 150 -131q41 0 82 12.5t75 39.5l35 -84q-35 -29 -88 -46t-106 -17zM295 414q-55 0 -89 -34t-41 -92h246q-4 61 -33.5 93.5t-82.5 32.5z" />
    <glyph glyph-name="uni0436" unicode="&#x436;" horiz-adv-x="826" 
d="M-6 0l103 182q19 34 38.5 56t43.5 33l-163 218h134l142 -190h59v190h125v-190h59l141 190h134l-162 -218q24 -12 43.5 -33.5t38.5 -55.5l102 -182h-133l-82 144q-19 35 -39 46.5t-52 11.5h-50v-202h-125v202h-50q-33 0 -52 -11.5t-39 -46.5l-82 -144h-134z" />
    <glyph glyph-name="uni0437" unicode="&#x437;" horiz-adv-x="519" 
d="M252 -10q-66 0 -124.5 15.5t-97.5 43.5l33 82q35 -25 85 -38t101 -13q62 0 90 15t28 47q0 60 -81 60h-130v90h118q36 0 55.5 15t19.5 42q0 29 -24.5 44.5t-83.5 15.5q-50 0 -92 -12t-79 -34l-33 80q86 56 225 56q98 0 149.5 -36.5t51.5 -101.5q0 -37 -21 -65.5t-57 -41.5
q46 -11 71 -41t25 -76q0 -67 -59 -107t-170 -40z" />
    <glyph glyph-name="uni0438" unicode="&#x438;" horiz-adv-x="604" 
d="M71 0v489h113v-326l245 326h104v-489h-113v326l-245 -326h-104z" />
    <glyph glyph-name="uni0439" unicode="&#x439;" horiz-adv-x="604" 
d="M71 0v489h113v-326l245 326h104v-489h-113v326l-245 -326h-104zM301 551q-73 0 -120 37.5t-62 101.5l64 22q17 -48 45.5 -70t73.5 -22q46 0 74 22.5t47 68.5l61 -21q-21 -69 -68.5 -104t-114.5 -35z" />
    <glyph glyph-name="uni043A" unicode="&#x43a;" horiz-adv-x="559" 
d="M71 0v489h125v-190h71l142 190h134l-160 -219q23 -12 41.5 -33.5t37.5 -54.5l103 -182h-134l-82 144q-19 35 -38.5 46.5t-52.5 11.5h-62v-202h-125z" />
    <glyph glyph-name="uni043B" unicode="&#x43b;" horiz-adv-x="597" 
d="M58 -14l-39 99q42 15 67 43.5t35.5 79t10.5 130.5v151h394v-489h-125v391h-154v-57q0 -158 -44.5 -240.5t-144.5 -107.5z" />
    <glyph glyph-name="uni043C" unicode="&#x43c;" horiz-adv-x="685" 
d="M71 0v489h103l169 -289l169 289h102v-489h-110v304l-132 -224h-59l-132 224v-304h-110z" />
    <glyph glyph-name="uni043D" unicode="&#x43d;" horiz-adv-x="608" 
d="M71 0v489h125v-189h216v189h125v-489h-125v202h-216v-202h-125z" />
    <glyph glyph-name="uni043E" unicode="&#x43e;" horiz-adv-x="590" 
d="M295 -10q-76 0 -132 31t-87 88.5t-31 135.5t31 135t87 88t132 31t132 -31t87 -88t31 -135t-31 -135.5t-87 -88.5t-132 -31zM295 85q56 0 90 40.5t34 119.5q0 80 -34 119.5t-90 39.5t-90 -39.5t-34 -119.5q0 -79 34 -119.5t90 -40.5z" />
    <glyph glyph-name="uni043F" unicode="&#x43f;" horiz-adv-x="605" 
d="M71 0v489h463v-489h-125v391h-213v-391h-125z" />
    <glyph glyph-name="uni0440" unicode="&#x440;" horiz-adv-x="614" 
d="M72 -180v669h122v-78q21 40 63.5 64t96.5 24q64 0 112.5 -31t75.5 -87.5t27 -135.5q0 -78 -27 -135.5t-75 -88.5t-113 -31q-52 0 -93.5 22.5t-63.5 60.5v-253h-125zM319 85q56 0 90 40.5t34 119.5q0 80 -34 119.5t-90 39.5t-90 -39.5t-34 -119.5q0 -79 34 -119.5
t90 -40.5z" />
    <glyph glyph-name="uni0441" unicode="&#x441;" horiz-adv-x="486" 
d="M298 -10q-77 0 -134 31.5t-88 89.5t-31 136t31 134.5t88 87t134 30.5q47 0 93 -15t76 -42l-37 -87q-26 23 -58.5 35t-62.5 12q-65 0 -100.5 -40.5t-35.5 -115.5q0 -74 35.5 -116.5t100.5 -42.5q29 0 62 12t59 36l37 -88q-30 -26 -76.5 -41.5t-92.5 -15.5z" />
    <glyph glyph-name="uni0442" unicode="&#x442;" horiz-adv-x="473" 
d="M174 0v391h-167v98h460v-98h-168v-391h-125z" />
    <glyph glyph-name="uni0443" unicode="&#x443;" horiz-adv-x="540" 
d="M116 -180l90 200l-203 469h133l137 -342l140 342h126l-294 -669h-129z" />
    <glyph glyph-name="uni0444" unicode="&#x444;" horiz-adv-x="838" 
d="M357 -180v248q-38 -78 -129 -78q-54 0 -95 31.5t-64.5 89t-23.5 134.5q0 78 23.5 135t64.5 88t95 31q45 0 78 -20.5t51 -57.5v284h125v-282q18 36 51.5 56t76.5 20q54 0 95.5 -31t64.5 -88t23 -135q0 -77 -23 -134.5t-64 -89t-96 -31.5q-88 0 -128 77v-247h-125zM265 84
q43 0 68.5 39.5t25.5 121.5q0 81 -26 120.5t-68 39.5q-43 0 -69 -39.5t-26 -120.5q0 -82 26 -121.5t69 -39.5zM573 84q44 0 69.5 39.5t25.5 121.5q0 81 -26 120.5t-69 39.5t-68 -39.5t-25 -120.5q0 -82 25 -121.5t68 -39.5z" />
    <glyph glyph-name="uni0445" unicode="&#x445;" horiz-adv-x="560" 
d="M4 0l205 253l-192 236h146l118 -151l118 151h146l-193 -237l206 -252h-147l-131 165l-130 -165h-146z" />
    <glyph glyph-name="uni0446" unicode="&#x446;" horiz-adv-x="623" 
d="M496 -130v130h-425v489h125v-391h201v391h125v-391h80v-228h-106z" />
    <glyph glyph-name="uni0447" unicode="&#x447;" horiz-adv-x="574" 
d="M380 0v177q-27 -13 -55.5 -19.5t-58.5 -6.5q-215 0 -215 211v127h125v-116q0 -64 26 -92.5t86 -28.5q27 0 49 6t41 19v212h125v-489h-123z" />
    <glyph glyph-name="uni0448" unicode="&#x448;" horiz-adv-x="832" 
d="M71 0v489h118v-391h168v391h118v-391h168v391h118v-489h-690z" />
    <glyph glyph-name="uni0449" unicode="&#x449;" horiz-adv-x="862" 
d="M735 -130v130h-664v489h118v-391h168v391h118v-391h168v391h118v-391h80v-228h-106z" />
    <glyph glyph-name="uni044A" unicode="&#x44a;" horiz-adv-x="633" 
d="M152 0v391h-145v98h270v-162h128q98 0 147 -41t49 -120q0 -75 -52.5 -120.5t-143.5 -45.5h-253zM277 82h109q47 0 73 20.5t26 62.5q0 80 -99 80h-109v-163z" />
    <glyph glyph-name="uni044B" unicode="&#x44b;" horiz-adv-x="776" 
d="M71 0v489h125v-162h129q97 0 146.5 -41t49.5 -120q0 -75 -52.5 -120.5t-143.5 -45.5h-254zM580 0v489h125v-489h-125zM196 82h110q47 0 73 20.5t26 62.5q0 41 -26 60.5t-73 19.5h-110v-163z" />
    <glyph glyph-name="uni044C" unicode="&#x44c;" horiz-adv-x="553" 
d="M71 0v489h125v-162h129q97 0 146.5 -41t49.5 -120q0 -75 -52.5 -120.5t-143.5 -45.5h-254zM196 82h110q47 0 73 20.5t26 62.5q0 41 -26 60.5t-73 19.5h-110v-163z" />
    <glyph glyph-name="uni044D" unicode="&#x44d;" horiz-adv-x="512" 
d="M208 -10q-53 0 -105 16t-81 44l36 79q29 -24 67 -37t74 -13q60 0 99 31.5t50 91.5h-229v90h229q-11 53 -47.5 85.5t-101.5 32.5q-36 0 -74 -12.5t-67 -37.5l-36 80q33 28 84 43.5t103 15.5q79 0 137 -30.5t89.5 -87t31.5 -134.5q0 -79 -31.5 -136.5t-89.5 -89t-138 -31.5
z" />
    <glyph glyph-name="uni044E" unicode="&#x44e;" horiz-adv-x="816" 
d="M521 -10q-102 0 -167 57t-78 155h-83v-202h-122v489h122v-189h84q16 93 80.5 146t163.5 53q76 0 132 -31t87 -88t31 -135t-31 -135.5t-87 -88.5t-132 -31zM521 85q56 0 90 40.5t34 119.5q0 80 -34 119.5t-90 39.5q-55 0 -89.5 -39.5t-34.5 -119.5q0 -79 34.5 -119.5
t89.5 -40.5z" />
    <glyph glyph-name="uni044F" unicode="&#x44f;" horiz-adv-x="561" 
d="M29 0l73 126q28 51 74 68q-124 23 -124 143q0 71 48 111.5t141 40.5h249v-489h-116v169h-52q-30 0 -52 -16t-36 -40l-64 -113h-141zM267 251h107v156h-107q-49 0 -73 -20.5t-24 -56.5q0 -37 24 -58t73 -21z" />
    <glyph glyph-name="uni0450" unicode="&#x450;" horiz-adv-x="556" 
d="M313 -10q-83 0 -143 31t-92.5 88t-32.5 135q0 76 31.5 133t87 89.5t126.5 32.5q104 0 164.5 -66t60.5 -180v-37h-350q14 -131 150 -131q41 0 82 12.5t75 39.5l35 -84q-35 -29 -88 -46t-106 -17zM295 414q-55 0 -89 -34t-41 -92h246q-4 61 -33.5 93.5t-82.5 32.5zM249 554
l-141 203h123l102 -203h-84z" />
    <glyph glyph-name="uni0451" unicode="&#x451;" horiz-adv-x="556" 
d="M313 -10q-83 0 -143 31t-92.5 88t-32.5 135q0 76 31.5 133t87 89.5t126.5 32.5q104 0 164.5 -66t60.5 -180v-37h-350q14 -131 150 -131q41 0 82 12.5t75 39.5l35 -84q-35 -29 -88 -46t-106 -17zM295 414q-55 0 -89 -34t-41 -92h246q-4 61 -33.5 93.5t-82.5 32.5zM327 597
v115h116v-115h-116zM139 597v115h116v-115h-116z" />
    <glyph glyph-name="uni0452" unicode="&#x452;" 
d="M332 -187l-38 92q46 12 70 31t33 49.5t9 75.5v231q0 57 -21.5 83t-66.5 26q-55 0 -87.5 -34.5t-32.5 -91.5v-275h-125v544h-88v88h88v73h125v-73h189v-88h-189v-126q25 40 67 60.5t93 20.5q173 0 173 -201v-235q0 -63 -17 -112t-60.5 -83.5t-121.5 -54.5z" />
    <glyph glyph-name="uni0453" unicode="&#x453;" horiz-adv-x="457" 
d="M71 0v489h370v-98h-245v-391h-125zM198 554l103 203h123l-142 -203h-84z" />
    <glyph glyph-name="uni0454" unicode="&#x454;" horiz-adv-x="513" 
d="M305 -10q-79 0 -137.5 31.5t-90.5 89t-32 136.5q0 117 71 184.5t195 67.5q52 0 102 -15.5t78 -43.5l-36 -80q-30 25 -68 37.5t-73 12.5q-66 0 -102 -32.5t-48 -85.5h230v-90h-230q12 -60 50.5 -91.5t99.5 -31.5q35 0 73.5 13t67.5 37l36 -79q-30 -28 -81.5 -44
t-104.5 -16z" />
    <glyph glyph-name="uni0455" unicode="&#x455;" horiz-adv-x="502" 
d="M251 -10q-62 0 -116 15t-90 43l32 82q37 -25 83 -38.5t92 -13.5q48 0 71.5 16.5t23.5 43.5q0 42 -62 54l-100 19q-127 24 -127 132q0 48 26.5 83t73.5 54t108 19q52 0 100 -14.5t82 -43.5l-34 -82q-29 24 -69.5 38t-77.5 14q-49 0 -72.5 -17t-23.5 -45q0 -44 57 -54
l100 -19q65 -12 98.5 -44t33.5 -86q0 -73 -57 -114.5t-152 -41.5z" />
    <glyph glyph-name="uni0456" unicode="&#x456;" horiz-adv-x="269" 
d="M64 594v122h140v-122h-140zM72 0v489h125v-489h-125z" />
    <glyph glyph-name="uni0457" unicode="&#x457;" horiz-adv-x="269" 
d="M72 0v489h125v-489h-125zM170 597v115h116v-115h-116zM-18 597v115h116v-115h-116z" />
    <glyph glyph-name="uni0458" unicode="&#x458;" horiz-adv-x="273" 
d="M68 594v122h140v-122h-140zM-38 -193l-9 91l46 5q77 9 77 90v496h125v-480q0 -98 -45 -144.5t-151 -54.5z" />
    <glyph glyph-name="uni0459" unicode="&#x459;" horiz-adv-x="880" 
d="M58 -14l-39 99q42 15 67 43.5t35.5 79t10.5 130.5v151h391v-162h129q97 0 146.5 -41t49.5 -120q0 -75 -52.5 -120.5t-143.5 -45.5h-251v391h-154v-57q0 -158 -44.5 -240.5t-144.5 -107.5zM523 82h110q47 0 73 20.5t26 62.5q0 41 -26 60.5t-73 19.5h-110v-163z" />
    <glyph glyph-name="uni045A" unicode="&#x45a;" horiz-adv-x="893" 
d="M71 0v489h125v-189h216v189h125v-162h128q98 0 147 -41t49 -120q0 -75 -52.5 -120.5t-143.5 -45.5h-253v202h-216v-202h-125zM537 82h109q47 0 73 20.5t26 62.5q0 80 -99 80h-109v-163z" />
    <glyph glyph-name="uni045B" unicode="&#x45b;" horiz-adv-x="599" 
d="M72 0v544h-87v88h87v73h125v-73h189v-88h-189v-126q25 40 67 60.5t93 20.5q173 0 173 -201v-298h-125v292q0 57 -21.5 83t-66.5 26q-55 0 -87.5 -34.5t-32.5 -91.5v-275h-125z" />
    <glyph glyph-name="uni045C" unicode="&#x45c;" horiz-adv-x="559" 
d="M71 0v489h125v-190h71l142 190h134l-160 -219q23 -12 41.5 -33.5t37.5 -54.5l103 -182h-134l-82 144q-19 35 -38.5 46.5t-52.5 11.5h-62v-202h-125zM265 554l103 203h123l-142 -203h-84z" />
    <glyph glyph-name="uni045D" unicode="&#x45d;" horiz-adv-x="604" 
d="M71 0v489h113v-326l245 326h104v-489h-113v326l-245 -326h-104zM260 554l-141 203h123l102 -203h-84z" />
    <glyph glyph-name="uni045E" unicode="&#x45e;" horiz-adv-x="540" 
d="M116 -180l90 200l-203 469h133l137 -342l140 342h126l-294 -669h-129zM270 551q-73 0 -120 37.5t-62 101.5l64 22q17 -48 45.5 -70t73.5 -22q46 0 74 22.5t47 68.5l61 -21q-21 -69 -68.5 -104t-114.5 -35z" />
    <glyph glyph-name="uni045F" unicode="&#x45f;" horiz-adv-x="605" 
d="M249 -130v130h-178v489h125v-391h213v391h125v-489h-179v-130h-106z" />
    <glyph glyph-name="uni0462" unicode="&#x462;" horiz-adv-x="743" 
d="M152 0v523h-172v93h172v89h123v-89h237v-93h-237v-112h191q113 0 176.5 -52t63.5 -153q0 -100 -63.5 -153t-176.5 -53h-314zM275 102h176q132 0 132 104q0 103 -132 103h-176v-207z" />
    <glyph glyph-name="uni0463" unicode="&#x463;" horiz-adv-x="634" 
d="M152 0v401h-145v88h145v216h125v-216h165v-88h-165v-74h129q97 0 146.5 -41t49.5 -120q0 -75 -52.5 -120.5t-143.5 -45.5h-254zM277 82h110q47 0 73 20.5t26 62.5q0 41 -26 60.5t-73 19.5h-110v-163z" />
    <glyph glyph-name="uni046A" unicode="&#x46a;" horiz-adv-x="1008" 
d="M4 0l124 255q34 69 93 109t149 40h13l-258 301h758l-258 -301h13q90 0 149 -40t93 -109l124 -255h-138l-96 203q-23 50 -54.5 73t-85.5 23h-62v-299h-128v299h-62q-54 0 -85.5 -23t-54.5 -73l-96 -203h-138zM503 404h2l180 212h-362z" />
    <glyph glyph-name="uni046B" unicode="&#x46b;" horiz-adv-x="826" 
d="M-6 0l103 170q26 43 49 68.5t53 37t76 11.5h11l-174 202h603l-174 -202h11q46 0 76.5 -11.5t54 -37.5t48.5 -68l101 -170h-133l-82 132q-21 34 -40 46t-51 12h-50v-190h-125v190h-50q-33 0 -51.5 -12t-39.5 -46l-82 -132h-134zM412 274h2l114 134h-230z" />
    <glyph glyph-name="uni0472" unicode="&#x472;" horiz-adv-x="785" 
d="M393 -10q-102 0 -178.5 45t-118.5 126.5t-42 191.5q0 111 42 192t118 125.5t179 44.5t179 -44.5t118 -125.5t42 -191q0 -111 -42 -192.5t-118 -126.5t-179 -45zM393 605q-85 0 -137.5 -52t-64.5 -147h404q-11 95 -63.5 147t-138.5 52zM393 100q88 0 140.5 55t62.5 155
h-406q10 -100 62.5 -155t140.5 -55z" />
    <glyph glyph-name="uni0473" unicode="&#x473;" horiz-adv-x="590" 
d="M295 -10q-76 0 -132 31t-87 88.5t-31 135.5t31 135t87 88t132 31t132 -31t87 -88t31 -135t-31 -135.5t-87 -88.5t-132 -31zM295 404q-48 0 -80.5 -29.5t-40.5 -88.5h242q-8 59 -40.5 88.5t-80.5 29.5zM295 85q48 0 80.5 30t40.5 90h-242q8 -60 40 -90t81 -30z" />
    <glyph glyph-name="uni0474" unicode="&#x474;" horiz-adv-x="769" 
d="M303 0l-314 705h137l232 -540l143 348q32 78 67.5 122t84.5 62t122 18l11 -105q-48 0 -78.5 -12.5t-52.5 -44.5t-47 -89l-198 -464h-107z" />
    <glyph glyph-name="uni0475" unicode="&#x475;" horiz-adv-x="573" 
d="M216 0l-212 489h132l137 -342l91 221q21 50 46.5 78.5t64 40.5t96.5 12l11 -100q-47 0 -73.5 -18.5t-46.5 -63.5l-138 -317h-108z" />
    <glyph glyph-name="uni048A" unicode="&#x48a;" horiz-adv-x="773" 
d="M373 760q-80 0 -130.5 38t-67.5 102l64 22q20 -49 52 -70.5t83 -21.5q52 0 83.5 22t53.5 69l62 -21q-23 -69 -75.5 -104.5t-124.5 -35.5zM579 -165l55 165h-82v498l-380 -498h-95v705h119v-496l379 496h96v-602h108l-90 -268h-110z" />
    <glyph glyph-name="uni048B" unicode="&#x48b;" horiz-adv-x="634" 
d="M301 551q-73 0 -120 37.5t-62 101.5l64 22q17 -48 45.5 -70t73.5 -22q46 0 74 22.5t47 68.5l61 -21q-21 -69 -68.5 -104t-114.5 -35zM71 0v489h113v-326l245 326h104v-394h92l-77 -225h-105l44 130h-67v326l-245 -326h-104z" />
    <glyph glyph-name="uni048C" unicode="&#x48c;" horiz-adv-x="733" 
d="M142 0v523h-142v93h142v89h123v-89h143v-93h-143v-112h191q113 0 176.5 -52t63.5 -153q0 -100 -63.5 -153t-176.5 -53h-314zM265 102h176q132 0 132 104q0 103 -132 103h-176v-207z" />
    <glyph glyph-name="uni048D" unicode="&#x48d;" horiz-adv-x="634" 
d="M152 0v401h-145v88h145v216h125v-216h165v-88h-165v-74h129q97 0 146.5 -41t49.5 -120q0 -75 -52.5 -120.5t-143.5 -45.5h-254zM277 82h110q47 0 73 20.5t26 62.5q0 41 -26 60.5t-73 19.5h-110v-163z" />
    <glyph glyph-name="uni048E" unicode="&#x48e;" horiz-adv-x="652" 
d="M77 0v705h306q116 0 179 -58t63 -162q0 -68 -28 -117t-79 -76l45 -67l-73 -49l-60 91q-10 -1 -21.5 -2t-25.5 -1h-178v-264h-128zM205 365h158v0h1l-41 62l72 47l59 -88q47 30 47 99q0 119 -138 119h-158v-239z" />
    <glyph glyph-name="uni048F" unicode="&#x48f;" horiz-adv-x="613" 
d="M71 -180v669h123v-76q21 39 63 62.5t96 23.5q64 0 112.5 -31t75.5 -87.5t27 -135.5q0 -67 -19.5 -118.5t-55.5 -84.5l44 -57l-61 -45l-48 63q-17 -6 -36 -9.5t-39 -3.5q-52 0 -93.5 22.5t-63.5 60.5v-253h-125zM318 85q23 0 42 6l-55 71l61 45l52 -67q11 19 17.5 45.5
t6.5 59.5q0 80 -34 119.5t-90 39.5t-90 -39.5t-34 -119.5q0 -79 34 -119.5t90 -40.5z" />
    <glyph glyph-name="uni0490" unicode="&#x490;" horiz-adv-x="559" 
d="M77 0v705h352v160h114v-267h-338v-598h-128z" />
    <glyph glyph-name="uni0491" unicode="&#x491;" horiz-adv-x="457" 
d="M71 0v489h264v113h106v-211h-245v-391h-125z" />
    <glyph glyph-name="uni0492" unicode="&#x492;" horiz-adv-x="601" 
d="M119 0v301h-95v93h95v311h466v-107h-338v-204h180v-93h-180v-301h-128z" />
    <glyph glyph-name="uni0493" unicode="&#x493;" horiz-adv-x="481" 
d="M95 0v181h-90v88h90v220h370v-98h-245v-122h140v-88h-140v-181h-125z" />
    <glyph glyph-name="uni0494" unicode="&#x494;" horiz-adv-x="700" 
d="M425 -190q-39 0 -71.5 5.5t-56.5 15.5l22 95q37 -14 87 -14q54 0 84 36.5t30 106.5v85q0 101 -46.5 146.5t-135.5 45.5q-77 0 -133 -30v-302h-128v705h490v-107h-362v-185q25 13 65 21t82 8q143 0 219.5 -73.5t76.5 -222.5v-86q0 -121 -61.5 -185.5t-161.5 -64.5z" />
    <glyph glyph-name="uni0495" unicode="&#x495;" horiz-adv-x="576" 
d="M338 -187l-38 92q46 12 70 31t33 49.5t9 75.5v46q0 61 -20 87.5t-72 26.5q-56 0 -90 -34.5t-34 -91.5v-95h-125v489h370v-98h-245v-153q54 81 165 81q88 0 132 -50t44 -156v-50q0 -63 -17 -112t-60.5 -83.5t-121.5 -54.5z" />
    <glyph glyph-name="uni0496" unicode="&#x496;" horiz-adv-x="1030" 
d="M4 0l122 251q47 98 125 132l-210 322h141l189 -299h75v299h123v-299h75l189 299h141l-211 -322q40 -18 70.5 -50.5t54.5 -81.5l72 -148h98v-268h-114v165h-72l-95 203q-25 52 -58 74t-83 22h-67v-299h-123v299h-67q-51 0 -84.5 -22.5t-57.5 -73.5l-94 -203h-139z" />
    <glyph glyph-name="uni0497" unicode="&#x497;" horiz-adv-x="873" 
d="M-6 0l103 182q19 34 38.5 56t43.5 33l-163 218h134l142 -190h59v190h125v-190h59l141 190h134l-162 -218q24 -12 43.5 -33.5t38.5 -55.5l49 -87h76v-225h-106v130h-50l-82 144q-19 35 -39 46.5t-52 11.5h-50v-202h-125v202h-50q-33 0 -52 -11.5t-39 -46.5l-82 -144h-134z
" />
    <glyph glyph-name="uni0498" unicode="&#x498;" horiz-adv-x="634" 
d="M257 -165v157q-71 5 -127.5 27t-99.5 56l40 97q44 -36 99 -54.5t125 -18.5q83 0 122.5 27t39.5 82q0 99 -132 99h-171v101h154q131 0 131 97q0 47 -34.5 74.5t-108.5 27.5q-58 0 -112.5 -18t-97.5 -53l-40 96q47 40 116.5 61.5t147.5 21.5q128 0 192 -53.5t64 -139.5
q0 -57 -29.5 -98t-79.5 -60q59 -16 92.5 -59t33.5 -108q0 -82 -52 -136t-159 -67v-159h-114z" />
    <glyph glyph-name="uni0499" unicode="&#x499;" horiz-adv-x="519" 
d="M206 -130v122q-52 5 -98 19.5t-78 37.5l33 82q35 -25 85 -38t101 -13q62 0 90 15t28 47q0 60 -81 60h-130v90h118q36 0 55.5 15t19.5 42q0 29 -24.5 44.5t-83.5 15.5q-50 0 -92 -12t-79 -34l-33 80q86 56 225 56q98 0 149.5 -36.5t51.5 -101.5q0 -38 -21 -66t-57 -41
q46 -11 71 -41t25 -76q0 -58 -44.5 -96.5t-130.5 -47.5v-123h-100z" />
    <glyph glyph-name="uni049A" unicode="&#x49a;" horiz-adv-x="714" 
d="M77 0v705h128v-299h100l189 299h141l-211 -322q40 -18 70.5 -50.5t54.5 -81.5l72 -148h98v-268h-114v165h-73l-94 203q-24 52 -57.5 74t-83.5 22h-92v-299h-128z" />
    <glyph glyph-name="uni049B" unicode="&#x49b;" horiz-adv-x="603" 
d="M71 0v489h125v-190h71l142 190h134l-160 -219q23 -12 41.5 -33.5t37.5 -54.5l49 -87h76v-225h-106v130h-50l-82 144q-19 35 -38.5 46.5t-52.5 11.5h-62v-202h-125z" />
    <glyph glyph-name="uni049C" unicode="&#x49c;" horiz-adv-x="728" 
d="M77 0v705h128v-300h57v165h92v-165h2l190 300h141l-210 -322q77 -34 125 -132l122 -251h-139l-95 203q-24 52 -56.5 75t-79.5 23v-161h-92v161h-57v-301h-128z" />
    <glyph glyph-name="uni049D" unicode="&#x49d;" horiz-adv-x="624" 
d="M71 0v489h125v-190h49v110h86v-110h2l141 190h134l-162 -218q23 -12 42.5 -34t39.5 -55l102 -182h-133l-82 144q-18 31 -36 44t-48 14v-119h-86v119h-49v-202h-125z" />
    <glyph glyph-name="uni049E" unicode="&#x49e;" horiz-adv-x="722" 
d="M129 0v527h-140v93h140v85h128v-85h140v-93h-140v-121h115l194 299h141l-221 -329q31 -16 58.5 -46.5t51.5 -78.5l122 -251h-139l-94 203q-24 52 -57.5 74t-83.5 22h-87v-299h-128z" />
    <glyph glyph-name="uni049F" unicode="&#x49f;" horiz-adv-x="561" 
d="M73 0v544h-88v88h88v73h125v-73h189v-88h-189v-245h71l142 190h134l-163 -218q24 -12 43 -34t39 -55l103 -182h-134l-82 144q-20 34 -39 46t-52 12h-62v-202h-125z" />
    <glyph glyph-name="uni04A0" unicode="&#x4a0;" horiz-adv-x="809" 
d="M211 0v599h-206v106h334v-299h100l189 299h141l-211 -322q40 -18 70.5 -50.5t54.5 -81.5l122 -251h-139l-94 203q-24 52 -57.5 74t-83.5 22h-92v-299h-128z" />
    <glyph glyph-name="uni04A1" unicode="&#x4a1;" horiz-adv-x="639" 
d="M152 0v391h-145v98h270v-190h71l141 190h134l-162 -218q23 -12 42.5 -34t39.5 -55l102 -182h-133l-82 144q-20 34 -39.5 46t-51.5 12h-62v-202h-125z" />
    <glyph glyph-name="uni04A2" unicode="&#x4a2;" horiz-adv-x="818" 
d="M77 0v705h128v-294h363v294h128v-602h100v-268h-114v165h-114v304h-363v-304h-128z" />
    <glyph glyph-name="uni04A3" unicode="&#x4a3;" horiz-adv-x="638" 
d="M511 -130v130h-99v202h-216v-202h-125v489h125v-189h216v189h125v-394h80v-225h-106z" />
    <glyph glyph-name="uni04A4" unicode="&#x4a4;" horiz-adv-x="942" 
d="M77 0v705h128v-294h363v294h370v-107h-242v-598h-128v304h-363v-304h-128z" />
    <glyph glyph-name="uni04A5" unicode="&#x4a5;" horiz-adv-x="761" 
d="M71 0v489h125v-189h216v189h333v-98h-208v-391h-125v202h-216v-202h-125z" />
    <glyph glyph-name="uni04A8" unicode="&#x4a8;" horiz-adv-x="842" 
d="M401 -10q-164 0 -255.5 93t-91.5 265q0 115 41 197t117.5 126t184.5 44q24 0 40 -2t32 -5l-15 -105q-17 2 -31 3.5t-24 1.5q-102 0 -157 -65t-55 -190q0 -262 216 -262q14 0 27 1q-43 44 -67 103t-24 130q0 106 56.5 169t153.5 63q98 0 154.5 -63t56.5 -169
q0 -71 -24 -130t-68 -103q14 -1 28 -1q72 0 135 31l29 -94q-62 -38 -168 -38q-78 0 -144 25q-68 -25 -147 -25zM460 325q0 -145 89 -200q90 56 90 200q0 61 -23.5 95t-66.5 34t-66 -34t-23 -95z" />
    <glyph glyph-name="uni04A9" unicode="&#x4a9;" horiz-adv-x="697" 
d="M332 -10q-139 0 -213 69t-74 189q0 77 32 133.5t89.5 87t133.5 30.5q31 0 55.5 -4t42.5 -12l-22 -89q-17 7 -34.5 9.5t-40.5 2.5q-61 0 -98 -41.5t-37 -116.5q0 -83 43.5 -126.5t122.5 -43.5h5q-24 27 -37.5 60.5t-13.5 71.5q0 76 45 122t118 46q74 0 119 -46t45 -122
q0 -39 -14 -72t-39 -60v0q35 0 67.5 7.5t58.5 23.5l24 -87q-31 -15 -67 -23.5t-74 -8.5q-65 0 -121 19q-55 -19 -116 -19zM385 205q0 -80 63 -108q66 29 66 108q0 44 -18 65.5t-47 21.5q-28 0 -46 -21.5t-18 -65.5z" />
    <glyph glyph-name="uni04AA" unicode="&#x4aa;" horiz-adv-x="679" 
d="M330 -165v161q-131 22 -203.5 116t-72.5 241q0 111 42 192t120.5 125.5t188.5 44.5q71 0 134.5 -22t104.5 -63l-42 -102q-45 38 -92 55.5t-101 17.5q-107 0 -163 -64.5t-56 -183.5t56 -184t163 -65q54 0 101 17.5t92 55.5l42 -102q-36 -34 -88 -56t-112 -27v-157h-114z
" />
    <glyph glyph-name="uni04AB" unicode="&#x4ab;" horiz-adv-x="486" 
d="M240 -130v125q-91 17 -143 83.5t-52 168.5q0 78 31 134.5t88 87t134 30.5q47 0 93 -15t76 -42l-37 -87q-26 23 -58.5 35t-62.5 12q-65 0 -100.5 -40.5t-35.5 -115.5q0 -74 35.5 -116.5t100.5 -42.5q29 0 62 12t59 36l37 -88q-23 -20 -57 -34t-70 -20v-123h-100z" />
    <glyph glyph-name="uni04AC" unicode="&#x4ac;" horiz-adv-x="597" 
d="M349 -165v165h-114v598h-230v107h588v-107h-230v-495h100v-268h-114z" />
    <glyph glyph-name="uni04AD" unicode="&#x4ad;" horiz-adv-x="473" 
d="M273 -130v130h-99v391h-167v98h460v-98h-168v-296h80v-225h-106z" />
    <glyph glyph-name="uni04AE" unicode="&#x4ae;" horiz-adv-x="618" 
d="M245 0v324l-271 381h149l188 -267l189 267h143l-270 -382v-323h-128z" />
    <glyph glyph-name="uni04AF" unicode="&#x4af;" horiz-adv-x="526" 
d="M201 -180v197l-204 472h132l137 -342l140 342h125l-205 -468v-201h-125z" />
    <glyph glyph-name="uni04B0" unicode="&#x4b0;" horiz-adv-x="618" 
d="M245 0v324l-271 381h149l188 -267l189 267h143l-270 -382v-323h-128zM82 266v88h455v-88h-455z" />
    <glyph glyph-name="uni04B1" unicode="&#x4b1;" horiz-adv-x="526" 
d="M201 -180v123h-126v99h115l-193 447h132l137 -342l140 342h125l-196 -447h117v-99h-126v-123h-125z" />
    <glyph glyph-name="uni04B2" unicode="&#x4b2;" horiz-adv-x="711" 
d="M-6 0l269 359l-259 346h149l183 -253l183 253h150l-259 -346l191 -256h105v-268h-114v165h-64l-192 264l-191 -264h-151z" />
    <glyph glyph-name="uni04B3" unicode="&#x4b3;" horiz-adv-x="589" 
d="M4 0l205 253l-192 236h146l118 -151l118 151h146l-193 -237l128 -157h85v-225h-106v130h-48l-131 165l-130 -165h-146z" />
    <glyph glyph-name="uni04B4" unicode="&#x4b4;" horiz-adv-x="946" 
d="M810 -165v165h-600v598h-205v107h538v-107h-205v-491h358v598h128v-598h100v-272h-114z" />
    <glyph glyph-name="uni04B5" unicode="&#x4b5;" horiz-adv-x="731" 
d="M604 -130v130h-452v391h-145v98h415v-98h-145v-293h228v391h125v-391h80v-228h-106z" />
    <glyph glyph-name="uni04B6" unicode="&#x4b6;" horiz-adv-x="742" 
d="M606 -165v165h-114v275q-27 -13 -69.5 -21t-84.5 -8q-137 0 -211 74t-74 222v163h128v-157q0 -100 43 -146t128 -46q36 0 72.5 7.5t67.5 23.5v318h128v-602h100v-268h-114z" />
    <glyph glyph-name="uni04B7" unicode="&#x4b7;" horiz-adv-x="604" 
d="M380 0v177q-27 -13 -55.5 -19.5t-58.5 -6.5q-215 0 -215 211v127h125v-116q0 -64 26 -92.5t86 -28.5q27 0 49 6t41 19v212h125v-394h80v-225h-106v130h-97z" />
    <glyph glyph-name="uni04B8" unicode="&#x4b8;" horiz-adv-x="697" 
d="M492 0v275q-21 -10 -48.5 -16.5t-55.5 -9.5v-143h-92v142q-114 11 -178.5 82t-64.5 212v163h128v-157q0 -160 115 -186v160h92v-164q28 3 55 10t49 19v318h128v-705h-128z" />
    <glyph glyph-name="uni04B9" unicode="&#x4b9;" horiz-adv-x="607" 
d="M411 0v179q-32 -15 -68 -22v-96h-86v93q-206 13 -206 208v127h125v-119q0 -53 20.5 -80.5t60.5 -35.5v117h86v-119q17 2 34.5 7.5t33.5 14.5v215h125v-489h-125z" />
    <glyph glyph-name="uni04BA" unicode="&#x4ba;" horiz-adv-x="696" 
d="M77 0v705h128v-275q27 14 69 21.5t84 7.5q138 0 212 -73.5t74 -222.5v-163h-128v157q0 101 -43 146.5t-129 45.5q-36 0 -72 -6.5t-67 -23.5v-319h-128z" />
    <glyph glyph-name="uni04BB" unicode="&#x4bb;" horiz-adv-x="599" 
d="M72 0v705h125v-287q25 40 67 60.5t93 20.5q173 0 173 -201v-298h-125v292q0 57 -21.5 83t-66.5 26q-55 0 -87.5 -34.5t-32.5 -91.5v-275h-125z" />
    <glyph glyph-name="uni04BC" unicode="&#x4bc;" horiz-adv-x="962" 
d="M618 -10q-167 0 -267.5 82t-116.5 227h-26q-97 0 -145.5 49.5t-48.5 140.5v54h127v-52q0 -48 19 -68t61 -20h13q9 94 53.5 164.5t118.5 109t172 38.5q107 0 180.5 -46.5t112 -129.5t38.5 -193v-47h-541q14 -97 77 -148t178 -51q57 0 111.5 16.5t100.5 51.5l45 -98
q-49 -38 -118.5 -59t-143.5 -21zM579 610q-90 0 -145 -52.5t-66 -154.5h413q-20 207 -202 207z" />
    <glyph glyph-name="uni04BD" unicode="&#x4bd;" horiz-adv-x="661" 
d="M437 -10q-118 0 -189 61.5t-78 164.5h-13q-77 0 -110 36t-33 101v33h98v-33q0 -37 13.5 -51t45.5 -14h1q9 63 42 110.5t84.5 74t115.5 26.5q104 0 164.5 -66t60.5 -180v-37h-350q14 -131 150 -131q42 0 82.5 12.5t74.5 39.5l35 -84q-35 -29 -88.5 -46t-105.5 -17z
M419 414q-56 0 -90 -33.5t-40 -92.5h246q-4 61 -33.5 93.5t-82.5 32.5z" />
    <glyph glyph-name="uni04BE" unicode="&#x4be;" horiz-adv-x="962" 
d="M618 -10q-167 0 -267.5 82t-116.5 227h-26q-97 0 -145.5 49.5t-48.5 140.5v54h127v-52q0 -48 19 -68t61 -20h13q9 94 53.5 164.5t118.5 109t172 38.5q107 0 180.5 -46.5t112 -129.5t38.5 -193v-47h-541q14 -97 77 -148t178 -51q57 0 111.5 16.5t100.5 51.5l45 -98
q-49 -38 -118.5 -59t-143.5 -21zM579 610q-90 0 -145 -52.5t-66 -154.5h413q-20 207 -202 207zM644 -195q-55 0 -86.5 28t-31.5 76q0 42 28 78t74 55l37 -42q-25 -10 -42.5 -30.5t-17.5 -46.5q0 -25 16 -38t40 -13q14 0 27 3t27 8l15 -61q-37 -17 -86 -17z" />
    <glyph glyph-name="uni04BF" unicode="&#x4bf;" horiz-adv-x="661" 
d="M437 -10q-118 0 -189 61.5t-78 164.5h-13q-77 0 -110 36t-33 101v33h98v-33q0 -37 13.5 -51t45.5 -14h1q9 63 42 110.5t84.5 74t115.5 26.5q104 0 164.5 -66t60.5 -180v-37h-350q14 -131 150 -131q42 0 82.5 12.5t74.5 39.5l35 -84q-35 -29 -88.5 -46t-105.5 -17z
M419 414q-56 0 -90 -33.5t-40 -92.5h246q-4 61 -33.5 93.5t-82.5 32.5zM462 -195q-55 0 -86.5 28t-31.5 76q0 42 28 78t74 55l37 -42q-25 -10 -42.5 -30.5t-17.5 -46.5q0 -25 16 -38t40 -13q14 0 27 3t27 8l15 -61q-37 -17 -86 -17z" />
    <glyph glyph-name="uni04C0" unicode="&#x4c0;" horiz-adv-x="281" 
d="M77 0v705h128v-705h-128z" />
    <glyph glyph-name="uni04C1" unicode="&#x4c1;" horiz-adv-x="1014" 
d="M4 0l122 251q47 98 125 132l-210 322h141l189 -299h75v299h123v-299h75l189 299h141l-211 -322q40 -18 70.5 -50.5t54.5 -81.5l122 -251h-138l-95 203q-25 52 -58 74t-83 22h-67v-299h-123v299h-67q-51 0 -84.5 -22.5t-57.5 -73.5l-94 -203h-139zM506 760
q-80 0 -130.5 38t-67.5 102l64 22q20 -49 52 -70.5t83 -21.5q52 0 83.5 22t53.5 69l62 -21q-23 -69 -75.5 -104.5t-124.5 -35.5z" />
    <glyph glyph-name="uni04C2" unicode="&#x4c2;" horiz-adv-x="826" 
d="M-6 0l103 182q19 34 38.5 56t43.5 33l-163 218h134l142 -190h59v190h125v-190h59l141 190h134l-162 -218q24 -12 43.5 -33.5t38.5 -55.5l102 -182h-133l-82 144q-19 35 -39 46.5t-52 11.5h-50v-202h-125v202h-50q-33 0 -52 -11.5t-39 -46.5l-82 -144h-134zM412 551
q-73 0 -120 37.5t-62 101.5l64 22q17 -48 45.5 -70t73.5 -22q46 0 74 22.5t47 68.5l61 -21q-21 -69 -68.5 -104t-114.5 -35z" />
    <glyph glyph-name="uni04C3" unicode="&#x4c3;" horiz-adv-x="700" 
d="M425 -190q-39 0 -73 5.5t-54 15.5l21 95q37 -14 87 -14q54 0 84 36.5t30 106.5v54q0 102 -48.5 149t-141.5 47h-125v-305h-128v705h128v-293h111l185 293h141l-199 -304q99 -21 152 -91t53 -195v-55q0 -121 -61.5 -185.5t-161.5 -64.5z" />
    <glyph glyph-name="uni04C4" unicode="&#x4c4;" horiz-adv-x="570" 
d="M331 -187l-39 92q46 12 70 31t33 48t9 72v24q0 64 -30.5 93t-89.5 29h-88v-202h-125v489h125v-190h71l142 190h134l-153 -204q66 -19 102.5 -69.5t36.5 -129.5v-28q0 -61 -17 -109t-60 -82t-121 -54z" />
    <glyph glyph-name="uni04C5" unicode="&#x4c5;" horiz-adv-x="777" 
d="M580 -165l55 165h-88v598h-252v-140q0 -135 -25.5 -228.5t-74.5 -152.5t-118 -94l-63 95q40 23 70.5 53.5t51 77t31 115.5t10.5 167v214h498v-602h105l-90 -268h-110z" />
    <glyph glyph-name="uni04C6" unicode="&#x4c6;" horiz-adv-x="627" 
d="M58 -14l-39 99q42 15 67 43.5t35.5 79t10.5 130.5v151h394v-394h89l-77 -225h-105l44 130h-76v391h-154v-57q0 -158 -44.5 -240.5t-144.5 -107.5z" />
    <glyph glyph-name="uni04C7" unicode="&#x4c7;" horiz-adv-x="773" 
d="M454 -193l-9 91l46 5q77 9 77 90v311h-363v-304h-128v705h128v-294h363v294h128v-696q0 -98 -45.5 -144.5t-153.5 -54.5z" />
    <glyph glyph-name="uni04C8" unicode="&#x4c8;" horiz-adv-x="608" 
d="M298 -193l-9 91l46 5q77 6 77 90v209h-216v-202h-125v489h125v-189h216v189h125v-480q0 -98 -45.5 -145t-150.5 -54z" />
    <glyph glyph-name="uni04C9" unicode="&#x4c9;" horiz-adv-x="798" 
d="M77 0v705h128v-294h363v294h128v-602h105l-90 -268h-110l55 165h-88v304h-363v-304h-128z" />
    <glyph glyph-name="uni04CA" unicode="&#x4ca;" horiz-adv-x="638" 
d="M71 0v489h125v-189h216v189h125v-394h89l-77 -225h-105l44 130h-76v202h-216v-202h-125z" />
    <glyph glyph-name="uni04CB" unicode="&#x4cb;" horiz-adv-x="713" 
d="M506 -165h-114v268h100v172q-27 -13 -69.5 -21t-84.5 -8q-137 0 -211 74t-74 222v163h128v-157q0 -100 43 -146t128 -46q36 0 72.5 7.5t67.5 23.5v318h128v-705h-114v-165z" />
    <glyph glyph-name="uni04CC" unicode="&#x4cc;" horiz-adv-x="574" 
d="M406 -130h-106v197h80v110q-27 -13 -55.5 -19.5t-58.5 -6.5q-215 0 -215 211v127h125v-116q0 -64 26 -92.5t86 -28.5q27 0 49 6t41 19v212h125v-489h-97v-130z" />
    <glyph glyph-name="uni04CD" unicode="&#x4cd;" horiz-adv-x="893" 
d="M701 -165l55 165h-82v474l-202 -367h-75l-202 365v-472h-116v705h107l250 -462l249 462h105v-602h111l-90 -268h-110z" />
    <glyph glyph-name="uni04CE" unicode="&#x4ce;" horiz-adv-x="715" 
d="M71 0v489h103l169 -289l169 289h102v-394h95l-77 -225h-105l44 130h-67v304l-132 -224h-59l-132 224v-304h-110z" />
    <glyph glyph-name="uni04CF" unicode="&#x4cf;" horiz-adv-x="268" 
d="M72 0v705h125v-705h-125z" />
    <glyph glyph-name="uni04D0" unicode="&#x4d0;" horiz-adv-x="744" 
d="M1 0l319 705h105l319 -705h-130l-70 163h-344l-69 -163h-130zM371 566l-127 -301h256l-127 301h-2zM371 760q-80 0 -130.5 38t-67.5 102l64 22q20 -49 52 -70.5t83 -21.5q52 0 83.5 22t53.5 69l62 -21q-23 -69 -75.5 -104.5t-124.5 -35.5z" />
    <glyph glyph-name="uni04D1" unicode="&#x4d1;" horiz-adv-x="561" 
d="M233 -10q-53 0 -94.5 20.5t-65 55.5t-23.5 79q0 54 28 85.5t91 45.5t169 14h35v21q0 50 -22 72t-74 22q-41 0 -84 -12.5t-87 -38.5l-36 85q26 18 61.5 31.5t75 21t74.5 7.5q107 0 159 -49.5t52 -153.5v-296h-117v78q-17 -41 -54 -64.5t-88 -23.5zM259 76q49 0 81.5 34
t32.5 86v22h-34q-94 0 -130.5 -14.5t-36.5 -52.5q0 -33 23 -54t64 -21zM285 551q-73 0 -120 37.5t-62 101.5l64 22q17 -48 45.5 -70t73.5 -22q46 0 74 22.5t47 68.5l61 -21q-21 -69 -68.5 -104t-114.5 -35z" />
    <glyph glyph-name="uni04D2" unicode="&#x4d2;" horiz-adv-x="744" 
d="M1 0l319 705h105l319 -705h-130l-70 163h-344l-69 -163h-130zM371 566l-127 -301h256l-127 301h-2zM408 790v115h116v-115h-116zM220 790v115h116v-115h-116z" />
    <glyph glyph-name="uni04D3" unicode="&#x4d3;" horiz-adv-x="561" 
d="M233 -10q-53 0 -94.5 20.5t-65 55.5t-23.5 79q0 54 28 85.5t91 45.5t169 14h35v21q0 50 -22 72t-74 22q-41 0 -84 -12.5t-87 -38.5l-36 85q26 18 61.5 31.5t75 21t74.5 7.5q107 0 159 -49.5t52 -153.5v-296h-117v78q-17 -41 -54 -64.5t-88 -23.5zM259 76q49 0 81.5 34
t32.5 86v22h-34q-94 0 -130.5 -14.5t-36.5 -52.5q0 -33 23 -54t64 -21zM322 597v115h116v-115h-116zM134 597v115h116v-115h-116z" />
    <glyph glyph-name="uni04D4" unicode="&#x4d4;" horiz-adv-x="992" 
d="M-36 0l438 705h539v-102h-401l42 -194h338v-102h-315l44 -205h292v-102h-385l-35 163h-324l-97 -163h-136zM433 562l-177 -297h243l-64 297h-2z" />
    <glyph glyph-name="uni04D5" unicode="&#x4d5;" horiz-adv-x="879" 
d="M243 -10q-58 0 -101.5 20.5t-67.5 55.5t-24 79q0 54 28 85.5t91.5 45.5t171.5 14h32v21q0 50 -22.5 72t-72.5 22q-42 0 -85 -12t-87 -39l-36 85q26 18 61.5 31.5t75 21t75.5 7.5q123 0 167 -77q29 38 74.5 57.5t92.5 19.5q102 0 162 -66t60 -180v-35h-344
q13 -133 146 -133q85 0 155 53l35 -85q-35 -29 -87.5 -46t-104.5 -17q-74 0 -130 27t-85 82q-22 -52 -68.5 -80.5t-111.5 -28.5zM619 414q-52 0 -84.5 -32t-39.5 -92h239q-4 60 -33 92t-82 32zM260 76q50 0 81.5 34.5t31.5 89.5v18h-34q-94 0 -130.5 -14.5t-36.5 -52.5
q0 -33 23 -54t65 -21z" />
    <glyph glyph-name="uni04D6" unicode="&#x4d6;" horiz-adv-x="597" 
d="M77 0v705h469v-102h-346v-194h324v-102h-324v-205h346v-102h-469zM327 760q-80 0 -130.5 38t-67.5 102l64 22q20 -49 52 -70.5t83 -21.5q52 0 83.5 22t53.5 69l62 -21q-23 -69 -75.5 -104.5t-124.5 -35.5z" />
    <glyph glyph-name="uni04D7" unicode="&#x4d7;" horiz-adv-x="556" 
d="M313 -10q-83 0 -143 31t-92.5 88t-32.5 135q0 76 31.5 133t87 89.5t126.5 32.5q104 0 164.5 -66t60.5 -180v-37h-350q14 -131 150 -131q41 0 82 12.5t75 39.5l35 -84q-35 -29 -88 -46t-106 -17zM295 414q-55 0 -89 -34t-41 -92h246q-4 61 -33.5 93.5t-82.5 32.5zM290 551
q-73 0 -120 37.5t-62 101.5l64 22q17 -48 45.5 -70t73.5 -22q46 0 74 22.5t47 68.5l61 -21q-21 -69 -68.5 -104t-114.5 -35z" />
    <glyph glyph-name="uni04D8" unicode="&#x4d8;" horiz-adv-x="785" 
d="M400 -10q-114 0 -191 46.5t-116 129.5t-39 193v47h541q-13 97 -74 148t-166 51q-67 0 -122 -17t-105 -54l-45 98q53 40 126 61.5t161 21.5q110 0 191 -44t126 -125t45 -194q0 -111 -42 -192t-116.5 -125.5t-173.5 -44.5zM394 96q86 0 138.5 52.5t62.5 153.5h-408
q20 -206 207 -206z" />
    <glyph glyph-name="uni04D9" unicode="&#x4d9;" horiz-adv-x="557" 
d="M271 -10q-108 0 -169 64.5t-61 183.5v35h351q-7 66 -44.5 98.5t-102.5 32.5q-84 0 -161 -52l-35 85q40 30 93 46t106 16q81 0 140.5 -31t91.5 -87.5t32 -134.5q0 -77 -31 -134.5t-85.5 -89.5t-124.5 -32zM268 75q51 0 84 32t40 94h-242q4 -64 34 -95t84 -31z" />
    <glyph glyph-name="uni04DA" unicode="&#x4da;" horiz-adv-x="785" 
d="M400 -10q-114 0 -191 46.5t-116 129.5t-39 193v47h541q-13 97 -74 148t-166 51q-67 0 -122 -17t-105 -54l-45 98q53 40 126 61.5t161 21.5q110 0 191 -44t126 -125t45 -194q0 -111 -42 -192t-116.5 -125.5t-173.5 -44.5zM394 96q86 0 138.5 52.5t62.5 153.5h-408
q20 -206 207 -206zM418 790v115h116v-115h-116zM230 790v115h116v-115h-116z" />
    <glyph glyph-name="uni04DB" unicode="&#x4db;" horiz-adv-x="557" 
d="M271 -10q-108 0 -169 64.5t-61 183.5v35h351q-7 66 -44.5 98.5t-102.5 32.5q-84 0 -161 -52l-35 85q40 30 93 46t106 16q81 0 140.5 -31t91.5 -87.5t32 -134.5q0 -77 -31 -134.5t-85.5 -89.5t-124.5 -32zM268 75q51 0 84 32t40 94h-242q4 -64 34 -95t84 -31zM285 597v115
h116v-115h-116zM97 597v115h116v-115h-116z" />
    <glyph glyph-name="uni04DC" unicode="&#x4dc;" horiz-adv-x="1014" 
d="M4 0l122 251q47 98 125 132l-210 322h141l189 -299h75v299h123v-299h75l189 299h141l-211 -322q40 -18 70.5 -50.5t54.5 -81.5l122 -251h-138l-95 203q-25 52 -58 74t-83 22h-67v-299h-123v299h-67q-51 0 -84.5 -22.5t-57.5 -73.5l-94 -203h-139zM543 790v115h116v-115
h-116zM355 790v115h116v-115h-116z" />
    <glyph glyph-name="uni04DD" unicode="&#x4dd;" horiz-adv-x="826" 
d="M-6 0l103 182q19 34 38.5 56t43.5 33l-163 218h134l142 -190h59v190h125v-190h59l141 190h134l-162 -218q24 -12 43.5 -33.5t38.5 -55.5l102 -182h-133l-82 144q-19 35 -39 46.5t-52 11.5h-50v-202h-125v202h-50q-33 0 -52 -11.5t-39 -46.5l-82 -144h-134zM449 597v115
h116v-115h-116zM261 597v115h116v-115h-116z" />
    <glyph glyph-name="uni04DE" unicode="&#x4de;" horiz-adv-x="634" 
d="M304 -10q-88 0 -156 22.5t-118 62.5l40 97q44 -36 99 -54.5t125 -18.5q83 0 122.5 27t39.5 82q0 99 -132 99h-171v101h154q131 0 131 97q0 47 -34.5 74.5t-108.5 27.5q-58 0 -112.5 -18t-97.5 -53l-40 96q47 40 116.5 61.5t147.5 21.5q128 0 192 -53.5t64 -139.5
q0 -57 -29.5 -98t-79.5 -60q59 -17 92.5 -59.5t33.5 -107.5q0 -94 -68 -150.5t-210 -56.5zM344 790v115h116v-115h-116zM156 790v115h116v-115h-116z" />
    <glyph glyph-name="uni04DF" unicode="&#x4df;" horiz-adv-x="519" 
d="M252 -10q-66 0 -124.5 15.5t-97.5 43.5l33 82q35 -25 85 -38t101 -13q62 0 90 15t28 47q0 60 -81 60h-130v90h118q36 0 55.5 15t19.5 42q0 29 -24.5 44.5t-83.5 15.5q-50 0 -92 -12t-79 -34l-33 80q86 56 225 56q98 0 149.5 -36.5t51.5 -101.5q0 -37 -21 -65.5t-57 -41.5
q46 -11 71 -41t25 -76q0 -67 -59 -107t-170 -40zM291 602v115h116v-115h-116zM103 602v115h116v-115h-116z" />
    <glyph glyph-name="uni04E0" unicode="&#x4e0;" horiz-adv-x="634" 
d="M304 -10q-88 0 -156 22.5t-118 62.5l44 97q44 -36 101 -55t119 -19q83 0 122.5 27t39.5 80t-34.5 77.5t-117.5 24.5h-114v80l208 212h-352v106h505v-89l-206 -210q113 0 175 -52t62 -145q0 -103 -70 -161t-208 -58z" />
    <glyph glyph-name="uni04E1" unicode="&#x4e1;" horiz-adv-x="516" 
d="M233 -190q-141 0 -224 60l37 87q70 -52 172 -52q73 0 109 30.5t36 88.5q0 53 -36 81.5t-106 28.5h-97v59l191 198h-283v98h424v-84l-178 -186q98 -2 153.5 -51.5t55.5 -135.5q0 -102 -68.5 -162t-185.5 -60z" />
    <glyph glyph-name="uni04E2" unicode="&#x4e2;" horiz-adv-x="748" 
d="M77 0v705h119v-496l379 496h96v-705h-119v498l-380 -498h-95zM202 806v74h345v-74h-345z" />
    <glyph glyph-name="uni04E3" unicode="&#x4e3;" horiz-adv-x="604" 
d="M71 0v489h113v-326l245 326h104v-489h-113v326l-245 -326h-104zM145 616v74h315v-74h-315z" />
    <glyph glyph-name="uni04E4" unicode="&#x4e4;" horiz-adv-x="748" 
d="M77 0v705h119v-496l379 496h96v-705h-119v498l-380 -498h-95zM410 790v115h116v-115h-116zM222 790v115h116v-115h-116z" />
    <glyph glyph-name="uni04E5" unicode="&#x4e5;" horiz-adv-x="604" 
d="M71 0v489h113v-326l245 326h104v-489h-113v326l-245 -326h-104zM338 597v115h116v-115h-116zM150 597v115h116v-115h-116z" />
    <glyph glyph-name="uni04E6" unicode="&#x4e6;" horiz-adv-x="785" 
d="M393 -10q-102 0 -178.5 45t-118.5 126.5t-42 191.5q0 111 42 192t118 125.5t179 44.5t179 -44.5t118 -125.5t42 -191q0 -111 -42 -192.5t-118 -126.5t-179 -45zM393 100q97 0 151 67t54 186q0 120 -53.5 186t-151.5 66q-97 0 -151 -66t-54 -186q0 -119 54 -186t151 -67z
M426 790v115h116v-115h-116zM238 790v115h116v-115h-116z" />
    <glyph glyph-name="uni04E7" unicode="&#x4e7;" horiz-adv-x="590" 
d="M295 -10q-76 0 -132 31t-87 88.5t-31 135.5t31 135t87 88t132 31t132 -31t87 -88t31 -135t-31 -135.5t-87 -88.5t-132 -31zM295 85q56 0 90 40.5t34 119.5q0 80 -34 119.5t-90 39.5t-90 -39.5t-34 -119.5q0 -79 34 -119.5t90 -40.5zM331 597v115h116v-115h-116zM143 597
v115h116v-115h-116z" />
    <glyph glyph-name="uni04E8" unicode="&#x4e8;" horiz-adv-x="785" 
d="M393 -10q-102 0 -178.5 45t-118.5 126.5t-42 191.5q0 111 42 192t118 125.5t179 44.5t179 -44.5t118 -125.5t42 -191q0 -111 -42 -192.5t-118 -126.5t-179 -45zM393 605q-85 0 -137.5 -52t-64.5 -147h404q-11 95 -63.5 147t-138.5 52zM393 100q88 0 140.5 55t62.5 155
h-406q10 -100 62.5 -155t140.5 -55z" />
    <glyph glyph-name="uni04E9" unicode="&#x4e9;" horiz-adv-x="590" 
d="M295 -10q-76 0 -132 31t-87 88.5t-31 135.5t31 135t87 88t132 31t132 -31t87 -88t31 -135t-31 -135.5t-87 -88.5t-132 -31zM295 404q-48 0 -80.5 -29.5t-40.5 -88.5h242q-8 59 -40.5 88.5t-80.5 29.5zM295 85q48 0 80.5 30t40.5 90h-242q8 -60 40 -90t81 -30z" />
    <glyph glyph-name="uni04EA" unicode="&#x4ea;" horiz-adv-x="785" 
d="M393 -10q-102 0 -178.5 45t-118.5 126.5t-42 191.5q0 111 42 192t118 125.5t179 44.5t179 -44.5t118 -125.5t42 -191q0 -111 -42 -192.5t-118 -126.5t-179 -45zM393 605q-85 0 -137.5 -52t-64.5 -147h404q-11 95 -63.5 147t-138.5 52zM393 100q88 0 140.5 55t62.5 155
h-406q10 -100 62.5 -155t140.5 -55zM426 790v115h116v-115h-116zM238 790v115h116v-115h-116z" />
    <glyph glyph-name="uni04EB" unicode="&#x4eb;" horiz-adv-x="590" 
d="M295 -10q-76 0 -132 31t-87 88.5t-31 135.5t31 135t87 88t132 31t132 -31t87 -88t31 -135t-31 -135.5t-87 -88.5t-132 -31zM295 404q-48 0 -80.5 -29.5t-40.5 -88.5h242q-8 59 -40.5 88.5t-80.5 29.5zM295 85q48 0 80.5 30t40.5 90h-242q8 -60 40 -90t81 -30zM331 597
v115h116v-115h-116zM143 597v115h116v-115h-116z" />
    <glyph glyph-name="uni04EC" unicode="&#x4ec;" horiz-adv-x="679" 
d="M274 -10q-71 0 -134.5 22.5t-104.5 62.5l42 102q45 -38 92 -55.5t101 -17.5q94 0 150.5 51.5t68.5 152.5h-320v102h318q-13 92 -67 141.5t-140 49.5q-54 0 -102 -16.5t-101 -56.5l-42 102q49 41 113.5 63t135.5 22q105 0 181.5 -44.5t118 -125.5t41.5 -192t-42 -192.5
t-120.5 -126t-188.5 -44.5zM340 790v115h116v-115h-116zM152 790v115h116v-115h-116z" />
    <glyph glyph-name="uni04ED" unicode="&#x4ed;" horiz-adv-x="512" 
d="M208 -10q-53 0 -105 16t-81 44l36 79q29 -24 67 -37t74 -13q60 0 99 31.5t50 91.5h-229v90h229q-11 53 -47.5 85.5t-101.5 32.5q-36 0 -74 -12.5t-67 -37.5l-36 80q33 28 84 43.5t103 15.5q79 0 137 -30.5t89.5 -87t31.5 -134.5q0 -79 -31.5 -136.5t-89.5 -89t-138 -31.5
zM263 597v115h116v-115h-116zM75 597v115h116v-115h-116z" />
    <glyph glyph-name="uni04EE" unicode="&#x4ee;" horiz-adv-x="660" 
d="M181 0l109 213l-304 492h137l227 -374l191 374h132l-359 -705h-133zM162 806v74h345v-74h-345z" />
    <glyph glyph-name="uni04EF" unicode="&#x4ef;" horiz-adv-x="540" 
d="M116 -180l90 200l-203 469h133l137 -342l140 342h126l-294 -669h-129zM114 616v74h315v-74h-315z" />
    <glyph glyph-name="uni04F0" unicode="&#x4f0;" horiz-adv-x="660" 
d="M181 0l109 213l-304 492h137l227 -374l191 374h132l-359 -705h-133zM370 790v115h116v-115h-116zM182 790v115h116v-115h-116z" />
    <glyph glyph-name="uni04F1" unicode="&#x4f1;" horiz-adv-x="540" 
d="M116 -180l90 200l-203 469h133l137 -342l140 342h126l-294 -669h-129zM307 597v115h116v-115h-116zM119 597v115h116v-115h-116z" />
    <glyph glyph-name="uni04F2" unicode="&#x4f2;" horiz-adv-x="660" 
d="M181 0l109 213l-304 492h137l227 -374l191 374h132l-359 -705h-133zM226 765l85 174h112l-127 -174h-70zM372 765l95 174h112l-136 -174h-71z" />
    <glyph glyph-name="uni04F3" unicode="&#x4f3;" horiz-adv-x="540" 
d="M116 -180l90 200l-203 469h133l137 -342l140 342h126l-294 -669h-129zM311 554l49 203h105l-88 -203h-66zM162 554l50 203h105l-89 -203h-66z" />
    <glyph glyph-name="uni04F4" unicode="&#x4f4;" horiz-adv-x="697" 
d="M492 0v275q-27 -13 -69.5 -21t-84.5 -8q-137 0 -211 74t-74 222v163h128v-157q0 -100 43 -146t128 -46q36 0 72.5 7.5t67.5 23.5v318h128v-705h-128zM367 790v115h116v-115h-116zM179 790v115h116v-115h-116z" />
    <glyph glyph-name="uni04F5" unicode="&#x4f5;" horiz-adv-x="574" 
d="M380 0v177q-27 -13 -55.5 -19.5t-58.5 -6.5q-215 0 -215 211v127h125v-116q0 -64 26 -92.5t86 -28.5q27 0 49 6t41 19v212h125v-489h-123zM313 597v115h116v-115h-116zM125 597v115h116v-115h-116z" />
    <glyph glyph-name="uni04F6" unicode="&#x4f6;" horiz-adv-x="559" 
d="M77 0v705h466v-107h-338v-495h100v-268h-114v165h-114z" />
    <glyph glyph-name="uni04F7" unicode="&#x4f7;" horiz-adv-x="457" 
d="M71 0v489h370v-98h-245v-296h80v-225h-106v130h-99z" />
    <glyph glyph-name="uni04F8" unicode="&#x4f8;" horiz-adv-x="901" 
d="M77 0v705h128v-294h161q113 0 176.5 -52t63.5 -153q0 -100 -63.5 -153t-176.5 -53h-289zM696 0v705h128v-705h-128zM205 102h145q132 0 132 104q0 103 -132 103h-145v-207zM487 790v115h116v-115h-116zM299 790v115h116v-115h-116z" />
    <glyph glyph-name="uni04F9" unicode="&#x4f9;" horiz-adv-x="776" 
d="M71 0v489h125v-162h129q97 0 146.5 -41t49.5 -120q0 -75 -52.5 -120.5t-143.5 -45.5h-254zM580 0v489h125v-489h-125zM196 82h110q47 0 73 20.5t26 62.5q0 41 -26 60.5t-73 19.5h-110v-163zM424 597v115h116v-115h-116zM236 597v115h116v-115h-116z" />
    <glyph glyph-name="uni04FA" unicode="&#x4fa;" horiz-adv-x="601" 
d="M90 -185l-9 87l51 4q52 4 75 27.5t23 66.5h-111v301h-95v93h95v311h466v-107h-338v-204h180v-93h-180v-198h100v-80q0 -98 -47 -147.5t-148 -56.5z" />
    <glyph glyph-name="uni04FB" unicode="&#x4fb;" horiz-adv-x="481" 
d="M75 -185l-8 86l56 5q36 3 50.5 27t14.5 67h-93v186h-90v88h90v215h370v-98h-245v-117h140v-88h-140v-88h80v-75q0 -98 -43 -147.5t-119 -55.5z" />
    <glyph glyph-name="uni04FC" unicode="&#x4fc;" horiz-adv-x="672" 
d="M414 -187l-23 102q62 6 85 27.5t23 60.5q0 37 -50 106l-113 155l-191 -264h-151l269 359l-259 346h149l183 -253l183 253h150l-259 -347l149 -200q40 -52 56 -93.5t16 -76.5q0 -75 -52.5 -119.5t-164.5 -55.5z" />
    <glyph glyph-name="uni04FD" unicode="&#x4fd;" horiz-adv-x="560" 
d="M335 -187l-20 88q50 5 72 21.5t22 47.5q0 20 -13 43t-43 60l-73 91l-130 -164h-146l205 252l-193 237h146l119 -152l118 152h146l-193 -237l103 -126q43 -52 61 -86.5t18 -73.5q0 -64 -47.5 -103.5t-151.5 -49.5z" />
    <glyph glyph-name="uni04FE" unicode="&#x4fe;" horiz-adv-x="672" 
d="M-6 0l269 359l-259 346h149l183 -253l183 253h150l-259 -346l268 -359h-150l-192 264l-191 -264h-151zM109 319v88h455v-88h-455z" />
    <glyph glyph-name="uni04FF" unicode="&#x4ff;" horiz-adv-x="560" 
d="M4 0l205 253l-192 236h146l118 -151l118 151h146l-193 -237l206 -252h-147l-131 165l-130 -165h-146zM54 205v88h455v-88h-455z" />
    <glyph glyph-name="uni0510" unicode="&#x510;" horiz-adv-x="634" 
d="M330 -10q-142 0 -210 56.5t-68 150.5q0 65 33.5 107.5t92.5 59.5q-50 19 -79.5 60t-29.5 98q0 86 67.5 139.5t195.5 53.5q78 0 144 -21.5t113 -61.5l-40 -96q-43 35 -97 53t-113 18q-73 0 -108 -27.5t-35 -74.5q0 -97 131 -97h154v-102h-171q-132 0 -132 -98
q0 -55 39.5 -82t122.5 -27q70 0 125.5 18.5t98.5 54.5l40 -97q-49 -40 -117 -62.5t-157 -22.5z" />
    <glyph glyph-name="uni0511" unicode="&#x511;" horiz-adv-x="519" 
d="M267 -10q-111 0 -170 40t-59 107q0 46 25 76t71 41q-36 13 -57 41.5t-21 65.5q0 65 58 101.5t158 36.5q58 0 113.5 -14.5t96.5 -41.5l-33 -80q-37 22 -78 34t-88 12q-59 0 -86 -16.5t-27 -45.5q0 -55 75 -55h118v-90h-130q-81 0 -81 -58q0 -31 28.5 -47.5t89.5 -16.5
q51 0 101 12.5t85 37.5l33 -81q-39 -28 -97.5 -43.5t-124.5 -15.5z" />
    <glyph glyph-name="uni0512" unicode="&#x512;" horiz-adv-x="752" 
d="M426 -193l-8 91l48 5q81 9 81 90v605h-252v-140q0 -135 -25.5 -228.5t-74.5 -152.5t-118 -94l-63 95q40 23 70.5 53.5t51 77t31 115.5t10.5 167v214h498v-696q0 -98 -47 -144.5t-158 -54.5z" />
    <glyph glyph-name="uni0513" unicode="&#x513;" horiz-adv-x="597" 
d="M287 -193l-9 91l46 5q77 9 77 90v398h-154v-57q0 -158 -44.5 -240.5t-144.5 -107.5l-39 99q42 15 67 43.5t35.5 79t10.5 130.5v151h394v-493q0 -91 -49 -135t-147 -51z" />
    <glyph glyph-name="uni051A" unicode="&#x51a;" horiz-adv-x="785" 
d="M584 -213l-97 157q-29 46 -95 46v0q-102 0 -178 45t-118 126.5t-42 191.5q0 111 42 192t118 125.5t179 44.5t179 -44.5t118 -125.5t42 -191q0 -120 -49.5 -206t-136.5 -126q43 -14 74 -67l73 -116zM393 100q97 0 151 67t54 186q0 120 -53.5 186t-151.5 66q-97 0 -151 -66
t-54 -186q0 -119 54 -186t151 -67z" />
    <glyph glyph-name="uni051B" unicode="&#x51b;" horiz-adv-x="614" 
d="M417 -180v254q-21 -38 -63 -61t-94 -23q-64 0 -112.5 31t-75.5 88.5t-27 135.5q0 79 27 135.5t75.5 87.5t112.5 31q54 0 97 -24.5t63 -65.5v80h122v-669h-125zM295 85q56 0 90 40.5t34 119.5q0 80 -34 119.5t-90 39.5t-90 -39.5t-34 -119.5q0 -79 34 -119.5t90 -40.5z
" />
    <glyph glyph-name="uni051C" unicode="&#x51c;" horiz-adv-x="1113" 
d="M271 0l-249 705h132l175 -520l184 520h95l180 -527l180 527h125l-251 -705h-106l-179 509l-180 -509h-106z" />
    <glyph glyph-name="uni051D" unicode="&#x51d;" horiz-adv-x="867" 
d="M207 0l-193 489h128l125 -344l126 344h88l126 -346l125 346h121l-192 -489h-109l-119 315l-117 -315h-109z" />
    <glyph glyph-name="uni0524" unicode="&#x524;" horiz-adv-x="812" 
d="M676 -165v165h-114v598h-357v-598h-128v705h613v-602h100v-268h-114z" />
    <glyph glyph-name="uni0525" unicode="&#x525;" horiz-adv-x="635" 
d="M508 -130v130h-99v391h-213v-391h-125v489h463v-394h80v-225h-106z" />
    <glyph glyph-name="uni0526" unicode="&#x526;" horiz-adv-x="741" 
d="M630 -165v165h-114v157q0 101 -43 146.5t-129 45.5q-36 0 -72 -6.5t-67 -23.5v-319h-128v705h128v-275q27 14 69 21.5t84 7.5q138 0 212 -73.5t74 -222.5v-60h100v-268h-114z" />
    <glyph glyph-name="uni0527" unicode="&#x527;" horiz-adv-x="620" 
d="M72 0v705h125v-287q25 40 67 60.5t93 20.5q173 0 173 -201v-203h80v-225h-106v130h-99v292q0 57 -21.5 83t-66.5 26q-55 0 -87.5 -34.5t-32.5 -91.5v-275h-125z" />
    <glyph glyph-name="uni0528" unicode="&#x528;" horiz-adv-x="773" 
d="M-39 -193l-8 91l46 5q78 9 78 90v712h128v-294h363v294h128v-705h-128v304h-363v-300q0 -95 -46 -141t-153 -53z" />
    <glyph glyph-name="uni0529" unicode="&#x529;" horiz-adv-x="608" 
d="M-43 -193l-9 91l46 5q77 9 77 90v496h125v-189h216v189h125v-489h-125v202h-216v-193q0 -98 -45 -144.5t-150 -54.5z" />
    <glyph glyph-name="uni052E" unicode="&#x52e;" horiz-adv-x="797" 
d="M661 -165v165h-114v598h-252v-140q0 -135 -25.5 -228.5t-74.5 -152.5t-118 -94l-63 95q40 23 70.5 53.5t51 77t31 115.5t10.5 167v214h498v-602h100v-268h-114z" />
    <glyph glyph-name="uni052F" unicode="&#x52f;" horiz-adv-x="627" 
d="M58 -14l-39 99q42 15 67 43.5t35.5 79t10.5 130.5v151h394v-394h80v-225h-106v130h-99v391h-154v-57q0 -158 -44.5 -240.5t-144.5 -107.5z" />
    <glyph glyph-name="uni1E08" unicode="&#x1e08;" horiz-adv-x="679" 
d="M405 -10q-110 0 -188.5 44.5t-120.5 126t-42 192.5t42 192t120.5 125.5t188.5 44.5q71 0 134.5 -22t104.5 -63l-42 -102q-45 38 -92 55.5t-101 17.5q-107 0 -163 -64.5t-56 -183.5t56 -184t163 -65q54 0 101 17.5t92 55.5l42 -102q-41 -40 -104.5 -62.5t-134.5 -22.5z
M392 -195q-29 0 -56 5.5t-46 15.5l18 56q18 -8 35.5 -12.5t38.5 -4.5q54 0 54 30q0 23 -37 23q-10 0 -19 -1t-22 -5l-19 18l13 90h67l-10 -58q6 1 11 1q41 0 66 -19t25 -53q0 -39 -33 -62.5t-86 -23.5zM348 765l118 174h130l-159 -174h-89z" />
    <glyph glyph-name="uni1E09" unicode="&#x1e09;" horiz-adv-x="472" 
d="M291 -10q-77 0 -134 31.5t-88 89.5t-31 136t31 134.5t88 87t134 30.5q47 0 93 -15t76 -42l-37 -87q-26 23 -58.5 35t-62.5 12q-65 0 -100.5 -40.5t-35.5 -115.5q0 -74 35.5 -116.5t100.5 -42.5q29 0 62 12t59 36l37 -88q-30 -26 -76.5 -41.5t-92.5 -15.5zM284 -195
q-29 0 -56 5.5t-46 15.5l18 56q18 -8 35.5 -12.5t38.5 -4.5q54 0 54 30q0 23 -37 23q-10 0 -19 -1t-22 -5l-19 18l13 90h67l-10 -58q6 1 11 1q41 0 66 -19t25 -53q0 -39 -33 -62.5t-86 -23.5zM241 554l103 203h123l-142 -203h-84z" />
    <glyph glyph-name="uni1E0C" unicode="&#x1e0c;" horiz-adv-x="762" 
d="M77 0v705h262q177 0 273.5 -91t96.5 -261q0 -169 -96.5 -261t-273.5 -92h-262zM205 106h126q244 0 244 247q0 246 -244 246h-126v-493zM318 -204v116h122v-116h-122z" />
    <glyph glyph-name="uni1E0D" unicode="&#x1e0d;" 
d="M253 -10q-64 0 -112.5 31t-75.5 88.5t-27 135.5q0 79 27 135.5t75.5 87.5t112.5 31q52 0 94 -23t63 -61v290h125v-705h-122v81q-20 -42 -63 -66.5t-97 -24.5zM288 85q56 0 90 40.5t34 119.5q0 80 -34 119.5t-90 39.5t-90 -39.5t-34 -119.5q0 -79 34 -119.5t90 -40.5z
M240 -204v116h122v-116h-122z" />
    <glyph glyph-name="uni1E0E" unicode="&#x1e0e;" horiz-adv-x="762" 
d="M77 0v705h262q177 0 273.5 -91t96.5 -261q0 -169 -96.5 -261t-273.5 -92h-262zM205 106h126q244 0 244 247q0 246 -244 246h-126v-493zM222 -165v74h315v-74h-315z" />
    <glyph glyph-name="uni1E0F" unicode="&#x1e0f;" 
d="M253 -10q-64 0 -112.5 31t-75.5 88.5t-27 135.5q0 79 27 135.5t75.5 87.5t112.5 31q52 0 94 -23t63 -61v290h125v-705h-122v81q-20 -42 -63 -66.5t-97 -24.5zM288 85q56 0 90 40.5t34 119.5q0 80 -34 119.5t-90 39.5t-90 -39.5t-34 -119.5q0 -79 34 -119.5t90 -40.5z
M144 -165v74h315v-74h-315z" />
    <glyph glyph-name="uni1E14" unicode="&#x1e14;" horiz-adv-x="597" 
d="M77 0v705h469v-102h-346v-194h324v-102h-324v-205h346v-102h-469zM289 894l-114 132h119l73 -132h-78zM171 783v74h315v-74h-315z" />
    <glyph glyph-name="uni1E15" unicode="&#x1e15;" horiz-adv-x="542" 
d="M306 -10q-83 0 -143 31t-92.5 88t-32.5 135q0 76 31.5 133t87 89.5t126.5 32.5q104 0 164.5 -66t60.5 -180v-37h-350q14 -131 150 -131q41 0 82 12.5t75 39.5l35 -84q-35 -29 -88 -46t-106 -17zM288 414q-55 0 -89 -34t-41 -92h246q-4 61 -33.5 93.5t-82.5 32.5zM245 678
l-114 132h119l73 -132h-78zM127 567v74h315v-74h-315z" />
    <glyph glyph-name="uni1E16" unicode="&#x1e16;" horiz-adv-x="597" 
d="M77 0v705h469v-102h-346v-194h324v-102h-324v-205h346v-102h-469zM289 894l73 132h120l-115 -132h-78zM171 783v74h315v-74h-315z" />
    <glyph glyph-name="uni1E17" unicode="&#x1e17;" horiz-adv-x="542" 
d="M306 -10q-83 0 -143 31t-92.5 88t-32.5 135q0 76 31.5 133t87 89.5t126.5 32.5q104 0 164.5 -66t60.5 -180v-37h-350q14 -131 150 -131q41 0 82 12.5t75 39.5l35 -84q-35 -29 -88 -46t-106 -17zM288 414q-55 0 -89 -34t-41 -92h246q-4 61 -33.5 93.5t-82.5 32.5zM245 678
l73 132h120l-115 -132h-78zM127 567v74h315v-74h-315z" />
    <glyph glyph-name="uni1E1C" unicode="&#x1e1c;" horiz-adv-x="597" 
d="M77 0v705h469v-102h-346v-194h324v-102h-324v-205h346v-102h-469zM329 -195q-29 0 -56 5.5t-46 15.5l18 56q18 -8 35.5 -12.5t38.5 -4.5q54 0 54 30q0 23 -37 23q-10 0 -19 -1t-22 -5l-19 18l13 90h67l-10 -58q6 1 11 1q41 0 66 -19t25 -53q0 -39 -33 -62.5t-86 -23.5z
M328 760q-77 0 -127 46t-55 124l71 9q5 -49 33.5 -76.5t77.5 -27.5q48 0 78 27.5t34 76.5l71 -9q-6 -78 -55.5 -124t-127.5 -46z" />
    <glyph glyph-name="uni1E1D" unicode="&#x1e1d;" horiz-adv-x="542" 
d="M306 -10q-83 0 -143 31t-92.5 88t-32.5 135q0 76 31.5 133t87 89.5t126.5 32.5q104 0 164.5 -66t60.5 -180v-37h-350q14 -131 150 -131q41 0 82 12.5t75 39.5l35 -84q-35 -29 -88 -46t-106 -17zM288 414q-55 0 -89 -34t-41 -92h246q-4 61 -33.5 93.5t-82.5 32.5z
M285 -195q-29 0 -56 5.5t-46 15.5l18 56q18 -8 35.5 -12.5t38.5 -4.5q54 0 54 30q0 23 -37 23q-10 0 -19 -1t-22 -5l-19 18l13 90h67l-10 -58q6 1 11 1q41 0 66 -19t25 -53q0 -39 -33 -62.5t-86 -23.5zM284 551q-73 0 -118 52t-48 141l71 7q4 -60 28.5 -92t66.5 -32t66.5 32
t28.5 92l71 -7q-2 -89 -47 -141t-119 -52z" />
    <glyph glyph-name="uni1E20" unicode="&#x1e20;" horiz-adv-x="736" 
d="M416 -10q-117 0 -197.5 44t-122.5 125t-42 192q0 112 43 193.5t124 126t194 44.5q74 0 139 -21.5t108 -59.5l-43 -100q-47 37 -96 53t-108 16q-112 0 -169.5 -65t-57.5 -187q0 -123 59 -187t175 -64q33 0 67.5 5.5t68.5 16.5v164h-162v95h269v-339q-49 -24 -116 -38
t-133 -14zM229 806v74h345v-74h-345z" />
    <glyph glyph-name="uni1E21" unicode="&#x1e21;" horiz-adv-x="604" 
d="M293 -190q-68 0 -127.5 15.5t-104.5 47.5l36 87q42 -28 90 -41.5t96 -13.5q134 0 134 129v67q-21 -41 -64.5 -65t-96.5 -24q-66 0 -115 30.5t-76 85.5t-27 128t27 127.5t76 85t115 30.5q55 0 98 -24.5t63 -65.5v80h122v-440q0 -119 -63 -179t-183 -60zM290 107
q58 0 92 40t34 109t-34 108.5t-92 39.5t-92 -39.5t-34 -108.5t34 -109t92 -40zM145 616v74h315v-74h-315z" />
    <glyph glyph-name="uni1E24" unicode="&#x1e24;" horiz-adv-x="773" 
d="M77 0v705h128v-294h363v294h128v-705h-128v304h-363v-304h-128zM326 -204v116h122v-116h-122z" />
    <glyph glyph-name="uni1E25" unicode="&#x1e25;" horiz-adv-x="585" 
d="M65 0v705h125v-287q25 40 67 60.5t93 20.5q173 0 173 -201v-298h-125v292q0 57 -21.5 83t-66.5 26q-55 0 -87.5 -34.5t-32.5 -91.5v-275h-125zM233 -204v116h122v-116h-122z" />
    <glyph glyph-name="uni1E2A" unicode="&#x1e2a;" horiz-adv-x="773" 
d="M77 0v705h128v-294h363v294h128v-705h-128v304h-363v-304h-128zM387 -215q-73 0 -118 41.5t-48 111.5l71 7q4 -40 28.5 -63t66.5 -23t66.5 23t28.5 63l71 -7q-2 -70 -47 -111.5t-119 -41.5z" />
    <glyph glyph-name="uni1E2B" unicode="&#x1e2b;" horiz-adv-x="585" 
d="M65 0v705h125v-287q25 40 67 60.5t93 20.5q173 0 173 -201v-298h-125v292q0 57 -21.5 83t-66.5 26q-55 0 -87.5 -34.5t-32.5 -91.5v-275h-125zM294 -215q-73 0 -118 41.5t-48 111.5l71 7q4 -40 28.5 -63t66.5 -23t66.5 23t28.5 63l71 -7q-2 -70 -47 -111.5t-119 -41.5z
" />
    <glyph glyph-name="uni1E2E" unicode="&#x1e2e;" horiz-adv-x="281" 
d="M77 0v705h128v-705h-128zM102 894l73 132h120l-115 -132h-78zM-11 770v88h116v-88h-116zM177 770v88h116v-88h-116z" />
    <glyph glyph-name="uni1E2F" unicode="&#x1e2f;" horiz-adv-x="255" 
d="M65 0v489h125v-489h-125zM88 678l73 132h120l-115 -132h-78zM-25 554v88h116v-88h-116zM163 554v88h116v-88h-116z" />
    <glyph glyph-name="uni1E36" unicode="&#x1e36;" horiz-adv-x="562" 
d="M77 0v705h128v-596h338v-109h-466zM249 -204v116h122v-116h-122z" />
    <glyph glyph-name="uni1E37" unicode="&#x1e37;" horiz-adv-x="319" 
d="M235 -10q-87 0 -128.5 47.5t-41.5 139.5v528h125v-522q0 -90 76 -90q11 0 22 1t21 4l-2 -99q-36 -9 -72 -9zM131 -204v116h122v-116h-122z" />
    <glyph glyph-name="uni1E3A" unicode="&#x1e3a;" horiz-adv-x="562" 
d="M77 0v705h128v-596h338v-109h-466zM153 -165v74h315v-74h-315z" />
    <glyph glyph-name="uni1E3B" unicode="&#x1e3b;" horiz-adv-x="319" 
d="M235 -10q-87 0 -128.5 47.5t-41.5 139.5v528h125v-522q0 -90 76 -90q11 0 22 1t21 4l-2 -99q-36 -9 -72 -9zM35 -165v74h315v-74h-315z" />
    <glyph glyph-name="uni1E42" unicode="&#x1e42;" horiz-adv-x="868" 
d="M79 0v705h107l250 -461l249 461h105v-705h-116v475l-202 -368h-75l-202 366v-473h-116zM374 -204v116h122v-116h-122z" />
    <glyph glyph-name="uni1E43" unicode="&#x1e43;" horiz-adv-x="877" 
d="M67 0v489h122v-75q22 40 61 62.5t90 22.5q110 0 144 -96q23 45 66 70.5t98 25.5q165 0 165 -201v-298h-125v293q0 56 -18.5 82t-62.5 26q-49 0 -77 -34.5t-28 -95.5v-271h-125v293q0 56 -18.5 82t-61.5 26q-49 0 -77 -34.5t-28 -95.5v-271h-125zM379 -204v116h122v-116
h-122z" />
    <glyph glyph-name="uni1E44" unicode="&#x1e44;" horiz-adv-x="748" 
d="M77 0v705h96l379 -492v492h119v-705h-95l-380 494v-494h-119zM313 794v116h122v-116h-122z" />
    <glyph glyph-name="uni1E45" unicode="&#x1e45;" horiz-adv-x="585" 
d="M65 0v489h122v-76q25 42 67.5 64t95.5 22q173 0 173 -201v-298h-125v292q0 57 -21.5 83t-66.5 26q-55 0 -87.5 -34.5t-32.5 -91.5v-275h-125zM233 597v116h122v-116h-122z" />
    <glyph glyph-name="uni1E46" unicode="&#x1e46;" horiz-adv-x="748" 
d="M77 0v705h96l379 -492v492h119v-705h-95l-380 494v-494h-119zM313 -204v116h122v-116h-122z" />
    <glyph glyph-name="uni1E47" unicode="&#x1e47;" horiz-adv-x="585" 
d="M65 0v489h122v-76q25 42 67.5 64t95.5 22q173 0 173 -201v-298h-125v292q0 57 -21.5 83t-66.5 26q-55 0 -87.5 -34.5t-32.5 -91.5v-275h-125zM233 -204v116h122v-116h-122z" />
    <glyph glyph-name="uni1E48" unicode="&#x1e48;" horiz-adv-x="748" 
d="M77 0v705h96l379 -492v492h119v-705h-95l-380 494v-494h-119zM217 -165v74h315v-74h-315z" />
    <glyph glyph-name="uni1E49" unicode="&#x1e49;" horiz-adv-x="585" 
d="M65 0v489h122v-76q25 42 67.5 64t95.5 22q173 0 173 -201v-298h-125v292q0 57 -21.5 83t-66.5 26q-55 0 -87.5 -34.5t-32.5 -91.5v-275h-125zM137 -165v74h315v-74h-315z" />
    <glyph glyph-name="uni1E4C" unicode="&#x1e4c;" horiz-adv-x="785" 
d="M393 -10q-102 0 -178.5 45t-118.5 126.5t-42 191.5q0 111 42 192t118 125.5t179 44.5t179 -44.5t118 -125.5t42 -191q0 -111 -42 -192.5t-118 -126.5t-179 -45zM393 100q97 0 151 67t54 186q0 120 -53.5 186t-151.5 66q-97 0 -151 -66t-54 -186q0 -119 54 -186t151 -67z
M353 894l73 132h120l-115 -132h-78zM459 767q-19 0 -36.5 6t-40.5 19q-19 11 -30.5 15t-21.5 4q-23 0 -35 -11t-17 -34l-58 3q4 54 33.5 81t72.5 27q17 0 34 -5.5t42 -19.5q19 -10 31 -14.5t22 -4.5q42 0 51 45l58 -3q-4 -54 -32.5 -81t-72.5 -27z" />
    <glyph glyph-name="uni1E4D" unicode="&#x1e4d;" horiz-adv-x="576" 
d="M288 -10q-76 0 -132 31t-87 88.5t-31 135.5t31 135t87 88t132 31t132 -31t87 -88t31 -135t-31 -135.5t-87 -88.5t-132 -31zM288 85q56 0 90 40.5t34 119.5q0 80 -34 119.5t-90 39.5t-90 -39.5t-34 -119.5q0 -79 34 -119.5t90 -40.5zM249 678l73 132h120l-115 -132h-78z
M174 550l-58 3q4 54 33.5 81t72.5 27q16 0 34 -5.5t42 -19.5q14 -8 28 -13.5t25 -5.5q42 0 51 45l58 -3q-4 -54 -32.5 -81t-72.5 -27q-33 0 -77 25q-19 11 -31 15t-21 4q-23 0 -35 -11t-17 -34z" />
    <glyph glyph-name="uni1E4E" unicode="&#x1e4e;" horiz-adv-x="785" 
d="M393 -10q-102 0 -178.5 45t-118.5 126.5t-42 191.5q0 111 42 192t118 125.5t179 44.5t179 -44.5t118 -125.5t42 -191q0 -111 -42 -192.5t-118 -126.5t-179 -45zM393 100q97 0 151 67t54 186q0 120 -53.5 186t-151.5 66q-97 0 -151 -66t-54 -186q0 -119 54 -186t151 -67z
M240 913v88h116v-88h-116zM428 913v88h116v-88h-116zM459 767q-19 0 -36.5 6t-40.5 19q-19 11 -30.5 15t-21.5 4q-23 0 -35 -11t-17 -34l-58 3q4 54 33.5 81t72.5 27q17 0 34 -5.5t42 -19.5q19 -10 31 -14.5t22 -4.5q42 0 51 45l58 -3q-4 -54 -32.5 -81t-72.5 -27z" />
    <glyph glyph-name="uni1E4F" unicode="&#x1e4f;" horiz-adv-x="576" 
d="M288 -10q-76 0 -132 31t-87 88.5t-31 135.5t31 135t87 88t132 31t132 -31t87 -88t31 -135t-31 -135.5t-87 -88.5t-132 -31zM288 85q56 0 90 40.5t34 119.5q0 80 -34 119.5t-90 39.5t-90 -39.5t-34 -119.5q0 -79 34 -119.5t90 -40.5zM137 697v88h114v-88h-114zM325 697v88
h115v-88h-115zM174 550l-58 3q4 54 33.5 81t72.5 27q16 0 34 -5.5t42 -19.5q14 -8 28 -13.5t25 -5.5q42 0 51 45l58 -3q-4 -54 -32.5 -81t-72.5 -27q-33 0 -77 25q-19 11 -31 15t-21 4q-23 0 -35 -11t-17 -34z" />
    <glyph glyph-name="uni1E50" unicode="&#x1e50;" horiz-adv-x="785" 
d="M393 -10q-102 0 -178.5 45t-118.5 126.5t-42 191.5q0 111 42 192t118 125.5t179 44.5t179 -44.5t118 -125.5t42 -191q0 -111 -42 -192.5t-118 -126.5t-179 -45zM393 100q97 0 151 67t54 186q0 120 -53.5 186t-151.5 66q-97 0 -151 -66t-54 -186q0 -119 54 -186t151 -67z
M353 894l-114 132h119l73 -132h-78zM235 783v74h315v-74h-315z" />
    <glyph glyph-name="uni1E51" unicode="&#x1e51;" horiz-adv-x="576" 
d="M288 -10q-76 0 -132 31t-87 88.5t-31 135.5t31 135t87 88t132 31t132 -31t87 -88t31 -135t-31 -135.5t-87 -88.5t-132 -31zM288 85q56 0 90 40.5t34 119.5q0 80 -34 119.5t-90 39.5t-90 -39.5t-34 -119.5q0 -79 34 -119.5t90 -40.5zM249 678l-114 132h119l73 -132h-78z
M131 567v74h315v-74h-315z" />
    <glyph glyph-name="uni1E52" unicode="&#x1e52;" horiz-adv-x="785" 
d="M393 -10q-102 0 -178.5 45t-118.5 126.5t-42 191.5q0 111 42 192t118 125.5t179 44.5t179 -44.5t118 -125.5t42 -191q0 -111 -42 -192.5t-118 -126.5t-179 -45zM393 100q97 0 151 67t54 186q0 120 -53.5 186t-151.5 66q-97 0 -151 -66t-54 -186q0 -119 54 -186t151 -67z
M353 894l73 132h120l-115 -132h-78zM235 783v74h315v-74h-315z" />
    <glyph glyph-name="uni1E53" unicode="&#x1e53;" horiz-adv-x="576" 
d="M288 -10q-76 0 -132 31t-87 88.5t-31 135.5t31 135t87 88t132 31t132 -31t87 -88t31 -135t-31 -135.5t-87 -88.5t-132 -31zM288 85q56 0 90 40.5t34 119.5q0 80 -34 119.5t-90 39.5t-90 -39.5t-34 -119.5q0 -79 34 -119.5t90 -40.5zM249 678l73 132h120l-115 -132h-78z
M131 567v74h315v-74h-315z" />
    <glyph glyph-name="uni1E5A" unicode="&#x1e5a;" horiz-adv-x="686" 
d="M77 0v705h306q116 0 179 -55.5t63 -155.5q0 -79 -41 -130.5t-118 -69.5q51 -16 84 -77l118 -217h-141l-122 225q-18 33 -42.5 45t-62.5 12h-95v-282h-128zM205 377h156q140 0 140 114q0 113 -140 113h-156v-227zM288 -204v116h122v-116h-122z" />
    <glyph glyph-name="uni1E5B" unicode="&#x1e5b;" horiz-adv-x="392" 
d="M65 0v489h122v-86q36 87 154 96l38 3l8 -106l-72 -7q-123 -12 -123 -126v-263h-127zM67 -204v116h122v-116h-122z" />
    <glyph glyph-name="uni1E5E" unicode="&#x1e5e;" horiz-adv-x="686" 
d="M77 0v705h306q116 0 179 -55.5t63 -155.5q0 -79 -41 -130.5t-118 -69.5q51 -16 84 -77l118 -217h-141l-122 225q-18 33 -42.5 45t-62.5 12h-95v-282h-128zM205 377h156q140 0 140 114q0 113 -140 113h-156v-227zM192 -165v74h315v-74h-315z" />
    <glyph glyph-name="uni1E5F" unicode="&#x1e5f;" horiz-adv-x="392" 
d="M65 0v489h122v-86q36 87 154 96l38 3l8 -106l-72 -7q-123 -12 -123 -126v-263h-127zM-29 -165v74h315v-74h-315z" />
    <glyph glyph-name="uni1E60" unicode="&#x1e60;" horiz-adv-x="631" 
d="M320 -10q-83 0 -154 21.5t-120 58.5l39 101q49 -35 107.5 -54t127.5 -19q79 0 115 26.5t36 68.5q0 35 -25.5 55t-87.5 33l-110 23q-188 40 -188 193q0 66 35 115t97 76t143 27q72 0 135 -21.5t105 -60.5l-39 -96q-83 70 -202 70q-69 0 -108 -29t-39 -76q0 -36 24 -57.5
t82 -33.5l109 -23q99 -21 147.5 -66t48.5 -120q0 -63 -34 -111t-96.5 -74.5t-147.5 -26.5zM264 794v116h122v-116h-122z" />
    <glyph glyph-name="uni1E61" unicode="&#x1e61;" horiz-adv-x="488" 
d="M244 -10q-62 0 -116 15t-90 43l32 82q37 -25 83 -38.5t92 -13.5q48 0 71.5 16.5t23.5 43.5q0 42 -62 54l-100 19q-127 24 -127 132q0 48 26.5 83t73.5 54t108 19q52 0 100 -14.5t82 -43.5l-34 -82q-29 24 -69.5 38t-77.5 14q-49 0 -72.5 -17t-23.5 -45q0 -44 57 -54
l100 -19q65 -12 98.5 -44t33.5 -86q0 -73 -57 -114.5t-152 -41.5zM192 597v116h122v-116h-122z" />
    <glyph glyph-name="uni1E62" unicode="&#x1e62;" horiz-adv-x="631" 
d="M320 -10q-83 0 -154 21.5t-120 58.5l39 101q49 -35 107.5 -54t127.5 -19q79 0 115 26.5t36 68.5q0 35 -25.5 55t-87.5 33l-110 23q-188 40 -188 193q0 66 35 115t97 76t143 27q72 0 135 -21.5t105 -60.5l-39 -96q-83 70 -202 70q-69 0 -108 -29t-39 -76q0 -36 24 -57.5
t82 -33.5l109 -23q99 -21 147.5 -66t48.5 -120q0 -63 -34 -111t-96.5 -74.5t-147.5 -26.5zM262 -204v116h122v-116h-122z" />
    <glyph glyph-name="uni1E63" unicode="&#x1e63;" horiz-adv-x="488" 
d="M244 -10q-62 0 -116 15t-90 43l32 82q37 -25 83 -38.5t92 -13.5q48 0 71.5 16.5t23.5 43.5q0 42 -62 54l-100 19q-127 24 -127 132q0 48 26.5 83t73.5 54t108 19q52 0 100 -14.5t82 -43.5l-34 -82q-29 24 -69.5 38t-77.5 14q-49 0 -72.5 -17t-23.5 -45q0 -44 57 -54
l100 -19q65 -12 98.5 -44t33.5 -86q0 -73 -57 -114.5t-152 -41.5zM183 -204v116h122v-116h-122z" />
    <glyph glyph-name="uni1E64" unicode="&#x1e64;" horiz-adv-x="631" 
d="M320 -10q-83 0 -154 21.5t-120 58.5l39 101q49 -35 107.5 -54t127.5 -19q79 0 115 26.5t36 68.5q0 35 -25.5 55t-87.5 33l-110 23q-188 40 -188 193q0 66 35 115t97 76t143 27q72 0 135 -21.5t105 -60.5l-39 -96q-83 70 -202 70q-69 0 -108 -29t-39 -76q0 -36 24 -57.5
t82 -33.5l109 -23q99 -21 147.5 -66t48.5 -120q0 -63 -34 -111t-96.5 -74.5t-147.5 -26.5zM209 933v88h116v-88h-116zM281 765l118 174h130l-159 -174h-89z" />
    <glyph glyph-name="uni1E65" unicode="&#x1e65;" horiz-adv-x="488" 
d="M244 -10q-62 0 -116 15t-90 43l32 82q37 -25 83 -38.5t92 -13.5q48 0 71.5 16.5t23.5 43.5q0 42 -62 54l-100 19q-127 24 -127 132q0 48 26.5 83t73.5 54t108 19q52 0 100 -14.5t82 -43.5l-34 -82q-29 24 -69.5 38t-77.5 14q-49 0 -72.5 -17t-23.5 -45q0 -44 57 -54
l100 -19q65 -12 98.5 -44t33.5 -86q0 -73 -57 -114.5t-152 -41.5zM139 752v87h116v-87h-116zM211 554l108 203h123l-147 -203h-84z" />
    <glyph glyph-name="uni1E66" unicode="&#x1e66;" horiz-adv-x="631" 
d="M320 -10q-83 0 -154 21.5t-120 58.5l39 101q49 -35 107.5 -54t127.5 -19q79 0 115 26.5t36 68.5q0 35 -25.5 55t-87.5 33l-110 23q-188 40 -188 193q0 66 35 115t97 76t143 27q72 0 135 -21.5t105 -60.5l-39 -96q-83 70 -202 70q-69 0 -108 -29t-39 -76q0 -36 24 -57.5
t82 -33.5l109 -23q99 -21 147.5 -66t48.5 -120q0 -63 -34 -111t-96.5 -74.5t-147.5 -26.5zM267 963v88h116v-88h-116zM270 765l-110 159h80l85 -90l85 90h80l-110 -159h-110z" />
    <glyph glyph-name="uni1E67" unicode="&#x1e67;" horiz-adv-x="488" 
d="M244 -10q-62 0 -116 15t-90 43l32 82q37 -25 83 -38.5t92 -13.5q48 0 71.5 16.5t23.5 43.5q0 42 -62 54l-100 19q-127 24 -127 132q0 48 26.5 83t73.5 54t108 19q52 0 100 -14.5t82 -43.5l-34 -82q-29 24 -69.5 38t-77.5 14q-49 0 -72.5 -17t-23.5 -45q0 -44 57 -54
l100 -19q65 -12 98.5 -44t33.5 -86q0 -73 -57 -114.5t-152 -41.5zM195 752v88h116v-88h-116zM198 554l-110 159h80l85 -90l85 90h80l-110 -159h-110z" />
    <glyph glyph-name="uni1E68" unicode="&#x1e68;" horiz-adv-x="631" 
d="M320 -10q-83 0 -154 21.5t-120 58.5l39 101q49 -35 107.5 -54t127.5 -19q79 0 115 26.5t36 68.5q0 35 -25.5 55t-87.5 33l-110 23q-188 40 -188 193q0 66 35 115t97 76t143 27q72 0 135 -21.5t105 -60.5l-39 -96q-83 70 -202 70q-69 0 -108 -29t-39 -76q0 -36 24 -57.5
t82 -33.5l109 -23q99 -21 147.5 -66t48.5 -120q0 -63 -34 -111t-96.5 -74.5t-147.5 -26.5zM262 -204v116h122v-116h-122zM264 794v116h122v-116h-122z" />
    <glyph glyph-name="uni1E69" unicode="&#x1e69;" horiz-adv-x="488" 
d="M244 -10q-62 0 -116 15t-90 43l32 82q37 -25 83 -38.5t92 -13.5q48 0 71.5 16.5t23.5 43.5q0 42 -62 54l-100 19q-127 24 -127 132q0 48 26.5 83t73.5 54t108 19q52 0 100 -14.5t82 -43.5l-34 -82q-29 24 -69.5 38t-77.5 14q-49 0 -72.5 -17t-23.5 -45q0 -44 57 -54
l100 -19q65 -12 98.5 -44t33.5 -86q0 -73 -57 -114.5t-152 -41.5zM183 -204v116h122v-116h-122zM192 597v116h122v-116h-122z" />
    <glyph glyph-name="uni1E6C" unicode="&#x1e6c;" horiz-adv-x="621" 
d="M247 0v598h-242v107h612v-107h-242v-598h-128zM250 -204v116h122v-116h-122z" />
    <glyph glyph-name="uni1E6D" unicode="&#x1e6d;" horiz-adv-x="384" 
d="M289 -10q-194 0 -194 192v213h-94v94h94v146h125v-146h148v-94h-148v-206q0 -48 21 -72t68 -24q14 0 29 3.5t31 7.5l19 -92q-18 -10 -45.5 -16t-53.5 -6zM169 -204v116h122v-116h-122z" />
    <glyph glyph-name="uni1E6E" unicode="&#x1e6e;" horiz-adv-x="621" 
d="M247 0v598h-242v107h612v-107h-242v-598h-128zM154 -165v74h315v-74h-315z" />
    <glyph glyph-name="uni1E6F" unicode="&#x1e6f;" horiz-adv-x="384" 
d="M289 -10q-194 0 -194 192v213h-94v94h94v146h125v-146h148v-94h-148v-206q0 -48 21 -72t68 -24q14 0 29 3.5t31 7.5l19 -92q-18 -10 -45.5 -16t-53.5 -6zM73 -165v74h315v-74h-315z" />
    </font>
</defs>
</svg>
